<svg width="250" height="250" viewBox="0 0 250 250" fill="none" xmlns="http://www.w3.org/2000/svg">
<g clip-path="url(#clip0_35_472)">
<mask id="mask0_35_472" style="mask-type:luminance" maskUnits="userSpaceOnUse" x="0" y="0" width="250" height="250">
<path d="M250 0H0V250H250V0Z" fill="white"/>
</mask>
<g mask="url(#mask0_35_472)">
<path d="M250 0H0V250H250V0Z" fill="white"/>
<mask id="mask1_35_472" style="mask-type:luminance" maskUnits="userSpaceOnUse" x="15" y="74" width="220" height="102">
<path d="M235 74H15V175.833H235V74Z" fill="white"/>
</mask>
<g mask="url(#mask1_35_472)">
<path d="M34.7454 170.947L34.4494 170.835C34.3842 170.81 27.9076 168.327 24.8737 162.697C21.8399 157.066 23.3252 150.286 23.3404 150.218L23.4102 149.909L23.7062 150.02C23.7714 150.045 30.2477 152.528 33.2819 158.159C36.3161 163.79 34.8302 170.57 34.8152 170.638L34.7454 170.947ZM25.3596 162.435C27.9246 167.195 33.0429 169.635 34.3394 170.193C34.5859 168.802 35.3591 163.177 32.7964 158.421C30.2337 153.665 25.1131 151.221 23.8166 150.663C23.5699 152.054 22.7969 157.678 25.3596 162.435Z" fill="#1AD877"/>
<path d="M27.1925 160.721C32.6448 164.004 34.7447 170.525 34.7447 170.525C34.7447 170.525 28.0045 171.723 22.5522 168.44C17.0998 165.156 15 158.636 15 158.636C15 158.636 21.7402 157.438 27.1925 160.721Z" fill="#1AD877"/>
<path d="M201.687 75.2542H140.887V74H113.317V75.2542H52.2667C51.1755 75.2547 50.1291 75.6888 49.3578 76.4608C48.5866 77.2328 48.1536 78.2796 48.1541 79.3708V162.688C48.1538 163.228 48.26 163.763 48.4665 164.263C48.6731 164.762 48.976 165.215 49.3579 165.598C49.7398 165.98 50.1933 166.283 50.6924 166.49C51.1915 166.697 51.7264 166.803 52.2667 166.803H201.687C202.778 166.802 203.823 166.368 204.594 165.597C205.365 164.825 205.798 163.779 205.798 162.688V79.37C205.799 78.8297 205.693 78.2945 205.487 77.7951C205.28 77.2957 204.978 76.8419 204.596 76.4596C204.214 76.0773 203.76 75.7739 203.261 75.567C202.762 75.36 202.227 75.2534 201.687 75.2533V75.2542Z" fill="#333333"/>
<path d="M200.285 82.5283H53.6685V165.299H200.285V82.5283Z" fill="white"/>
<path d="M126.851 80.2707C127.149 80.271 127.44 80.1829 127.688 80.0177C127.935 79.8524 128.128 79.6175 128.243 79.3425C128.357 79.0675 128.387 78.7649 128.329 78.4728C128.271 78.1808 128.127 77.9126 127.917 77.702C127.707 77.4914 127.438 77.3479 127.146 77.2897C126.854 77.2316 126.552 77.2613 126.277 77.3752C126.002 77.4891 125.767 77.682 125.601 77.9295C125.436 78.177 125.347 78.468 125.347 78.7657C125.347 78.9633 125.386 79.159 125.462 79.3415C125.537 79.5241 125.648 79.69 125.788 79.8297C125.927 79.9695 126.093 80.0804 126.276 80.156C126.458 80.2317 126.654 80.2707 126.851 80.2707Z" fill="white"/>
<path d="M191.868 93.0618H184.918V86.1064H191.868V93.0618ZM185.22 92.7594H191.567V86.4094H185.22V92.7594Z" fill="#333333"/>
<path d="M209.915 163.794H195.607V162.762C195.607 162.736 195.602 162.709 195.592 162.684C195.58 162.66 195.565 162.637 195.547 162.617C195.528 162.598 195.505 162.583 195.48 162.573C195.455 162.563 195.429 162.558 195.402 162.558H190.497C190.47 162.558 190.443 162.563 190.418 162.573C190.393 162.583 190.371 162.598 190.352 162.617C190.333 162.637 190.318 162.66 190.307 162.684C190.297 162.709 190.292 162.736 190.292 162.762V163.794H187.225V162.762C187.225 162.736 187.22 162.709 187.21 162.684C187.189 162.635 187.149 162.595 187.1 162.573C187.075 162.563 187.049 162.558 187.022 162.558H182.115C182.088 162.558 182.062 162.563 182.037 162.573C182.012 162.584 181.989 162.599 181.97 162.618C181.932 162.656 181.911 162.708 181.912 162.762V163.794H178.845V162.762C178.845 162.735 178.84 162.709 178.828 162.684C178.818 162.659 178.804 162.637 178.785 162.617C178.766 162.598 178.743 162.583 178.718 162.573C178.694 162.563 178.667 162.558 178.64 162.558H173.735C173.708 162.558 173.682 162.563 173.657 162.573C173.632 162.583 173.609 162.598 173.59 162.617C173.571 162.637 173.556 162.659 173.545 162.684C173.535 162.709 173.53 162.736 173.53 162.762V163.794H170.463V162.762C170.463 162.736 170.458 162.709 170.448 162.684C170.438 162.659 170.423 162.636 170.403 162.617C170.385 162.599 170.363 162.584 170.338 162.573C170.314 162.563 170.287 162.558 170.26 162.558H165.354C165.299 162.558 165.247 162.579 165.209 162.618C165.171 162.656 165.149 162.708 165.149 162.762V163.794H162.083V162.762C162.083 162.722 162.071 162.682 162.049 162.648C162.027 162.615 161.995 162.589 161.957 162.573C161.932 162.563 161.906 162.558 161.879 162.558H156.973C156.946 162.558 156.919 162.563 156.894 162.573C156.87 162.583 156.847 162.598 156.828 162.617C156.809 162.636 156.794 162.659 156.784 162.684C156.773 162.709 156.768 162.735 156.768 162.762V163.794H153.702V162.762C153.702 162.735 153.696 162.709 153.686 162.684C153.676 162.659 153.661 162.636 153.642 162.617C153.623 162.598 153.6 162.583 153.575 162.573C153.55 162.563 153.524 162.558 153.497 162.558H148.592C148.565 162.558 148.538 162.563 148.513 162.573C148.489 162.583 148.466 162.598 148.447 162.617C148.428 162.636 148.413 162.659 148.403 162.684C148.393 162.709 148.387 162.735 148.387 162.762V163.794H145.321V162.762C145.321 162.735 145.315 162.709 145.305 162.684C145.295 162.659 145.28 162.636 145.261 162.617C145.242 162.598 145.219 162.583 145.194 162.573C145.17 162.563 145.143 162.558 145.116 162.558H106.687C106.66 162.558 106.634 162.563 106.609 162.573C106.584 162.583 106.561 162.598 106.543 162.617C106.524 162.637 106.508 162.659 106.498 162.684C106.488 162.709 106.483 162.736 106.483 162.762V163.794H103.417V162.762C103.417 162.736 103.411 162.709 103.401 162.684C103.38 162.634 103.34 162.594 103.29 162.573C103.266 162.563 103.239 162.558 103.212 162.558H98.3062C98.2793 162.558 98.2527 162.563 98.2279 162.573C98.2031 162.584 98.1805 162.599 98.1615 162.618C98.1425 162.637 98.1274 162.659 98.1172 162.684C98.1069 162.709 98.1016 162.736 98.1017 162.762V163.794H95.035V162.762C95.0351 162.722 95.0231 162.682 95.0006 162.649C94.9782 162.615 94.9462 162.589 94.9089 162.573C94.884 162.563 94.8574 162.558 94.8305 162.558H89.9252C89.8984 162.558 89.8718 162.563 89.847 162.573C89.8096 162.589 89.7777 162.615 89.7552 162.649C89.7327 162.682 89.7208 162.722 89.7209 162.762V163.794H86.6542V162.762C86.6542 162.736 86.649 162.709 86.6387 162.684C86.6179 162.634 86.5781 162.594 86.528 162.573C86.5033 162.563 86.4767 162.558 86.4499 162.558H81.5443C81.5175 162.558 81.4909 162.563 81.4661 162.573C81.4412 162.584 81.4187 162.599 81.3997 162.618C81.3807 162.637 81.3656 162.659 81.3553 162.684C81.3451 162.709 81.3398 162.736 81.3399 162.762V163.794H78.2732V162.762C78.2732 162.736 78.268 162.709 78.2577 162.684C78.2474 162.659 78.2324 162.637 78.2134 162.618C78.1944 162.599 78.1718 162.584 78.147 162.573C78.1222 162.563 78.0956 162.558 78.0687 162.558H73.1634C73.1365 162.558 73.11 162.563 73.0852 162.573C73.0478 162.589 73.0159 162.615 72.9934 162.649C72.9709 162.682 72.9589 162.722 72.9589 162.762V163.794H69.8922V162.762C69.8922 162.736 69.887 162.709 69.8767 162.684C69.8559 162.634 69.8161 162.594 69.766 162.573C69.7412 162.563 69.7147 162.558 69.6879 162.558H64.7824C64.7555 162.558 64.7289 162.563 64.7041 162.573C64.6793 162.584 64.6568 162.599 64.6379 162.618C64.6188 162.637 64.6038 162.659 64.5935 162.684C64.5832 162.709 64.578 162.736 64.578 162.762V163.794H61.5114V162.762C61.5113 162.736 61.506 162.709 61.4957 162.684C61.4855 162.659 61.4705 162.637 61.4515 162.618C61.4325 162.599 61.41 162.584 61.3852 162.573C61.3604 162.563 61.3337 162.558 61.3069 162.558H56.4015C56.3747 162.558 56.3481 162.563 56.3234 162.573C56.286 162.589 56.254 162.615 56.2316 162.649C56.2091 162.682 56.1971 162.722 56.197 162.762V163.794H46.7942C45.4926 163.795 44.2446 164.312 43.3245 165.233C42.4045 166.154 41.8878 167.402 41.8882 168.704V170.924C41.8878 172.225 42.4044 173.474 43.3244 174.395C44.2445 175.315 45.4925 175.833 46.7942 175.834H209.915C210.56 175.833 211.198 175.706 211.793 175.459C212.389 175.213 212.93 174.851 213.385 174.395C213.841 173.939 214.202 173.398 214.449 172.802C214.695 172.207 214.822 171.568 214.822 170.924V168.704C214.822 168.059 214.695 167.421 214.449 166.825C214.202 166.23 213.841 165.688 213.385 165.233C212.93 164.777 212.389 164.415 211.793 164.168C211.198 163.921 210.56 163.794 209.915 163.794Z" fill="#333333"/>
<path d="M235 170.797H21.7097V171.449H235V170.797Z" fill="#333333"/>
<path d="M191.222 128.65H144.016V101.754H191.222V128.65ZM144.483 128.182H190.755V102.222H144.483V128.182Z" fill="#333333"/>
<path d="M104.755 134.029H62.6904V107.835H104.755V134.029ZM63.1578 133.561H104.288V108.303H63.1578V133.561Z" fill="#333333"/>
<path d="M82.3425 123.971L82.3024 123.448C82.1819 122.362 82.5435 121.176 83.5484 119.969C84.4527 118.902 84.9552 118.119 84.9552 117.214C84.9552 116.188 84.312 115.504 83.0459 115.484C82.3217 115.481 81.6137 115.699 81.016 116.107L80.5337 114.841C81.197 114.357 82.3425 114.036 83.4077 114.036C85.7189 114.036 86.7639 115.464 86.7639 116.993C86.7639 118.36 86.0002 119.346 85.0355 120.493C84.1514 121.538 83.8297 122.423 83.89 123.449L83.91 123.972L82.3425 123.971ZM81.9004 126.788C81.8895 126.624 81.9128 126.46 81.9687 126.305C82.0247 126.151 82.1121 126.009 82.2254 125.89C82.3387 125.771 82.4755 125.677 82.6271 125.614C82.7787 125.55 82.9419 125.519 83.1062 125.521C83.8097 125.521 84.292 126.044 84.292 126.788C84.2986 126.949 84.2726 127.11 84.2154 127.261C84.1583 127.412 84.0713 127.55 83.9596 127.666C83.8479 127.782 83.7138 127.875 83.5655 127.938C83.4171 128.001 83.2575 128.034 83.0962 128.034C82.9349 128.034 82.7753 128.001 82.6269 127.938C82.4785 127.875 82.3445 127.782 82.2328 127.666C82.1211 127.55 82.0341 127.412 81.9769 127.261C81.9198 127.11 81.8938 126.949 81.9004 126.788Z" fill="#333333"/>
<path d="M166.238 118.126L166.198 117.603C166.078 116.517 166.439 115.33 167.443 114.123C168.348 113.057 168.852 112.273 168.852 111.368C168.852 110.342 168.208 109.658 166.942 109.638C166.217 109.635 165.509 109.853 164.912 110.262L164.429 108.995C165.093 108.512 166.238 108.19 167.303 108.19C169.615 108.19 170.66 109.619 170.66 111.147C170.66 112.515 169.897 113.5 168.932 114.647C168.047 115.693 167.725 116.578 167.785 117.603L167.807 118.126L166.238 118.126ZM165.796 120.942C165.785 120.778 165.809 120.614 165.864 120.459C165.92 120.305 166.008 120.164 166.121 120.045C166.234 119.925 166.371 119.831 166.523 119.768C166.674 119.704 166.837 119.673 167.002 119.676C167.705 119.676 168.188 120.198 168.188 120.942C168.195 121.104 168.169 121.265 168.112 121.416C168.011 121.682 167.819 121.903 167.57 122.04C167.321 122.178 167.031 122.222 166.752 122.165C166.474 122.108 166.224 121.953 166.049 121.729C165.874 121.505 165.784 121.226 165.796 120.942Z" fill="#333333"/>
<path d="M127.802 155.187C131.794 155.19 135.698 154.009 139.018 151.793C142.339 149.577 144.928 146.427 146.458 142.739C147.988 139.052 148.39 134.993 147.613 131.078C146.835 127.162 144.915 123.564 142.093 120.741C139.271 117.917 135.675 115.993 131.76 115.213C127.844 114.433 123.786 114.832 120.097 116.359C116.409 117.886 113.256 120.473 111.038 123.792C108.82 127.111 107.636 131.014 107.635 135.006C107.634 137.655 108.155 140.279 109.168 142.727C110.181 145.175 111.666 147.399 113.539 149.273C115.412 151.147 117.635 152.634 120.082 153.649C122.53 154.664 125.153 155.186 127.802 155.187Z" fill="#C4A3FF"/>
<path d="M120.014 162.643L113.985 161.55L115.94 148.953L121.969 150.045L120.014 162.643Z" fill="#C4A3FF"/>
<path d="M134.026 152.229L127.997 151.137L126.042 161.946L132.07 163.038L134.026 152.229Z" fill="#C4A3FF"/>
<path d="M136.1 163.627C136.309 162.59 134.238 161.296 131.475 160.738C128.711 160.179 126.301 160.568 126.091 161.604C125.882 162.641 127.953 163.935 130.717 164.494C133.481 165.052 135.89 164.664 136.1 163.627Z" fill="#C4A3FF"/>
<path d="M123.544 163.301C123.682 162.252 121.529 161.101 118.734 160.731C115.939 160.36 113.56 160.91 113.421 161.959C113.283 163.008 115.436 164.159 118.231 164.529C121.026 164.9 123.405 164.35 123.544 163.301Z" fill="#C4A3FF"/>
<path d="M129.214 136.967C130.579 136.968 131.913 136.564 133.048 135.807C134.183 135.05 135.068 133.973 135.59 132.713C136.113 131.452 136.251 130.065 135.985 128.727C135.72 127.389 135.063 126.159 134.099 125.194C133.134 124.229 131.905 123.571 130.567 123.305C129.229 123.038 127.842 123.175 126.581 123.696C125.321 124.218 124.243 125.102 123.485 126.237C122.727 127.371 122.322 128.705 122.322 130.069C122.321 131.898 123.047 133.652 124.34 134.945C125.632 136.239 127.386 136.966 129.214 136.967Z" fill="white"/>
<path d="M132.047 129.896C132.502 129.897 132.947 129.762 133.325 129.51C133.704 129.257 133.999 128.898 134.174 128.478C134.349 128.058 134.395 127.595 134.306 127.149C134.218 126.703 133.999 126.292 133.677 125.97C133.356 125.648 132.946 125.429 132.499 125.34C132.053 125.251 131.59 125.297 131.17 125.471C130.75 125.645 130.39 125.94 130.137 126.318C129.885 126.697 129.75 127.142 129.75 127.597C129.75 128.206 129.992 128.791 130.422 129.222C130.853 129.653 131.437 129.895 132.047 129.896Z" fill="#333333"/>
<path d="M111.894 113.05C111.591 105.579 118.025 99.25 126.266 98.9152C134.506 98.5804 141.432 104.365 141.736 111.837C142.039 119.309 136.311 121.006 128.07 121.341C119.83 121.676 112.197 120.522 111.894 113.05Z" fill="#FF73D2"/>
<path d="M147.13 134.417C152.558 133.172 156.641 130.78 156.251 129.075C155.86 127.37 151.143 126.997 145.715 128.242C140.288 129.487 136.204 131.878 136.594 133.584C136.985 135.289 141.702 135.662 147.13 134.417Z" fill="#C4A3FF"/>
<path d="M107.545 141.005C112.973 139.76 117.056 137.368 116.666 135.663C116.275 133.957 111.558 133.584 106.131 134.829C100.703 136.074 96.6191 138.466 97.0097 140.172C97.4004 141.877 102.117 142.25 107.545 141.005Z" fill="#C4A3FF"/>
<path d="M122.264 142.959C122.046 144.158 122.314 145.395 123.009 146.396C123.703 147.398 124.767 148.082 125.966 148.299C127.165 148.517 128.401 148.249 129.403 147.554C130.404 146.86 131.089 145.796 131.306 144.597C131.758 142.098 129.827 141.214 127.33 140.762C124.833 140.309 122.716 140.46 122.264 142.959Z" fill="white"/>
<path d="M84.2718 77.0693H51.1138V108.635H84.2718V77.0693Z" fill="#FF4D3E"/>
<path d="M80.5038 80.8398H54.8816V100.448H80.5038V80.8398Z" fill="white"/>
<path d="M68.7931 102.762H54.8564V103.495H68.7931V102.762Z" fill="white"/>
<path d="M68.7931 104.964H54.8564V105.697H68.7931V104.964Z" fill="white"/>
<path d="M59.4409 93.5856C60.0218 93.5862 60.5898 93.4144 61.0731 93.0922C61.5563 92.7699 61.9331 92.3115 62.1559 91.775C62.3786 91.2385 62.4371 90.648 62.3242 90.0782C62.2112 89.5084 61.9318 88.9849 61.5213 88.574C61.1107 88.163 60.5875 87.8831 60.0179 87.7695C59.4482 87.656 58.8576 87.714 58.3209 87.9361C57.7842 88.1583 57.3254 88.5346 57.0026 89.0176C56.6799 89.5005 56.5076 90.0683 56.5076 90.6492C56.5073 91.4275 56.8162 92.1741 57.3662 92.7248C57.9163 93.2754 58.6626 93.585 59.4409 93.5856Z" fill="#333333"/>
<path d="M67.6929 93.5856C68.2737 93.5862 68.8417 93.4144 69.325 93.0922C69.8083 92.7699 70.1851 92.3115 70.4078 91.775C70.6305 91.2385 70.6891 90.648 70.5761 90.0782C70.4632 89.5084 70.1837 88.9849 69.7732 88.574C69.3627 88.163 68.8395 87.8831 68.2698 87.7695C67.7001 87.656 67.1096 87.714 66.5729 87.9361C66.0361 88.1583 65.5774 88.5346 65.2546 89.0176C64.9318 89.5005 64.7595 90.0683 64.7595 90.6492C64.7592 91.4276 65.0681 92.1742 65.6181 92.7248C66.1682 93.2755 66.9145 93.5851 67.6929 93.5856Z" fill="#FF73D2"/>
<path d="M75.9449 93.5856C76.5258 93.586 77.0937 93.4141 77.5769 93.0917C78.0601 92.7693 78.4368 92.3108 78.6593 91.7743C78.8819 91.2378 78.9403 90.6473 78.8272 90.0775C78.7141 89.5078 78.4346 88.9844 78.024 88.5735C77.6133 88.1627 77.0901 87.8828 76.5204 87.7694C75.9507 87.656 75.3602 87.7141 74.8235 87.9363C74.2869 88.1586 73.8282 88.535 73.5055 89.018C73.1828 89.501 73.0106 90.0689 73.0107 90.6497C73.0106 91.4281 73.3196 92.1747 73.8698 92.7253C74.4201 93.2758 75.1665 93.5853 75.9449 93.5856Z" fill="#FFBC43"/>
<path d="M67.6927 80.3719C67.9832 80.3722 68.2672 80.2863 68.5088 80.1252C68.7505 79.964 68.9389 79.7348 69.0502 79.4666C69.1616 79.1984 69.1909 78.9031 69.1344 78.6182C69.0779 78.3333 68.9382 78.0716 68.7329 77.8661C68.5277 77.6606 68.2661 77.5206 67.9812 77.4639C67.6964 77.4071 67.4011 77.4361 67.1327 77.5472C66.8644 77.6582 66.635 77.8464 66.4736 78.0879C66.3122 78.3294 66.2261 78.6133 66.2261 78.9037C66.2259 79.2929 66.3804 79.6662 66.6554 79.9415C66.9305 80.2168 67.3036 80.3716 67.6927 80.3719Z" fill="#333333"/>
<path d="M100.043 138.188H66.8853V169.753H100.043V138.188Z" fill="#FF4D3E"/>
<path d="M96.2752 141.96H70.6531V161.568H96.2752V141.96Z" fill="white"/>
<path d="M85.2738 145.182H76.2913V154.171H85.2738V145.182Z" fill="white"/>
<path d="M79.7297 147.43V158.345H90.6371V147.43H79.7297ZM90.1639 157.872H80.2029V147.903H90.1639V157.872Z" fill="#333333"/>
<path d="M84.5646 163.515H70.6279V164.248H84.5646V163.515Z" fill="white"/>
<path d="M83.4642 141.492C83.7547 141.492 84.0387 141.406 84.2803 141.245C84.5219 141.084 84.7104 140.855 84.8217 140.587C84.9331 140.318 84.9623 140.023 84.9059 139.738C84.8494 139.453 84.7097 139.192 84.5044 138.986C84.2991 138.781 84.0375 138.641 83.7527 138.584C83.4679 138.527 83.1726 138.556 82.9042 138.667C82.6359 138.778 82.4065 138.967 82.2451 139.208C82.0837 139.449 81.9976 139.733 81.9976 140.024C81.9974 140.413 82.1519 140.786 82.4269 141.062C82.7019 141.337 83.0751 141.492 83.4642 141.492Z" fill="#333333"/>
<path d="M186.373 128.739H153.215V160.304H186.373V128.739Z" fill="#FF4D3E"/>
<path d="M182.605 132.51H156.983V152.118H182.605V132.51Z" fill="white"/>
<path d="M172.55 147.86H167.038V149.495H172.55V147.86Z" fill="#333333"/>
<path d="M179.213 135.134H160.374V135.834H179.213V135.134Z" fill="#333333"/>
<path d="M179.213 137.352H160.374V138.052H179.213V137.352Z" fill="#333333"/>
<path d="M179.213 139.57H160.374V140.27H179.213V139.57Z" fill="#333333"/>
<path d="M179.213 141.788H160.374V142.488H179.213V141.788Z" fill="#333333"/>
<path d="M179.213 144.007H160.374V144.707H179.213V144.007Z" fill="#333333"/>
<path d="M170.893 154.064H156.957V154.798H170.893V154.064Z" fill="white"/>
<path d="M176.395 155.9H156.957V156.634H176.395V155.9Z" fill="white"/>
<path d="M169.793 132.042C170.084 132.042 170.368 131.956 170.609 131.795C170.851 131.634 171.039 131.405 171.151 131.137C171.262 130.868 171.291 130.573 171.235 130.288C171.178 130.003 171.039 129.741 170.834 129.536C170.628 129.331 170.367 129.191 170.082 129.134C169.797 129.077 169.502 129.106 169.233 129.217C168.965 129.328 168.736 129.516 168.574 129.758C168.413 129.999 168.327 130.283 168.327 130.574C168.327 130.963 168.481 131.336 168.756 131.611C169.031 131.886 169.404 132.041 169.793 132.042Z" fill="#333333"/>
</g>
<path d="M166.667 28.833H84.6667V75.4997H166.667V28.833Z" fill="#CCCCCC"/>
<path d="M123.5 33.166H88.5V75.4993H123.5V33.166Z" fill="white"/>
<path d="M162.333 33.166H127.333V75.4993H162.333V33.166Z" fill="white"/>
</g>
</g>
<defs>
<clipPath id="clip0_35_472">
<rect width="250" height="250" fill="white"/>
</clipPath>
</defs>
</svg>
