<svg width="250" height="250" viewBox="0 0 250 250" fill="none" xmlns="http://www.w3.org/2000/svg">
<path d="M224.528 77.8965H26.6113C23.7349 77.8965 21.4028 80.2285 21.4028 83.105V202.896C21.4028 217.256 33.085 228.938 47.4443 228.938H203.695C218.054 228.938 229.736 217.256 229.736 202.896V83.105C229.736 80.2285 227.404 77.8965 224.528 77.8965Z" fill="#333333"/>
<path d="M224.528 77.897H21.4028V119.563H229.736V83.105C229.736 80.2285 227.404 77.8965 224.528 77.8965V77.897Z" fill="#666666"/>
<path d="M21.4028 77.8965V119.563H57.8618L94.3198 77.8965H21.4028Z" fill="white"/>
<path d="M162.028 119.563H109.945L146.403 77.8965H198.486L162.028 119.563Z" fill="white"/>
<path d="M223.813 60.8661L21.4032 77.8964L20.0932 62.3266C18.8871 47.995 29.5282 35.3989 43.8598 34.1933L199.559 21.0932C213.891 19.8871 226.487 30.5282 227.693 44.8598L228.566 55.2397C228.808 58.1059 226.679 60.6254 223.813 60.8661Z" fill="#666666"/>
<path d="M54.2397 33.3203L43.8598 34.1938C29.5282 35.3999 18.8871 47.9956 20.0932 62.3272L21.4032 77.897L94.0634 71.7837L54.2416 33.3218L54.2397 33.3203Z" fill="white"/>
<path d="M197.863 63.0493L145.963 67.416L106.14 28.9526L158.04 24.5859L197.863 63.0493Z" fill="white"/>
<path d="M158.982 166.467L108.667 137.956C104.605 135.654 99.5278 138.531 99.5278 143.134V200.158C99.5278 204.762 104.605 207.639 108.667 205.337L158.982 176.825C163.043 174.524 163.043 168.769 158.982 166.467Z" fill="white"/>
</svg>
