<svg width="250" height="250" viewBox="0 0 250 250" fill="none" xmlns="http://www.w3.org/2000/svg">
<path d="M23.2362 163.604C20.2904 163.605 17.3883 162.892 14.7782 161.527C12.1681 160.161 9.92779 158.183 8.24918 155.762C6.57057 153.342 5.50361 150.55 5.13967 147.627C4.77572 144.704 5.12562 141.736 6.15941 138.977C7.19321 136.219 8.88009 133.752 11.0756 131.788C13.2712 129.824 15.91 128.421 18.7661 127.7C21.6223 126.979 24.6107 126.961 27.4754 127.647C30.3402 128.333 32.996 129.703 35.2154 131.64C35.7863 132.068 36.2633 132.608 36.6169 133.227C36.9705 133.847 37.1931 134.532 37.2709 135.241C37.3487 135.95 37.28 136.668 37.0691 137.349C36.8583 138.03 36.5098 138.661 36.0451 139.202C35.5805 139.743 35.0096 140.183 34.368 140.495C33.7264 140.806 33.0276 140.983 32.315 141.013C31.6024 141.043 30.8912 140.927 30.2254 140.671C29.5596 140.415 28.9535 140.025 28.4446 139.526C27.0004 138.267 25.1517 137.57 23.2362 137.562C21.1642 137.562 19.1771 138.385 17.712 139.85C16.2468 141.316 15.4237 143.303 15.4237 145.375C15.4237 147.447 16.2468 149.434 17.712 150.899C19.1771 152.364 21.1642 153.187 23.2362 153.187C25.1517 153.179 27.0004 152.482 28.4446 151.224C29.5021 150.432 30.8211 150.071 32.1344 150.215C33.4477 150.36 34.6572 150.997 35.5179 152C36.3785 153.002 36.8261 154.294 36.77 155.614C36.7138 156.934 36.1581 158.183 35.2154 159.109C31.8895 161.994 27.6387 163.589 23.2362 163.604Z" fill="#66B8FC"/>
<path d="M93.5488 213.084C84.5497 213.085 75.6406 211.293 67.3422 207.811C59.0439 204.33 51.5228 199.229 45.2187 192.807C38.9145 186.385 33.9539 178.771 30.6266 170.409C27.2993 162.048 25.6722 153.107 25.8404 144.11C26.5364 126.129 34.2168 109.129 47.2493 96.7215C60.2818 84.3143 77.6391 77.4785 95.6321 77.6669H228.965C233.109 77.6669 237.084 79.3131 240.014 82.2433C242.944 85.1736 244.59 89.1479 244.59 93.2919V121.834C244.581 125.248 243.457 128.566 241.388 131.283C239.32 134 236.421 135.968 233.132 136.886L163.226 156.313C162.334 156.544 161.523 157.016 160.88 157.676C160.237 158.336 159.787 159.16 159.58 160.057C156.181 175.055 147.804 188.46 135.814 198.089C123.824 207.717 108.926 213.003 93.5488 213.084Z" fill="#0088FA"/>
<path d="M93.5487 176.625C110.808 176.625 124.799 162.634 124.799 145.375C124.799 128.116 110.808 114.125 93.5487 114.125C76.2898 114.125 62.2987 128.116 62.2987 145.375C62.2987 162.634 76.2898 176.625 93.5487 176.625Z" fill="#66B8FC"/>
<path d="M182.09 77.667H140.424V82.8753C140.424 85.638 141.521 88.2875 143.475 90.241C145.428 92.1945 148.078 93.292 150.84 93.292H171.674C174.437 93.292 177.086 92.1945 179.04 90.241C180.993 88.2875 182.09 85.638 182.09 82.8753V77.667Z" fill="#66B8FC"/>
<path d="M161.257 56.8333C159.876 56.8333 158.551 56.2846 157.574 55.3078C156.598 54.3311 156.049 53.0063 156.049 51.625V41.2083C156.049 39.827 156.598 38.5022 157.574 37.5255C158.551 36.5487 159.876 36 161.257 36C162.638 36 163.963 36.5487 164.94 37.5255C165.917 38.5022 166.465 39.827 166.465 41.2083V51.625C166.465 53.0063 165.917 54.3311 164.94 55.3078C163.963 56.2846 162.638 56.8333 161.257 56.8333Z" fill="#333333"/>
<path d="M188.861 68.2915C187.831 68.2871 186.826 67.9775 185.972 67.4016C185.117 66.8258 184.453 66.0096 184.063 65.0563C183.673 64.103 183.574 63.0554 183.779 62.046C183.984 61.0365 184.484 60.1106 185.215 59.3852L192.58 52.0206C193.562 51.0719 194.878 50.5469 196.244 50.5588C197.609 50.5707 198.916 51.1184 199.881 52.0841C200.847 53.0497 201.395 54.3561 201.406 55.7217C201.418 57.0873 200.893 58.4029 199.945 59.3852L192.559 66.729C192.077 67.2211 191.502 67.6126 190.867 67.8808C190.232 68.149 189.55 68.2886 188.861 68.2915Z" fill="#333333"/>
<path d="M133.653 68.2915C132.272 68.2912 130.947 67.7422 129.971 66.7654L122.59 59.3852C121.642 58.4029 121.117 57.0873 121.129 55.7217C121.14 54.3561 121.688 53.0497 122.654 52.0841C123.62 51.1184 124.926 50.5707 126.291 50.5588C127.657 50.5469 128.973 51.0719 129.955 52.0206L137.299 59.3852C138.03 60.1106 138.53 61.0365 138.735 62.046C138.94 63.0554 138.841 64.103 138.451 65.0563C138.061 66.0096 137.397 66.8258 136.543 67.4016C135.689 67.9775 134.683 68.2871 133.653 68.2915Z" fill="#333333"/>
</svg>
