<svg width="250" height="250" viewBox="0 0 250 250" fill="none" xmlns="http://www.w3.org/2000/svg">
<path d="M124.583 239.167C187.866 239.167 239.167 187.866 239.167 124.583C239.167 61.3007 187.866 10 124.583 10C61.3007 10 10 61.3007 10 124.583C10 187.866 61.3007 239.167 124.583 239.167Z" fill="#FF3929"/>
<path d="M124.583 207.917C170.607 207.917 207.917 170.607 207.917 124.583C207.917 78.5596 170.607 41.25 124.583 41.25C78.5596 41.25 41.25 78.5596 41.25 124.583C41.25 170.607 78.5596 207.917 124.583 207.917Z" fill="white"/>
<path d="M124.583 181.874C156.225 181.874 181.875 156.224 181.875 124.583C181.875 92.9414 156.225 67.291 124.583 67.291C92.9421 67.291 67.2917 92.9414 67.2917 124.583C67.2917 156.224 92.9421 181.874 124.583 181.874Z" fill="#FF3929"/>
<path d="M124.583 150.624C138.966 150.624 150.625 138.965 150.625 124.583C150.625 110.2 138.966 98.541 124.583 98.541C110.201 98.541 98.5417 110.2 98.5417 124.583C98.5417 138.965 110.201 150.624 124.583 150.624Z" fill="white"/>
<path d="M124.583 129.791C123.553 129.791 122.546 129.485 121.69 128.913C120.834 128.341 120.166 127.527 119.772 126.576C119.378 125.624 119.275 124.577 119.476 123.567C119.677 122.557 120.173 121.629 120.901 120.901L199.026 42.7755C200.008 41.8268 201.324 41.3018 202.689 41.3137C204.055 41.3255 205.361 41.8733 206.327 42.839C207.293 43.8046 207.84 45.1109 207.852 46.4766C207.864 47.8422 207.339 49.1578 206.39 50.1401L128.265 128.265C127.289 129.242 125.964 129.791 124.583 129.791Z" fill="#333333"/>
<path d="M236.636 35.1764C236.044 33.7479 235.042 32.527 233.756 31.6685C232.47 30.8099 230.958 30.3523 229.412 30.3535H218.813V19.7545C218.813 18.2088 218.356 16.6977 217.497 15.4123C216.639 14.1269 215.418 13.125 213.99 12.5334C212.562 11.9418 210.991 11.787 209.475 12.0888C207.959 12.3905 206.567 13.1352 205.474 14.2285L188.589 31.1191C187.862 31.8426 187.285 32.703 186.893 33.6506C186.5 34.5982 186.3 35.6143 186.302 36.6399V57.6608C186.302 59.0421 186.851 60.3669 187.828 61.3436C188.805 62.3204 190.129 62.8691 191.511 62.8691H212.526C213.552 62.8719 214.569 62.6708 215.517 62.2774C216.464 61.884 217.325 61.3061 218.047 60.5774L234.943 43.6868C236.035 42.5944 236.778 41.203 237.079 39.6882C237.381 38.1735 237.226 36.6034 236.636 35.1764Z" fill="#FFBC43"/>
<path d="M191.51 62.8691H212.526C213.552 62.872 214.569 62.6708 215.516 62.2774C216.464 61.884 217.324 61.3062 218.047 60.5775L234.943 43.6869C236.034 42.5937 236.778 41.2013 237.078 39.6857C237.379 38.1702 237.223 36.5995 236.631 35.1724C236.039 33.7453 235.037 32.5258 233.752 31.668C232.467 30.8103 230.956 30.3528 229.411 30.3535H218.812L187.823 61.3431C188.307 61.8274 188.882 62.2115 189.515 62.4733C190.147 62.7352 190.825 62.8697 191.51 62.8691Z" fill="#FFAB14"/>
</svg>
