<svg width="250" height="250" viewBox="0 0 250 250" fill="none" xmlns="http://www.w3.org/2000/svg">
<path d="M192.458 239.167H57.0417C50.1375 239.158 43.5185 236.412 38.6366 231.53C33.7546 226.648 31.0083 220.029 31 213.125V36.0417C31.0083 29.1375 33.7546 22.5185 38.6366 17.6366C43.5185 12.7546 50.1375 10.0083 57.0417 10H192.458C199.362 10.0083 205.981 12.7546 210.863 17.6366C215.745 22.5185 218.492 29.1375 218.5 36.0417V213.125C218.492 220.029 215.745 226.648 210.863 231.53C205.981 236.412 199.362 239.158 192.458 239.167Z" fill="#666666"/>
<path d="M192.458 25.625H57.0417C51.2887 25.625 46.625 30.2887 46.625 36.0417V213.125C46.625 218.878 51.2887 223.542 57.0417 223.542H192.458C198.211 223.542 202.875 218.878 202.875 213.125V36.0417C202.875 30.2887 198.211 25.625 192.458 25.625Z" fill="black"/>
<path d="M124.75 114.167H114.333C111.457 114.167 109.125 116.499 109.125 119.375V161.042C109.125 163.918 111.457 166.25 114.333 166.25H124.75C127.626 166.25 129.958 163.918 129.958 161.042V119.375C129.958 116.499 127.626 114.167 124.75 114.167Z" fill="#00D468"/>
<path d="M182.042 114.167H171.625C168.748 114.167 166.417 116.499 166.417 119.375V161.042C166.417 163.918 168.748 166.25 171.625 166.25H182.042C184.918 166.25 187.25 163.918 187.25 161.042V119.375C187.25 116.499 184.918 114.167 182.042 114.167Z" fill="#FF4D3E"/>
<path d="M161.208 114.167H150.792C147.915 114.167 145.583 116.499 145.583 119.375V161.042C145.583 163.918 147.915 166.25 150.792 166.25H161.208C164.085 166.25 166.417 163.918 166.417 161.042V119.375C166.417 116.499 164.085 114.167 161.208 114.167Z" fill="#1AD877"/>
<path d="M140.375 124.583H135.167C132.29 124.583 129.958 126.915 129.958 129.791V161.041C129.958 163.918 132.29 166.25 135.167 166.25H140.375C143.252 166.25 145.583 163.918 145.583 161.041V129.791C145.583 126.915 143.252 124.583 140.375 124.583Z" fill="#FF73D2"/>
<path d="M197.667 124.583H192.458C189.582 124.583 187.25 126.915 187.25 129.791V161.041C187.25 163.918 189.582 166.25 192.458 166.25H197.667C200.543 166.25 202.875 163.918 202.875 161.041V129.791C202.875 126.915 200.543 124.583 197.667 124.583Z" fill="#66B8FC"/>
<path d="M103.917 124.583H98.7083C95.8319 124.583 93.5 126.915 93.5 129.791V161.041C93.5 163.918 95.8319 166.25 98.7083 166.25H103.917C106.793 166.25 109.125 163.918 109.125 161.041V129.791C109.125 126.915 106.793 124.583 103.917 124.583Z" fill="#99CFFD"/>
<path d="M187.25 124.583H166.417V129.791H187.25V124.583Z" fill="url(#paint0_linear_101_4726)"/>
<path d="M129.958 124.583H109.125V129.791H129.958V124.583Z" fill="url(#paint1_linear_101_4726)"/>
<path d="M109.125 135H93.5V140.208H109.125V135Z" fill="url(#paint2_linear_101_4726)"/>
<path d="M145.583 135H129.958V140.208H145.583V135Z" fill="url(#paint3_linear_101_4726)"/>
<path d="M62.25 41.25H51.8333C48.9569 41.25 46.625 43.5819 46.625 46.4583V88.125C46.625 91.0015 48.9569 93.3333 51.8333 93.3333H62.25C65.1265 93.3333 67.4583 91.0015 67.4583 88.125V46.4583C67.4583 43.5819 65.1265 41.25 62.25 41.25Z" fill="#00D468"/>
<path d="M119.542 41.25H109.125C106.248 41.25 103.917 43.5819 103.917 46.4583V88.125C103.917 91.0015 106.248 93.3333 109.125 93.3333H119.542C122.418 93.3333 124.75 91.0015 124.75 88.125V46.4583C124.75 43.5819 122.418 41.25 119.542 41.25Z" fill="#FF73D2"/>
<path d="M98.7084 41.25H88.2917C85.4152 41.25 83.0834 43.5819 83.0834 46.4583V88.125C83.0834 91.0015 85.4152 93.3333 88.2917 93.3333H98.7084C101.585 93.3333 103.917 91.0015 103.917 88.125V46.4583C103.917 43.5819 101.585 41.25 98.7084 41.25Z" fill="#FF4D3E"/>
<path d="M77.875 51.667H72.6667C69.7902 51.667 67.4584 53.9988 67.4584 56.8753V88.1253C67.4584 91.0018 69.7902 93.3337 72.6667 93.3337H77.875C80.7515 93.3337 83.0834 91.0018 83.0834 88.1253V56.8753C83.0834 53.9988 80.7515 51.667 77.875 51.667Z" fill="#66B8FC"/>
<path d="M135.167 51.667H129.958C127.082 51.667 124.75 53.9988 124.75 56.8753V88.1253C124.75 91.0018 127.082 93.3337 129.958 93.3337H135.167C138.043 93.3337 140.375 91.0018 140.375 88.1253V56.8753C140.375 53.9988 138.043 51.667 135.167 51.667Z" fill="#00D468"/>
<path d="M156 41.25H145.583C142.707 41.25 140.375 43.5819 140.375 46.4583V88.125C140.375 91.0015 142.707 93.3333 145.583 93.3333H156C158.876 93.3333 161.208 91.0015 161.208 88.125V46.4583C161.208 43.5819 158.876 41.25 156 41.25Z" fill="#FF4D3E"/>
<path d="M67.4583 51.667H46.625V56.8753H67.4583V51.667Z" fill="url(#paint4_linear_101_4726)"/>
<path d="M103.917 51.667H83.0834V56.8753H103.917V51.667Z" fill="url(#paint5_linear_101_4726)"/>
<path d="M161.208 51.667H140.375V56.8753H161.208V51.667Z" fill="url(#paint6_linear_101_4726)"/>
<path d="M83.0834 62.083H67.4584V67.2913H83.0834V62.083Z" fill="url(#paint7_linear_101_4726)"/>
<path d="M140.375 62.083H124.75V67.2913H140.375V62.083Z" fill="url(#paint8_linear_101_4726)"/>
<path d="M192.458 223.542H57.0417C54.279 223.542 51.6295 222.444 49.676 220.491C47.7225 218.537 46.625 215.888 46.625 213.125V166.25H202.875V213.125C202.875 215.888 201.778 218.537 199.824 220.491C197.871 222.444 195.221 223.542 192.458 223.542Z" fill="#333333"/>
<path d="M202.875 98.5417H46.625C45.2436 98.5417 43.9189 97.9929 42.9421 97.0162C41.9654 96.0394 41.4166 94.7147 41.4166 93.3333C41.4166 91.952 41.9654 90.6272 42.9421 89.6505C43.9189 88.6737 45.2436 88.125 46.625 88.125H202.875C204.256 88.125 205.581 88.6737 206.558 89.6505C207.535 90.6272 208.083 91.952 208.083 93.3333C208.083 94.7147 207.535 96.0394 206.558 97.0162C205.581 97.9929 204.256 98.5417 202.875 98.5417Z" fill="#CCCCCC"/>
<path d="M202.875 161.042H46.625C45.2436 161.042 43.9189 161.591 42.9421 162.567C41.9654 163.544 41.4166 164.869 41.4166 166.25C41.4166 167.632 41.9654 168.956 42.9421 169.933C43.9189 170.91 45.2436 171.459 46.625 171.459H119.542V228.75C119.542 230.132 120.09 231.456 121.067 232.433C122.044 233.41 123.369 233.959 124.75 233.959C126.131 233.959 127.456 233.41 128.433 232.433C129.41 231.456 129.958 230.132 129.958 228.75V171.459H202.875C204.256 171.459 205.581 170.91 206.558 169.933C207.535 168.956 208.083 167.632 208.083 166.25C208.083 164.869 207.535 163.544 206.558 162.567C205.581 161.591 204.256 161.042 202.875 161.042Z" fill="#CCCCCC"/>
<path d="M140.375 202.709C143.251 202.709 145.583 200.377 145.583 197.5C145.583 194.624 143.251 192.292 140.375 192.292C137.498 192.292 135.167 194.624 135.167 197.5C135.167 200.377 137.498 202.709 140.375 202.709Z" fill="#F2F2F2"/>
<path d="M109.125 202.709C112.001 202.709 114.333 200.377 114.333 197.5C114.333 194.624 112.001 192.292 109.125 192.292C106.248 192.292 103.917 194.624 103.917 197.5C103.917 200.377 106.248 202.709 109.125 202.709Z" fill="#F2F2F2"/>
<defs>
<linearGradient id="paint0_linear_101_4726" x1="166.417" y1="127.187" x2="187.25" y2="127.187" gradientUnits="userSpaceOnUse">
<stop stop-color="white"/>
<stop offset="1" stop-color="#F2EDED"/>
</linearGradient>
<linearGradient id="paint1_linear_101_4726" x1="109.125" y1="127.187" x2="129.958" y2="127.187" gradientUnits="userSpaceOnUse">
<stop stop-color="white"/>
<stop offset="1" stop-color="#EDF2F0"/>
</linearGradient>
<linearGradient id="paint2_linear_101_4726" x1="93.5" y1="137.604" x2="109.125" y2="137.604" gradientUnits="userSpaceOnUse">
<stop stop-color="white"/>
<stop offset="1" stop-color="#EDF1F2"/>
</linearGradient>
<linearGradient id="paint3_linear_101_4726" x1="129.958" y1="137.604" x2="145.583" y2="137.604" gradientUnits="userSpaceOnUse">
<stop stop-color="white"/>
<stop offset="1" stop-color="#F2EBE6"/>
</linearGradient>
<linearGradient id="paint4_linear_101_4726" x1="46.625" y1="54.2712" x2="67.4583" y2="54.2712" gradientUnits="userSpaceOnUse">
<stop stop-color="white"/>
<stop offset="1" stop-color="#EDF2F0"/>
</linearGradient>
<linearGradient id="paint5_linear_101_4726" x1="83.0834" y1="54.2712" x2="103.917" y2="54.2712" gradientUnits="userSpaceOnUse">
<stop stop-color="white"/>
<stop offset="1" stop-color="#F2EDED"/>
</linearGradient>
<linearGradient id="paint6_linear_101_4726" x1="140.375" y1="54.2712" x2="161.208" y2="54.2712" gradientUnits="userSpaceOnUse">
<stop stop-color="white"/>
<stop offset="1" stop-color="#F2EDED"/>
</linearGradient>
<linearGradient id="paint7_linear_101_4726" x1="67.4584" y1="64.6872" x2="83.0834" y2="64.6872" gradientUnits="userSpaceOnUse">
<stop stop-color="white"/>
<stop offset="1" stop-color="#EDF1F2"/>
</linearGradient>
<linearGradient id="paint8_linear_101_4726" x1="124.75" y1="64.6872" x2="140.375" y2="64.6872" gradientUnits="userSpaceOnUse">
<stop stop-color="white"/>
<stop offset="1" stop-color="#EDF2F0"/>
</linearGradient>
</defs>
</svg>
