<svg width="250" height="250" viewBox="0 0 250 250" fill="none" xmlns="http://www.w3.org/2000/svg">
<path d="M192.292 161.208H171.458C168.582 161.208 166.25 163.54 166.25 166.416V208.083C166.25 210.959 168.582 213.291 171.458 213.291H192.292C195.168 213.291 197.5 210.959 197.5 208.083V166.416C197.5 163.54 195.168 161.208 192.292 161.208Z" fill="#333333"/>
<path d="M229.969 125.729C231.996 123.008 233.408 119.878 234.107 116.558C234.806 113.237 234.776 109.804 234.018 106.496C233.26 103.188 231.793 100.084 229.718 97.3988C227.643 94.7134 225.01 92.5107 222 90.9429C223.289 87.7798 223.78 84.3484 223.43 80.9508C223.08 77.5532 221.901 74.2937 219.995 71.4593C218.089 68.6249 215.516 66.3025 212.501 64.6966C209.487 63.0907 206.124 62.2506 202.708 62.2502C202.49 62.2502 202.276 62.2502 202.057 62.2502C202.847 59.173 202.922 55.9561 202.278 52.8453C201.633 49.7345 200.286 46.8124 198.338 44.3023C196.391 41.7923 193.895 39.7608 191.042 38.3633C188.189 36.9658 185.055 36.2393 181.878 36.2393C178.701 36.2393 175.566 36.9658 172.713 38.3633C169.86 39.7608 167.365 41.7923 165.417 44.3023C163.47 46.8124 162.122 49.7345 161.478 52.8453C160.833 55.9561 160.909 59.173 161.698 62.2502C161.469 62.2502 161.245 62.2502 161.016 62.2502C157.598 62.2519 154.233 63.0944 151.218 64.7034C148.203 66.3125 145.63 68.6386 143.726 71.4767C141.822 74.3148 140.645 77.5778 140.3 80.978C139.954 84.3782 140.451 87.8111 141.745 90.9742C138.738 92.5436 136.108 94.747 134.035 97.4321C131.963 100.117 130.498 103.22 129.742 106.527C128.986 109.833 128.956 113.264 129.656 116.583C130.355 119.902 131.766 123.03 133.792 125.75C130.907 128.188 128.589 131.225 126.998 134.65C125.408 138.076 124.584 141.807 124.583 145.584C124.583 152.49 127.327 159.114 132.211 163.998C137.095 168.882 143.718 171.625 150.625 171.625H213.125C220.032 171.625 226.656 168.882 231.539 163.998C236.423 159.114 239.167 152.49 239.167 145.584C239.17 141.804 238.349 138.07 236.761 134.641C235.172 131.212 232.854 128.17 229.969 125.729Z" fill="#00D468"/>
<path d="M77.7084 161.208H56.8751C53.9986 161.208 51.6667 163.54 51.6667 166.416V208.083C51.6667 210.959 53.9986 213.291 56.8751 213.291H77.7084C80.5849 213.291 82.9167 210.959 82.9167 208.083V166.416C82.9167 163.54 80.5849 161.208 77.7084 161.208Z" fill="#333333"/>
<path d="M115.385 125.729C117.412 123.006 118.823 119.876 119.52 116.554C120.218 113.232 120.185 109.799 119.426 106.491C118.666 103.183 117.197 100.079 115.12 97.3946C113.043 94.7101 110.407 92.5089 107.396 90.9429C108.684 87.7814 109.175 84.3519 108.826 80.956C108.478 77.5601 107.3 74.3019 105.397 71.468C103.493 68.6341 100.923 66.3113 97.9109 64.704C94.8993 63.0966 91.5387 62.254 88.125 62.2502H87.4688C88.2583 59.173 88.3336 55.9561 87.689 52.8453C87.0444 49.7345 85.6969 46.8124 83.7496 44.3023C81.8022 41.7923 79.3066 39.7608 76.4537 38.3633C73.6007 36.9658 70.4659 36.2393 67.2891 36.2393C64.1122 36.2393 60.9774 36.9658 58.1245 38.3633C55.2715 39.7608 52.7759 41.7923 50.8286 44.3023C48.8812 46.8124 47.5337 49.7345 46.8891 52.8453C46.2445 55.9561 46.3198 59.173 47.1094 62.2502C46.8854 62.2502 46.6615 62.2502 46.4323 62.2502C43.0146 62.2519 39.6498 63.0944 36.6346 64.7034C33.6193 66.3125 31.0463 68.6386 29.1422 71.4767C27.2381 74.3148 26.0614 77.5778 25.716 80.978C25.3706 84.3782 25.867 87.8111 27.1615 90.9742C24.1542 92.5431 21.5233 94.7462 19.4504 97.4311C17.3776 100.116 15.9122 103.219 15.1556 106.525C14.3989 109.832 14.3689 113.263 15.0677 116.582C15.7666 119.902 17.1775 123.03 19.2031 125.75C16.3202 128.189 14.0033 131.227 12.4139 134.652C10.8246 138.077 10.0008 141.808 10 145.584C10 152.49 12.7437 159.114 17.6274 163.998C22.5112 168.882 29.135 171.625 36.0417 171.625H98.5417C101.962 171.625 105.348 170.952 108.507 169.643C111.667 168.334 114.538 166.416 116.956 163.998C119.374 161.58 121.292 158.709 122.601 155.549C123.91 152.39 124.583 149.003 124.583 145.584C124.586 141.804 123.764 138.07 122.176 134.641C120.587 131.212 118.27 128.171 115.385 125.729Z" fill="#00D468"/>
<path d="M135 156H114.167C111.29 156 108.958 158.332 108.958 161.208V213.292C108.958 216.168 111.29 218.5 114.167 218.5H135C137.877 218.5 140.208 216.168 140.208 213.292V161.208C140.208 158.332 137.877 156 135 156Z" fill="#333333"/>
<path d="M179.302 124.953C182.45 118.888 183.329 111.898 181.78 105.242C180.231 98.5869 176.357 92.7031 170.854 88.651C171.593 85.2798 171.654 81.7955 171.034 78.4004C170.414 75.0054 169.126 71.7675 167.243 68.8748C165.361 65.9821 162.923 63.4924 160.07 61.5504C157.217 59.6084 154.006 58.2528 150.625 57.5625C150.625 57.3906 150.625 57.224 150.625 57.0417C150.625 50.135 147.881 43.5112 142.998 38.6274C138.114 33.7437 131.49 31 124.583 31C117.677 31 111.053 33.7437 106.169 38.6274C101.285 43.5112 98.5417 50.135 98.5417 57.0417V57.5625C92.6632 58.7704 87.381 61.9685 83.5859 66.6175C79.7908 71.2665 77.7149 77.082 77.7083 83.0833C77.7062 84.968 77.9105 86.8473 78.3177 88.6875C72.8226 92.7419 68.9548 98.6242 67.4099 105.276C65.8651 111.928 66.7448 118.913 69.8906 124.974C65.9316 129.486 63.3561 135.044 62.4721 140.981C61.588 146.919 62.4329 152.986 64.9056 158.456C67.3784 163.926 71.3743 168.568 76.4156 171.827C81.457 175.086 87.3303 176.824 93.3333 176.833H155.833C161.843 176.833 167.724 175.099 172.773 171.841C177.822 168.583 181.825 163.938 184.302 158.463C186.779 152.988 187.624 146.915 186.737 140.972C185.851 135.028 183.269 129.467 179.302 124.953Z" fill="#66E5A4"/>
</svg>
