<svg width="250" height="250" viewBox="0 0 250 250" fill="none" xmlns="http://www.w3.org/2000/svg">
<g clip-path="url(#clip0_101_4678)">
<path d="M184.194 177.417C184.194 175.499 182.64 173.944 180.722 173.944C178.805 173.944 177.25 175.499 177.25 177.417V236.444C177.25 238.362 178.805 239.917 180.722 239.917C182.64 239.917 184.194 238.362 184.194 236.444V177.417Z" fill="#CCCCCC"/>
<path d="M177.715 175.68L169.035 190.725C168.73 191.253 168.57 191.852 168.57 192.462C168.57 193.071 168.73 193.67 169.035 194.198C169.339 194.725 169.778 195.164 170.306 195.469C170.833 195.773 171.432 195.934 172.042 195.934H189.403C190.012 195.934 190.611 195.773 191.139 195.469C191.667 195.164 192.105 194.725 192.41 194.198C192.715 193.67 192.875 193.071 192.875 192.462C192.875 191.852 192.715 191.253 192.41 190.725L183.729 175.68C183.424 175.152 182.986 174.714 182.458 174.409C181.93 174.105 181.332 173.944 180.722 173.944C180.113 173.944 179.514 174.105 178.986 174.409C178.458 174.714 178.02 175.152 177.715 175.68Z" fill="#FF887F"/>
<path d="M229.333 114.917C229.333 102.024 224.212 89.6599 215.095 80.5435C205.979 71.4272 193.615 66.3057 180.722 66.3057C167.83 66.3057 155.465 71.4272 146.349 80.5435C137.233 89.6599 132.111 102.024 132.111 114.917C132.111 141.764 153.875 180.889 180.722 180.889C207.569 180.889 229.333 141.764 229.333 114.917Z" fill="#FF4D3E"/>
<path d="M73.0834 177.417C73.0834 175.499 71.5288 173.944 69.6111 173.944C67.6935 173.944 66.1389 175.499 66.1389 177.417V236.444C66.1389 238.362 67.6935 239.917 69.6111 239.917C71.5288 239.917 73.0834 238.362 73.0834 236.444V177.417Z" fill="#CCCCCC"/>
<path d="M66.6042 175.68L57.9237 190.725C57.6189 191.253 57.4585 191.852 57.4585 192.462C57.4585 193.071 57.6189 193.67 57.9237 194.198C58.2284 194.725 58.6667 195.164 59.1946 195.469C59.7224 195.773 60.3211 195.934 60.9306 195.934H78.2917C78.9012 195.934 79.5 195.773 80.0278 195.469C80.5557 195.164 80.994 194.725 81.2987 194.198C81.6035 193.67 81.7639 193.071 81.7639 192.462C81.7639 191.852 81.6034 191.253 81.2987 190.725L72.6181 175.68C72.3134 175.152 71.875 174.714 71.3472 174.409C70.8194 174.105 70.2207 173.944 69.6112 173.944C69.0017 173.944 68.403 174.105 67.8752 174.409C67.3473 174.714 66.909 175.152 66.6042 175.68Z" fill="#FFBC43"/>
<path d="M118.222 114.917C118.222 102.024 113.101 89.6599 103.984 80.5435C94.868 71.4272 82.5036 66.3057 69.6111 66.3057C56.7186 66.3057 44.3542 71.4272 35.2379 80.5435C26.1215 89.6599 21 102.024 21 114.917C21 141.764 42.7639 180.889 69.6111 180.889C96.4583 180.889 118.222 141.764 118.222 114.917Z" fill="#FFAB14"/>
<path opacity="0.5" d="M39.1354 107.504C38.2791 107.503 37.4362 107.292 36.6812 106.888C35.9262 106.484 35.2824 105.9 34.8069 105.188C34.3314 104.476 34.0388 103.657 33.9549 102.805C33.8711 101.953 33.9987 101.094 34.3264 100.302C36.2321 95.6606 39.0402 91.4431 42.5877 87.8943C46.1353 84.3456 50.3518 81.5361 54.993 79.6288C55.625 79.3671 56.3024 79.2324 56.9864 79.2324C57.6704 79.2325 58.3478 79.3672 58.9797 79.629C59.6117 79.8909 60.1859 80.2746 60.6695 80.7583C61.1532 81.242 61.5368 81.8163 61.7986 82.4482C62.0603 83.0802 62.195 83.7576 62.195 84.4416C62.1949 85.1257 62.0601 85.803 61.7983 86.4349C61.5365 87.0669 61.1528 87.6411 60.6691 88.1248C60.1854 88.6084 59.6111 88.9921 58.9791 89.2538C55.6045 90.6413 52.5385 92.6842 49.9584 95.2643C47.3783 97.8444 45.3354 100.91 43.9479 104.285C43.5542 105.238 42.8868 106.052 42.0301 106.625C41.1734 107.198 40.166 107.504 39.1354 107.504Z" fill="#F2F2F2"/>
<path d="M128.639 153.111C128.639 151.193 127.084 149.639 125.167 149.639C123.249 149.639 121.694 151.193 121.694 153.111V246.861C121.694 248.779 123.249 250.333 125.167 250.333C127.084 250.333 128.639 248.779 128.639 246.861V153.111Z" fill="#CCCCCC"/>
<path d="M122.16 168.736L112.135 186.097C111.831 186.625 111.67 187.224 111.67 187.833C111.67 188.443 111.831 189.041 112.135 189.569C112.44 190.097 112.878 190.535 113.406 190.84C113.934 191.145 114.533 191.305 115.142 191.305H135.191C135.8 191.305 136.399 191.145 136.927 190.84C137.455 190.535 137.893 190.097 138.198 189.569C138.503 189.041 138.663 188.443 138.663 187.833C138.663 187.224 138.503 186.625 138.198 186.097L128.174 168.736C127.869 168.208 127.43 167.77 126.903 167.465C126.375 167.16 125.776 167 125.167 167C124.557 167 123.958 167.16 123.431 167.465C122.903 167.77 122.464 168.208 122.16 168.736Z" fill="#99CFFD"/>
<path d="M180.722 97.5556C180.722 82.8213 174.869 68.6905 164.45 58.2718C154.032 47.8532 139.901 42 125.167 42C110.432 42 96.3016 47.8532 85.8829 58.2718C75.4642 68.6905 69.6111 82.8213 69.6111 97.5556C69.6111 128.24 94.4826 177.417 125.167 177.417C155.851 177.417 180.722 128.24 180.722 97.5556Z" fill="#33A0FB"/>
<path opacity="0.5" d="M88.2709 87.4865C87.4142 87.4862 86.5707 87.2747 85.8153 86.8705C85.06 86.4664 84.4159 85.8821 83.9403 85.1696C83.4647 84.457 83.1722 83.6382 83.0887 82.7855C83.0053 81.9329 83.1334 81.0729 83.4618 80.2816C85.7163 74.7967 89.0364 69.8135 93.23 65.6206C97.4235 61.4276 102.407 58.1082 107.892 55.8545C109.164 55.3452 110.586 55.3578 111.849 55.8895C113.112 56.4212 114.114 57.4291 114.639 58.6948C115.164 59.9606 115.169 61.3822 114.653 62.6515C114.137 63.9209 113.141 64.9357 111.882 65.476C107.662 67.2102 103.829 69.764 100.602 72.9895C97.3763 76.2151 94.8218 80.0484 93.0868 84.2677C92.6929 85.2207 92.0249 86.0353 91.1676 86.6084C90.3102 87.1814 89.3021 87.487 88.2709 87.4865Z" fill="#F2F2F2"/>
</g>
<defs>
<clipPath id="clip0_101_4678">
<rect width="250" height="250" fill="white"/>
</clipPath>
</defs>
</svg>
