<svg width="250" height="250" viewBox="0 0 250 250" fill="none" xmlns="http://www.w3.org/2000/svg">
<path d="M249.979 200.666V211.083C249.979 213.947 247.635 216.291 244.771 216.291C241.906 216.291 239.562 213.947 239.562 211.083V185.041H249.406L249.979 200.666Z" fill="black"/>
<path d="M0.572917 185.041H10.4167V200.822V211.083C10.4167 213.947 8.07292 216.291 5.20833 216.291C2.34375 216.291 0 213.947 0 211.083V200.666L0.572917 185.041Z" fill="black"/>
<path d="M33.6302 216.292L32.0885 213.953C29.4062 209.891 25.7865 206.615 21.3177 204.214C17.026 201.896 12.1563 200.667 7.21875 200.667H0L0.135417 195.328C3.46354 61.9896 69.8594 34 124.979 34C180.099 34 246.495 61.9896 249.823 195.328L249.958 200.667H242.74C232.729 200.667 223.422 205.641 217.854 213.979L216.307 216.292H33.6302Z" fill="#1AD877"/>
<path d="M218.729 211.083C218.729 213.948 216.385 216.292 213.521 216.292H36.4375C33.5729 216.292 31.2291 213.948 31.2291 211.083C31.2291 100.198 66.2812 34 124.979 34C183.677 34 218.729 100.198 218.729 211.083Z" fill="#F2F2F2"/>
<path d="M187.479 216.291H62.4791C62.4791 129.833 81.75 91.291 124.979 91.291C168.208 91.291 187.479 129.833 187.479 216.291Z" fill="#1AD877"/>
<path opacity="0.5" d="M130.187 91.5H119.771V216.292H130.187V91.5Z" fill="#333333"/>
</svg>
