<svg width="250" height="250" viewBox="0 0 250 250" fill="none" xmlns="http://www.w3.org/2000/svg">
<path d="M128.639 50.3027H121.694C119.777 50.3027 118.222 51.8573 118.222 53.775V88.4972C118.222 90.4148 119.777 91.9694 121.694 91.9694H128.639C130.556 91.9694 132.111 90.4148 132.111 88.4972V53.775C132.111 51.8573 130.556 50.3027 128.639 50.3027Z" fill="#FF3929"/>
<path d="M166.833 50.3027H159.889C157.971 50.3027 156.417 51.8573 156.417 53.775V88.4972C156.417 90.4148 157.971 91.9694 159.889 91.9694H166.833C168.751 91.9694 170.306 90.4148 170.306 88.4972V53.775C170.306 51.8573 168.751 50.3027 166.833 50.3027Z" fill="#FF3929"/>
<path d="M90.4445 50.3027H83.5001C81.5824 50.3027 80.0278 51.8573 80.0278 53.775V88.4972C80.0278 90.4148 81.5824 91.9694 83.5001 91.9694H90.4445C92.3622 91.9694 93.9167 90.4148 93.9167 88.4972V53.775C93.9167 51.8573 92.3622 50.3027 90.4445 50.3027Z" fill="#FF3929"/>
<path d="M93.9167 41.1877C92.7726 36.2303 90.9622 31.4507 88.5348 26.9794C88.3926 26.6858 88.1707 26.4383 87.8943 26.2651C87.618 26.0919 87.2984 26 86.9723 26C86.6461 26 86.3266 26.0919 86.0502 26.2651C85.7739 26.4383 85.5519 26.6858 85.4098 26.9794C82.9824 31.4507 81.1719 36.2303 80.0278 41.1877C80.0278 43.0295 80.7595 44.7958 82.0618 46.0982C83.3642 47.4005 85.1305 48.1321 86.9723 48.1321C88.8141 48.1321 90.5804 47.4005 91.8827 46.0982C93.1851 44.7958 93.9167 43.0295 93.9167 41.1877Z" fill="#FFAB14"/>
<path d="M132.111 41.1877C130.967 36.2303 129.157 31.4507 126.729 26.9794C126.587 26.6858 126.365 26.4383 126.089 26.2651C125.812 26.0919 125.493 26 125.167 26C124.84 26 124.521 26.0919 124.245 26.2651C123.968 26.4383 123.746 26.6858 123.604 26.9794C121.177 31.4507 119.366 36.2303 118.222 41.1877C118.222 43.0295 118.954 44.7958 120.256 46.0982C121.558 47.4005 123.325 48.1321 125.167 48.1321C127.008 48.1321 128.775 47.4005 130.077 46.0982C131.379 44.7958 132.111 43.0295 132.111 41.1877Z" fill="#FFAB14"/>
<path d="M170.306 41.1877C169.162 36.2303 167.351 31.4507 164.924 26.9794C164.782 26.6858 164.56 26.4383 164.283 26.2651C164.007 26.0919 163.687 26 163.361 26C163.035 26 162.716 26.0919 162.439 26.2651C162.163 26.4383 161.941 26.6858 161.799 26.9794C159.371 31.4507 157.561 36.2303 156.417 41.1877C156.417 43.0295 157.148 44.7958 158.451 46.0982C159.753 47.4005 161.519 48.1321 163.361 48.1321C165.203 48.1321 166.969 47.4005 168.272 46.0982C169.574 44.7958 170.306 43.0295 170.306 41.1877Z" fill="#FFAB14"/>
<path d="M180.722 74.6074H69.6111C61.9409 74.6074 55.7222 80.8262 55.7222 85.0241V168.357C55.7222 179.5 61.9409 185.719 69.6111 185.719H180.722C188.392 185.719 194.611 179.5 194.611 168.357V85.0241C194.611 80.8262 188.392 74.6074 180.722 74.6074Z" fill="#FFBC43"/>
<path d="M180.722 74.6074H69.6111C65.9275 74.6074 62.3948 76.0707 59.7901 78.6754C57.1855 81.2801 55.7222 84.8127 55.7222 88.4963V88.7012C57.6567 89.253 59.4191 90.2877 60.8437 91.7081L67.9618 98.8262C69.0903 99.9548 70.43 100.85 71.9046 101.461C73.3791 102.072 74.9595 102.386 76.5555 102.386C78.1515 102.386 79.7319 102.072 81.2065 101.461C82.681 100.85 84.0208 99.9548 85.1493 98.8262L92.2673 91.7081C93.3958 90.5795 94.7356 89.6842 96.2101 89.0734C97.6846 88.4626 99.265 88.1482 100.861 88.1482C102.457 88.1482 104.037 88.4626 105.512 89.0734C106.987 89.6842 108.326 90.5795 109.455 91.7081L116.573 98.8262C117.701 99.9548 119.041 100.85 120.516 101.461C121.99 102.072 123.571 102.386 125.167 102.386C126.763 102.386 128.343 102.072 129.818 101.461C131.292 100.85 132.632 99.9548 133.76 98.8262L140.878 91.7081C142.007 90.5795 143.347 89.6842 144.821 89.0734C146.296 88.4626 147.876 88.1482 149.472 88.1482C151.068 88.1482 152.649 88.4626 154.123 89.0734C155.598 89.6842 156.937 90.5795 158.066 91.7081L165.184 98.8262C166.312 99.9548 167.652 100.85 169.127 101.461C170.601 102.072 172.182 102.386 173.778 102.386C175.374 102.386 176.954 102.072 178.429 101.461C179.903 100.85 181.243 99.9548 182.371 98.8262L189.49 91.7081C190.914 90.2877 192.677 89.253 194.611 88.7012V88.4963C194.611 84.8127 193.148 81.2801 190.543 78.6754C187.938 76.0707 184.406 74.6074 180.722 74.6074Z" fill="#8948FF"/>
<path d="M198.083 126.691H52.25C48.5664 126.691 45.0337 128.155 42.429 130.759C39.8244 133.364 38.3611 136.897 38.3611 140.58V210.025H211.972V140.58C211.972 136.897 210.509 133.364 207.904 130.759C205.3 128.155 201.767 126.691 198.083 126.691Z" fill="#FFBC43"/>
<path opacity="0.5" d="M211.972 175.303H38.3611V185.719H211.972V175.303Z" fill="#FFDDA1"/>
<path d="M198.083 126.691H52.25C48.5664 126.691 45.0337 128.155 42.429 130.759C39.8244 133.364 38.3611 136.897 38.3611 140.58V156.032L43.6562 150.737C44.7847 149.608 46.1245 148.713 47.599 148.102C49.0735 147.491 50.6539 147.177 52.25 147.177C53.846 147.177 55.4264 147.491 56.9009 148.102C58.3754 148.713 59.7152 149.608 60.8437 150.737L67.9618 157.855C69.0903 158.983 70.4301 159.878 71.9046 160.489C73.3791 161.1 74.9595 161.415 76.5555 161.415C78.1516 161.415 79.732 161.1 81.2065 160.489C82.681 159.878 84.0208 158.983 85.1493 157.855L92.2673 150.737C93.3958 149.608 94.7356 148.713 96.2101 148.102C97.6847 147.491 99.2651 147.177 100.861 147.177C102.457 147.177 104.038 147.491 105.512 148.102C106.987 148.713 108.326 149.608 109.455 150.737L116.573 157.855C117.701 158.983 119.041 159.878 120.516 160.489C121.99 161.1 123.571 161.415 125.167 161.415C126.763 161.415 128.343 161.1 129.818 160.489C131.292 159.878 132.632 158.983 133.76 157.855L140.878 150.737C142.007 149.608 143.347 148.713 144.821 148.102C146.296 147.491 147.876 147.177 149.472 147.177C151.068 147.177 152.649 147.491 154.123 148.102C155.598 148.713 156.937 149.608 158.066 150.737L165.184 157.855C166.313 158.983 167.652 159.878 169.127 160.489C170.601 161.1 172.182 161.415 173.778 161.415C175.374 161.415 176.954 161.1 178.429 160.489C179.903 159.878 181.243 158.983 182.371 157.855L189.49 150.737C190.618 149.608 191.958 148.713 193.432 148.102C194.907 147.491 196.487 147.177 198.083 147.177C199.679 147.177 201.26 147.491 202.734 148.102C204.209 148.713 205.549 149.608 206.677 150.737L211.972 156.032V140.58C211.972 136.897 210.509 133.364 207.904 130.759C205.3 128.155 201.767 126.691 198.083 126.691Z" fill="#8948FF"/>
<path d="M215.444 223.913H34.8889C31.2053 223.913 27.6726 222.45 25.068 219.845C22.4633 217.241 21 213.708 21 210.025C21 208.183 21.7316 206.416 23.034 205.114C24.3363 203.812 26.1027 203.08 27.9444 203.08H222.389C224.231 203.08 225.997 203.812 227.299 205.114C228.602 206.416 229.333 208.183 229.333 210.025C229.333 213.708 227.87 217.241 225.265 219.845C222.661 222.45 219.128 223.913 215.444 223.913Z" fill="#FF3929"/>
</svg>
