<svg width="250" height="250" viewBox="0 0 250 250" fill="none" xmlns="http://www.w3.org/2000/svg">
<path d="M207.943 107.984H41.2759C39.8946 107.985 38.5699 108.533 37.5932 109.51C36.6166 110.487 36.0679 111.812 36.0679 113.193V188.99C36.068 190.005 36.3645 190.998 36.9211 191.847C37.4776 192.695 38.2699 193.363 39.2007 193.768L122.534 229.949C123.189 230.234 123.895 230.38 124.609 230.38C125.323 230.38 126.03 230.234 126.685 229.949L210.018 193.768C210.949 193.363 211.741 192.695 212.298 191.847C212.854 190.998 213.151 190.005 213.151 188.99V113.193C213.151 111.812 212.602 110.487 211.626 109.51C210.649 108.533 209.324 107.985 207.943 107.984Z" fill="#FFAB14"/>
<path d="M207.943 107.984H124.609V230.38C125.323 230.38 126.03 230.234 126.685 229.949L210.018 193.768C210.949 193.363 211.741 192.695 212.298 191.847C212.854 190.998 213.151 190.005 213.151 188.99V113.193C213.151 111.812 212.602 110.487 211.626 109.51C210.649 108.533 209.324 107.985 207.943 107.984Z" fill="#FFBC43"/>
<path d="M124.609 125.666L116.797 128.818L41.2759 94.9639V84.5474L116.797 50.6934L124.609 53.2974L132.422 50.6934L207.943 84.5474V94.9639L132.422 128.818L124.609 125.666Z" fill="#FFBC43"/>
<path d="M132.422 128.818L207.943 94.9639V84.5474L132.422 50.6934L124.609 53.2974V125.666L132.422 128.818Z" fill="#FFAB14"/>
<path d="M124.609 125.665L151.607 158.347C152.327 159.218 153.31 159.831 154.408 160.094C155.507 160.358 156.661 160.257 157.697 159.807L231.086 127.941C231.826 127.62 232.482 127.13 233.001 126.512C233.52 125.894 233.888 125.163 234.076 124.378C234.264 123.593 234.267 122.775 234.085 121.989C233.903 121.202 233.541 120.469 233.027 119.847L207.942 89.4805L124.609 125.665Z" fill="#FFCD72"/>
<path d="M124.609 125.666L97.6113 158.347C96.8919 159.218 95.9089 159.831 94.8104 160.095C93.712 160.358 92.5576 160.257 91.5215 159.808L18.1328 127.942C17.3928 127.62 16.7375 127.131 16.2188 126.513C15.7001 125.895 15.3321 125.165 15.1438 124.38C14.9555 123.595 14.9521 122.778 15.1338 121.991C15.3155 121.205 15.6774 120.472 16.1909 119.85L41.2759 89.4834L124.609 125.666Z" fill="#FFCD72"/>
<path d="M41.2759 89.4807L16.2109 59.403C15.693 58.7814 15.3269 58.0476 15.1419 57.2599C14.9569 56.4721 14.9579 55.6521 15.145 54.8649C15.332 54.0777 15.6999 53.3448 16.2194 52.7245C16.739 52.1042 17.3959 51.6134 18.1382 51.2912L91.5146 19.4308C92.5473 18.9825 93.6975 18.8808 94.7929 19.1411C95.8882 19.4014 96.8697 20.0097 97.5903 20.8747L124.609 53.2966L41.2759 89.4807Z" fill="#FFCD72"/>
<path d="M151.567 20.9484C152.288 20.0835 153.269 19.4755 154.364 19.2153C155.459 18.9551 156.609 19.0567 157.642 19.505L231.019 51.3654C231.761 51.6877 232.418 52.1785 232.938 52.7988C233.457 53.4191 233.825 54.152 234.012 54.9392C234.199 55.7265 234.2 56.5465 234.015 57.3342C233.83 58.1218 233.464 58.8556 232.946 59.4772L207.943 89.4811L124.609 53.297L151.567 20.9484Z" fill="#FFCD72"/>
</svg>
