<svg width="250" height="250" viewBox="0 0 250 250" fill="none" xmlns="http://www.w3.org/2000/svg">
<g clip-path="url(#clip0_101_4553)">
<path d="M176.667 36.625H36.0417C21.6593 36.625 10 48.2843 10 62.6667V198.083C10 212.466 21.6593 224.125 36.0417 224.125H176.667C191.049 224.125 202.708 212.466 202.708 198.083V62.6667C202.708 48.2843 191.049 36.625 176.667 36.625Z" fill="#F2F2F2"/>
<path d="M176.667 36.625H36.0417C29.135 36.625 22.5112 39.3687 17.6274 44.2524C12.7437 49.1362 10 55.76 10 62.6667V88.7083H202.708V62.6667C202.708 55.76 199.965 49.1362 195.081 44.2524C190.197 39.3687 183.573 36.625 176.667 36.625Z" fill="#0088FA"/>
<path d="M62.0833 109.541H51.6667C45.9137 109.541 41.25 114.205 41.25 119.958V130.374C41.25 136.127 45.9137 140.791 51.6667 140.791H62.0833C67.8363 140.791 72.5 136.127 72.5 130.374V119.958C72.5 114.205 67.8363 109.541 62.0833 109.541Z" fill="#CCCCCC"/>
<path d="M108.958 109.541H98.5417C92.7887 109.541 88.125 114.205 88.125 119.958V130.374C88.125 136.127 92.7887 140.791 98.5417 140.791H108.958C114.711 140.791 119.375 136.127 119.375 130.374V119.958C119.375 114.205 114.711 109.541 108.958 109.541Z" fill="#CCCCCC"/>
<path d="M155.833 109.541H145.417C139.664 109.541 135 114.205 135 119.958V130.374C135 136.127 139.664 140.791 145.417 140.791H155.833C161.586 140.791 166.25 136.127 166.25 130.374V119.958C166.25 114.205 161.586 109.541 155.833 109.541Z" fill="#CCCCCC"/>
<path d="M62.0833 161.625H51.6667C45.9137 161.625 41.25 166.289 41.25 172.042V182.458C41.25 188.211 45.9137 192.875 51.6667 192.875H62.0833C67.8363 192.875 72.5 188.211 72.5 182.458V172.042C72.5 166.289 67.8363 161.625 62.0833 161.625Z" fill="#CCCCCC"/>
<path d="M108.958 161.625H98.5417C92.7887 161.625 88.125 166.289 88.125 172.042V182.458C88.125 188.211 92.7887 192.875 98.5417 192.875H108.958C114.711 192.875 119.375 188.211 119.375 182.458V172.042C119.375 166.289 114.711 161.625 108.958 161.625Z" fill="#CCCCCC"/>
<path d="M181.875 250.166C213.516 250.166 239.167 224.516 239.167 192.875C239.167 161.233 213.516 135.583 181.875 135.583C150.234 135.583 124.583 161.233 124.583 192.875C124.583 224.516 150.234 250.166 181.875 250.166Z" fill="#33A0FB"/>
<path d="M181.875 239.75C207.763 239.75 228.75 218.763 228.75 192.875C228.75 166.987 207.763 146 181.875 146C155.987 146 135 166.987 135 192.875C135 218.763 155.987 239.75 181.875 239.75Z" fill="#F2F2F2"/>
<path d="M72.5 34.0208C72.5 26.8296 66.6704 21 59.4792 21C52.288 21 46.4584 26.8296 46.4584 34.0208V49.6458C46.4584 56.837 52.288 62.6667 59.4792 62.6667C66.6704 62.6667 72.5 56.837 72.5 49.6458V34.0208Z" fill="#333333"/>
<path d="M166.25 34.0208C166.25 26.8296 160.42 21 153.229 21C146.038 21 140.208 26.8296 140.208 34.0208V49.6458C140.208 56.837 146.038 62.6667 153.229 62.6667C160.42 62.6667 166.25 56.837 166.25 49.6458V34.0208Z" fill="#333333"/>
<path d="M192.292 208.5C190.911 208.5 189.586 207.951 188.609 206.974L178.193 196.557C177.216 195.581 176.667 194.256 176.667 192.875V166.833C176.667 165.452 177.215 164.127 178.192 163.15C179.169 162.174 180.494 161.625 181.875 161.625C183.256 161.625 184.581 162.174 185.558 163.15C186.535 164.127 187.083 165.452 187.083 166.833V190.719L195.974 199.609C196.702 200.338 197.198 201.266 197.399 202.276C197.6 203.286 197.497 204.333 197.103 205.285C196.708 206.236 196.041 207.05 195.185 207.622C194.328 208.194 193.322 208.5 192.292 208.5Z" fill="#0088FA"/>
</g>
<defs>
<clipPath id="clip0_101_4553">
<rect width="250" height="250" fill="white"/>
</clipPath>
</defs>
</svg>
