<svg width="250" height="250" viewBox="0 0 250 250" fill="none" xmlns="http://www.w3.org/2000/svg">
<path d="M62.0834 80.8747V60.0413C62.0834 57.1663 59.7501 54.833 56.8751 54.833H41.2501C38.3751 54.833 36.0417 57.1663 36.0417 60.0413V80.8747H62.0834Z" fill="#999999"/>
<path d="M218.333 65.25H182.24C178.755 65.25 175.505 63.5104 173.573 60.6094L162.016 43.276C158.151 37.4792 151.646 34 144.682 34H104.479C97.5156 34 91.0104 37.4792 87.1458 43.276L75.5885 60.6094C73.6563 63.5052 70.4062 65.25 66.9219 65.25H30.8333C19.3281 65.25 10 74.5781 10 86.0833V195.458C10 206.964 19.3281 216.292 30.8333 216.292H218.333C229.839 216.292 239.167 206.964 239.167 195.458V86.0833C239.167 74.5781 229.839 65.25 218.333 65.25Z" fill="#333333"/>
<path d="M124.583 195.459C157.663 195.459 184.479 168.642 184.479 135.563C184.479 102.483 157.663 75.667 124.583 75.667C91.5038 75.667 64.6875 102.483 64.6875 135.563C64.6875 168.642 91.5038 195.459 124.583 195.459Z" fill="#CCCCCC"/>
<path d="M124.583 174.625C146.157 174.625 163.646 157.136 163.646 135.562C163.646 113.989 146.157 96.5 124.583 96.5C103.01 96.5 85.521 113.989 85.521 135.562C85.521 157.136 103.01 174.625 124.583 174.625Z" fill="#F2F2F2"/>
<path opacity="0.35" d="M124.583 148.584C117.401 148.584 111.563 142.74 111.563 135.563C111.563 132.688 109.235 130.354 106.354 130.354C103.474 130.354 101.146 132.688 101.146 135.563C101.146 148.485 111.662 159 124.583 159C127.464 159 129.792 156.667 129.792 153.792C129.792 150.917 127.464 148.584 124.583 148.584Z" fill="#CCCCCC"/>
</svg>
