<svg width="250" height="250" viewBox="0 0 250 250" fill="none" xmlns="http://www.w3.org/2000/svg">
<g clip-path="url(#clip0_35_470)">
<mask id="mask0_35_470" style="mask-type:luminance" maskUnits="userSpaceOnUse" x="0" y="0" width="250" height="250">
<path d="M250 0H0V250H250V0Z" fill="white"/>
</mask>
<g mask="url(#mask0_35_470)">
<path d="M250 0H0V250H250V0Z" fill="white"/>
<mask id="mask1_35_470" style="mask-type:luminance" maskUnits="userSpaceOnUse" x="22" y="29" width="206" height="192">
<path d="M227.333 29.667H22.6666V220.334H227.333V29.667Z" fill="white"/>
</mask>
<g mask="url(#mask1_35_470)">
<path d="M127.436 218.312C126.441 218.312 125.436 218.295 124.45 218.265L124.472 217.549C125.889 217.592 127.334 217.605 128.757 217.585L128.767 218.302C128.324 218.309 127.881 218.312 127.436 218.312ZM133.082 218.145L133.04 217.429C134.459 217.345 135.896 217.227 137.311 217.08L137.386 217.792C135.96 217.942 134.512 218.06 133.082 218.145ZM120.138 218.034C118.708 217.924 117.262 217.78 115.841 217.605L115.929 216.894C117.339 217.067 118.773 217.21 120.193 217.319L120.138 218.034ZM141.669 217.245L141.561 216.535C142.971 216.322 144.391 216.074 145.782 215.797L145.922 216.5C144.52 216.779 143.089 217.029 141.669 217.245ZM111.569 216.982C110.156 216.742 108.729 216.467 107.329 216.164L107.481 215.462C108.87 215.764 110.286 216.037 111.689 216.275L111.569 216.982ZM150.137 215.562L149.964 214.865C151.348 214.524 152.739 214.145 154.1 213.742L154.304 214.429C152.933 214.835 151.531 215.217 150.137 215.562H150.137ZM103.132 215.15C101.745 214.782 100.35 214.375 98.9851 213.944L99.2018 213.26C100.557 213.689 101.941 214.09 103.316 214.457L103.132 215.15ZM158.415 213.105L158.18 212.429C159.522 211.962 160.873 211.457 162.194 210.927L162.461 211.594C161.13 212.127 159.769 212.635 158.416 213.105H158.415ZM94.8889 212.544C93.5424 212.049 92.1878 211.515 90.8626 210.957L91.1409 210.295C92.4559 210.849 93.8002 211.379 95.1364 211.87L94.8889 212.544ZM166.422 209.902L166.125 209.249C167.414 208.662 168.711 208.037 169.977 207.389L170.304 208.029C169.027 208.68 167.722 209.31 166.422 209.902ZM86.9148 209.185C85.6206 208.569 84.3214 207.914 83.0541 207.235L83.3919 206.604C84.6499 207.275 85.9389 207.927 87.2233 208.539L86.9148 209.185ZM174.096 205.979L173.741 205.355C174.977 204.65 176.212 203.909 177.409 203.15L177.792 203.757C176.586 204.52 175.342 205.267 174.096 205.979ZM79.2881 205.11C78.0571 204.379 76.8244 203.607 75.6244 202.815L76.0191 202.217C77.2098 203.002 78.4331 203.769 79.6547 204.495L79.2881 205.11ZM181.383 201.367L180.973 200.779C182.137 199.965 183.3 199.114 184.427 198.247L184.863 198.815C183.728 199.689 182.557 200.547 181.383 201.367ZM72.0699 200.357C70.9123 199.515 69.7559 198.635 68.6326 197.739L69.0802 197.179C70.1949 198.069 71.3426 198.942 72.4912 199.777L72.0699 200.357ZM188.225 196.109L187.762 195.56C188.848 194.644 189.928 193.69 190.973 192.724L191.46 193.25C190.407 194.224 189.318 195.185 188.225 196.109ZM65.3191 194.967C64.2409 194.022 63.1691 193.04 62.1357 192.047L62.6324 191.529C63.6589 192.515 64.7218 193.49 65.7916 194.427L65.3191 194.967ZM194.562 190.245L194.052 189.742C195.052 188.729 196.042 187.679 196.993 186.624L197.525 187.104C196.568 188.167 195.57 189.225 194.562 190.245ZM59.0893 188.987C58.1001 187.947 57.1226 186.872 56.1857 185.79L56.7274 185.32C57.6577 186.394 58.6274 187.46 59.6089 188.492L59.0893 188.987ZM200.343 183.83L199.788 183.374C200.693 182.274 201.583 181.139 202.435 180L203.01 180.429C202.152 181.577 201.253 182.722 200.343 183.83ZM53.4311 182.467C52.5429 181.345 51.6682 180.187 50.8311 179.024L51.4131 178.604C52.2436 179.759 53.1116 180.909 53.9932 182.024L53.4311 182.467ZM205.517 176.91L204.925 176.507C205.723 175.329 206.507 174.117 207.252 172.904L207.863 173.279C207.113 174.502 206.323 175.724 205.517 176.91ZM48.3923 175.465C47.6108 174.267 46.8459 173.034 46.1188 171.8L46.7364 171.435C47.4583 172.66 48.2172 173.884 48.9928 175.072L48.3923 175.465ZM210.042 169.544L209.414 169.197C210.102 167.95 210.772 166.67 211.404 165.393L212.046 165.711C211.411 166.999 210.736 168.289 210.042 169.544V169.544ZM44.0162 168.035C43.3472 166.77 42.6996 165.474 42.0884 164.18L42.7371 163.874C43.3428 165.157 43.9862 166.445 44.6501 167.7L44.0162 168.035ZM213.872 161.789L213.215 161.501C213.787 160.196 214.335 158.859 214.847 157.528L215.515 157.785C215 159.127 214.447 160.474 213.872 161.789V161.789ZM40.3394 160.242C39.7894 158.922 39.2631 157.572 38.7746 156.228L39.4486 155.983C39.9334 157.316 40.4559 158.656 41.0012 159.966L40.3394 160.242ZM216.973 153.708L216.291 153.483C216.739 152.134 217.161 150.755 217.546 149.385L218.238 149.579C217.849 150.96 217.423 152.349 216.973 153.708ZM37.3929 152.137C36.9662 150.77 36.5652 149.373 36.2012 147.986L36.8949 147.804C37.2562 149.181 37.6542 150.567 38.0782 151.923L37.3929 152.137ZM219.31 145.396L218.611 145.234C218.933 143.851 219.226 142.439 219.485 141.038L220.19 141.168C219.93 142.58 219.635 144.003 219.31 145.396ZM35.2021 143.785C34.9029 142.383 34.6322 140.956 34.3976 139.542L35.1051 139.424C35.3384 140.828 35.6067 142.244 35.9036 143.634L35.2021 143.785ZM220.873 136.904L220.163 136.807C220.355 135.402 220.518 133.97 220.646 132.549L221.361 132.614C221.231 134.045 221.068 135.489 220.873 136.904ZM33.7889 135.267C33.6197 133.847 33.4809 132.4 33.3761 130.969L34.0916 130.916C34.1954 132.338 34.3334 133.773 34.5012 135.183L33.7889 135.267ZM221.653 128.306L220.937 128.274C221 126.852 221.033 125.411 221.033 123.989H221.75C221.75 125.422 221.718 126.874 221.653 128.306ZM33.1587 126.656C33.1342 125.776 33.1219 124.879 33.1216 123.989C33.1216 123.437 33.1264 122.886 33.1359 122.337L33.8526 122.349C33.843 122.895 33.8383 123.441 33.8384 123.989C33.8384 124.872 33.8509 125.763 33.8751 126.636L33.1587 126.656ZM221.028 122.989C221.013 121.567 220.965 120.125 220.887 118.705L221.603 118.665C221.682 120.096 221.73 121.549 221.745 122.981L221.028 122.989ZM34.0232 118.067L33.3074 118.022C33.3969 116.589 33.5206 115.141 33.6741 113.72L34.3871 113.797C34.2341 115.208 34.1117 116.645 34.0227 118.067H34.0232ZM220.552 114.432C220.408 113.018 220.23 111.587 220.022 110.179L220.732 110.075C220.94 111.493 221.12 112.935 221.265 114.36L220.552 114.432ZM34.9459 109.549L34.2371 109.439C34.4569 108.02 34.7121 106.589 34.9959 105.188L35.6989 105.33C35.4172 106.722 35.1639 108.141 34.9459 109.549ZM219.298 105.956C219.025 104.557 218.717 103.148 218.38 101.77L219.077 101.6C219.415 102.989 219.727 104.409 220.002 105.818L219.298 105.956ZM36.6448 101.15L35.9491 100.976C36.2974 99.5867 36.6824 98.1858 37.0956 96.8123L37.7824 97.0185C37.3733 98.3813 36.9904 99.7713 36.6448 101.15ZM217.272 97.6305C216.872 96.2638 216.433 94.8908 215.972 93.5472L216.65 93.3138C217.117 94.6683 217.557 96.053 217.96 97.429L217.272 97.6305ZM39.1137 92.9322L38.4371 92.6943C38.9137 91.3385 39.4284 89.976 39.9667 88.6443L40.6317 88.9133C40.0974 90.234 39.5867 91.5862 39.1137 92.9315V92.9322ZM214.487 89.527C213.963 88.207 213.402 86.8823 212.82 85.5893L213.475 85.2948C214.062 86.5977 214.625 87.9327 215.153 89.2627L214.487 89.527ZM42.3333 84.9713L41.6816 84.6713C42.2806 83.3667 42.9181 82.0583 43.5766 80.7828L44.2139 81.1117C43.5599 82.3783 42.9272 83.6765 42.3333 84.9713ZM210.975 81.7308C210.333 80.4642 209.653 79.1957 208.955 77.9598L209.578 77.6065C210.283 78.852 210.968 80.1305 211.615 81.4065L210.975 81.7308ZM46.2692 77.3448L45.6476 76.987C46.3631 75.7445 47.1176 74.5008 47.8904 73.2908L48.4947 73.6767C47.7281 74.8777 46.9791 76.1118 46.2692 77.3448ZM206.762 74.2837C206.005 73.0772 205.21 71.8752 204.403 70.711L204.992 70.3022C205.807 71.4753 206.607 72.6865 207.37 73.9022L206.762 74.2837ZM50.8856 70.1152L50.2994 69.7018C51.1262 68.5292 51.9908 67.3602 52.8694 66.2275L53.4361 66.6672C52.5643 67.7913 51.7061 68.9513 50.8856 70.1152ZM201.883 67.2485C201.018 66.1163 200.118 64.9908 199.207 63.9035L199.757 63.4427C200.675 64.5387 201.583 65.6725 202.453 66.8132L201.883 67.2485ZM56.1404 63.34L55.5946 62.875C56.5224 61.785 57.4894 60.7002 58.4687 59.6505L58.9931 60.1398C58.0213 61.1815 57.0616 62.2583 56.1404 63.34ZM196.382 60.6837C195.418 59.6348 194.418 58.5953 193.412 57.5945L193.918 57.0855C194.933 58.0943 195.94 59.1417 196.91 60.1983L196.382 60.6837ZM61.9874 57.0738L61.4861 56.5612C62.5116 55.5577 63.5729 54.5657 64.6401 53.6127L65.1178 54.1478C64.0586 55.0935 63.0054 56.078 61.9876 57.0738H61.9874ZM190.304 54.6423C189.247 53.6847 188.157 52.74 187.064 51.8348L187.521 51.2822C188.622 52.1942 189.721 53.146 190.786 54.111L190.304 54.6423ZM68.3774 51.367L67.9246 50.8108C69.0338 49.9073 70.1803 49.0163 71.3321 48.1625L71.7593 48.7387C70.6166 49.5865 69.4783 50.4707 68.3774 51.367ZM183.7 49.1772C182.56 48.3192 181.388 47.4772 180.217 46.6752L180.62 46.0833C181.802 46.8915 182.983 47.7397 184.132 48.6042L183.7 49.1772ZM75.2562 46.2685L74.8563 45.6733C76.0434 44.8745 77.2658 44.0923 78.4896 43.3478L78.8623 43.9607C77.6474 44.6993 76.4346 45.4758 75.2562 46.2685ZM176.62 44.3352C175.408 43.5852 174.163 42.8537 172.922 42.1612L173.27 41.5347C174.523 42.2323 175.777 42.9693 176.998 43.725L176.62 44.3352ZM82.5666 41.8208L82.2224 41.1915C83.4784 40.5042 84.7663 39.8373 86.0501 39.2092L86.3654 39.8535C85.0913 40.4768 83.8132 41.1385 82.5666 41.8202V41.8208ZM169.124 40.159C167.847 39.5232 166.541 38.909 165.239 38.3332L165.529 37.6772C166.841 38.2572 168.159 38.8762 169.444 39.517L169.124 40.159ZM90.2499 38.063L89.9649 37.4048C91.2774 36.836 92.6201 36.2903 93.9554 35.783L94.2101 36.4537C92.8848 36.957 91.5524 37.4983 90.2499 38.063ZM161.273 36.6878C159.945 36.1728 158.586 35.6813 157.233 35.2275L157.462 34.5473C158.825 35.005 160.195 35.5 161.532 36.0192L161.273 36.6878ZM98.2499 35.0248L98.0266 34.3433C99.3896 33.8965 100.78 33.4757 102.16 33.0933L102.352 33.7843C100.983 34.1642 99.6026 34.5817 98.2501 35.0252L98.2499 35.0248ZM153.14 33.9582C151.772 33.5683 150.377 33.205 148.993 32.8788L149.158 32.1808C150.552 32.5095 151.958 32.8755 153.337 33.2683L153.14 33.9582ZM106.507 32.7333L106.347 32.0333C107.744 31.7142 109.168 31.4233 110.578 31.169L110.705 31.8747C109.305 32.1272 107.893 32.4158 106.507 32.7327V32.7333ZM144.802 31.992C143.405 31.7298 141.983 31.4967 140.573 31.2987L140.673 30.5885C142.093 30.7885 143.527 31.023 144.935 31.287L144.802 31.992ZM114.938 31.2115L114.842 30.5003C116.262 30.3108 117.706 30.1515 119.134 30.0272L119.196 30.7417C117.779 30.8653 116.346 31.0233 114.937 31.2113L114.938 31.2115ZM136.317 30.8003C134.904 30.667 133.467 30.5647 132.042 30.4958L132.077 29.7792C133.511 29.8488 134.961 29.9522 136.384 30.0862L136.317 30.8003ZM123.473 30.467L123.443 29.7503C124.761 29.6953 126.105 29.667 127.436 29.667H127.761L127.759 30.3837H127.436C126.115 30.3837 124.781 30.4118 123.473 30.467Z" fill="#CCCCCC"/>
<path d="M127.662 217.822V178.599C127.663 178.05 127.882 177.523 128.27 177.135C128.658 176.747 129.185 176.528 129.734 176.527H134.44C134.989 176.528 135.515 176.747 135.904 177.135C136.292 177.523 136.511 178.05 136.512 178.599V217.822C136.512 218.372 136.293 218.899 135.905 219.287C135.516 219.676 134.989 219.894 134.44 219.894H129.733C129.184 219.894 128.657 219.675 128.268 219.287C127.88 218.899 127.661 218.372 127.661 217.822H127.662Z" fill="#333333"/>
<path d="M118.355 217.822V178.599C118.356 178.05 118.575 177.523 118.963 177.135C119.351 176.747 119.878 176.528 120.427 176.527H125.133C125.682 176.528 126.209 176.747 126.597 177.135C126.986 177.523 127.204 178.05 127.206 178.599V217.822C127.205 218.372 126.987 218.899 126.598 219.287C126.21 219.676 125.683 219.894 125.133 219.894H120.427C119.878 219.894 119.351 219.676 118.962 219.287C118.574 218.899 118.355 218.372 118.355 217.822Z" fill="#333333"/>
<path d="M136.96 165.65H117.907C117.656 165.65 117.407 165.7 117.175 165.796C116.943 165.892 116.732 166.033 116.555 166.211C116.377 166.388 116.236 166.599 116.14 166.831C116.044 167.063 115.994 167.312 115.995 167.563V189.087C115.994 189.338 116.044 189.587 116.14 189.819C116.236 190.051 116.377 190.262 116.555 190.44C116.732 190.617 116.943 190.758 117.175 190.855C117.407 190.951 117.656 191 117.907 191H136.96C137.211 191 137.46 190.951 137.692 190.855C137.924 190.759 138.135 190.618 138.312 190.44C138.49 190.262 138.631 190.051 138.727 189.819C138.823 189.587 138.872 189.338 138.872 189.087V167.564C138.872 167.312 138.823 167.064 138.727 166.832C138.631 166.599 138.49 166.388 138.312 166.211C138.135 166.033 137.924 165.892 137.692 165.796C137.46 165.7 137.211 165.65 136.96 165.65Z" fill="#333333"/>
<path d="M95.4036 104.029C95.4036 104.029 85.7886 108.496 77.6522 111.459C72.6022 100.06 65.3291 100.486 65.3291 100.486L60.9191 103.523L61.7144 108.078L61.4977 115.525L60.3411 119.429L62.0009 119.729L62.9386 119.899L63.0799 119.771C62.8459 120.699 62.7513 121.655 62.7991 122.61L104.513 116.103C104.513 116.103 103.067 109.38 95.4036 104.029Z" fill="#F2F2F2"/>
<path d="M83.0859 162.658L85.8833 166.442C86.1848 166.85 86.636 167.122 87.1376 167.197C87.6393 167.272 88.1503 167.145 88.5584 166.844L120.098 143.532C120.506 143.23 120.778 142.779 120.853 142.277C120.928 141.776 120.801 141.265 120.5 140.856L117.703 137.072C117.554 136.87 117.366 136.699 117.151 136.57C116.936 136.44 116.697 136.354 116.449 136.317C116.2 136.28 115.947 136.292 115.703 136.352C115.459 136.413 115.23 136.521 115.028 136.67L83.4874 159.982C83.0794 160.284 82.8079 160.735 82.7326 161.237C82.6573 161.738 82.7844 162.25 83.0859 162.658Z" fill="#955AFF"/>
<path d="M136.829 135.786L132.672 137.992C132.224 138.229 131.889 138.636 131.74 139.121C131.591 139.606 131.641 140.13 131.879 140.578L150.263 175.223C150.501 175.672 150.907 176.007 151.392 176.156C151.877 176.304 152.402 176.254 152.85 176.017L157.006 173.812C157.454 173.574 157.79 173.168 157.938 172.683C158.087 172.198 158.037 171.673 157.799 171.225L139.415 136.579C139.297 136.357 139.137 136.16 138.943 136C138.749 135.84 138.526 135.72 138.286 135.647C138.046 135.573 137.794 135.547 137.543 135.571C137.293 135.595 137.05 135.668 136.829 135.786Z" fill="#955AFF"/>
<path d="M148.481 151.162L141.692 155.662C140.655 156.212 139.412 155.902 138.917 154.969L131.42 140.841C130.925 139.907 131.365 138.705 132.402 138.154L137.022 135.702C138.06 135.152 139.302 135.462 139.797 136.395L149.462 148.475C149.958 149.409 149.518 150.612 148.481 151.162Z" fill="#FFBC43"/>
<path d="M102.221 147.023L106.633 152.883C106.805 153.067 107.011 153.214 107.24 153.318C107.469 153.421 107.716 153.478 107.967 153.486C108.219 153.494 108.469 153.453 108.704 153.364C108.939 153.275 109.154 153.141 109.337 152.969L120.998 142.023C121.368 141.676 121.585 141.196 121.601 140.689C121.617 140.181 121.431 139.689 121.084 139.319L117.863 135.887C117.691 135.704 117.485 135.556 117.256 135.453C117.027 135.349 116.78 135.292 116.529 135.284C116.278 135.276 116.028 135.318 115.793 135.407C115.558 135.495 115.343 135.629 115.159 135.801L102.306 144.319C101.937 144.666 101.72 145.146 101.704 145.653C101.688 146.16 101.874 146.653 102.221 147.023Z" fill="#FFBC43"/>
<path d="M138.123 135.223H116.743C116.236 135.223 115.749 135.424 115.39 135.783C115.032 136.142 114.83 136.628 114.83 137.136V182.562C114.83 182.814 114.88 183.062 114.976 183.294C115.072 183.527 115.213 183.738 115.39 183.915C115.568 184.093 115.779 184.234 116.011 184.33C116.243 184.426 116.492 184.476 116.743 184.476H138.123C138.375 184.476 138.623 184.426 138.856 184.33C139.088 184.234 139.299 184.093 139.476 183.915C139.654 183.738 139.795 183.527 139.891 183.294C139.987 183.062 140.036 182.814 140.036 182.562V137.136C140.036 136.628 139.835 136.142 139.476 135.783C139.117 135.424 138.631 135.223 138.123 135.223Z" fill="#FFBC43"/>
<path d="M127.308 132.258C130.683 132.258 133.983 131.258 136.789 129.383C139.595 127.508 141.783 124.843 143.075 121.725C144.366 118.607 144.704 115.176 144.046 111.866C143.388 108.556 141.763 105.515 139.376 103.128C136.99 100.742 133.95 99.1164 130.639 98.4579C127.329 97.7993 123.898 98.1372 120.78 99.4287C117.662 100.72 114.997 102.907 113.122 105.713C111.247 108.52 110.246 111.819 110.246 115.194C110.246 119.719 112.043 124.06 115.243 127.26C118.443 130.46 122.783 132.258 127.308 132.258Z" fill="#955AFF"/>
<path d="M129.297 120.891C128.243 120.861 126.93 120.824 125.921 120.086C125.62 119.858 125.373 119.566 125.197 119.231C125.021 118.897 124.92 118.528 124.901 118.15C124.883 117.882 124.927 117.613 125.03 117.364C125.133 117.116 125.292 116.895 125.494 116.718C126.022 116.272 126.792 116.167 127.623 116.411L126.762 110.122L127.394 110.035L128.406 117.429L127.878 117.187C127.267 116.906 126.428 116.764 125.906 117.204C125.778 117.319 125.678 117.463 125.614 117.623C125.551 117.783 125.525 117.955 125.539 118.127C125.554 118.408 125.63 118.682 125.761 118.932C125.892 119.181 126.075 119.399 126.298 119.571C127.084 120.145 128.13 120.219 129.316 120.252L129.297 120.891Z" fill="#333333"/>
<path d="M123.638 110.664H120.205V111.302H123.638V110.664Z" fill="#333333"/>
<path d="M134.478 110.664H131.045V111.302H134.478V110.664Z" fill="#333333"/>
<path d="M116.036 101.859C113.271 101.544 111.129 98.8937 110.894 96.205C110.614 93.0063 112.477 89.9683 115.032 88.1735C117.705 86.2963 121.034 85.5125 124.255 85.3402C130.54 85.0272 136.716 87.0626 141.582 91.0507C143.996 93.0557 146.251 95.6097 147.105 98.6947C147.847 101.374 147.243 104.409 145.088 106.285C144.555 106.745 143.933 107.089 143.26 107.297C142.588 107.504 141.879 107.569 141.18 107.489C139.508 107.315 137.965 106.436 136.63 105.465C134.032 103.577 131.9 100.946 128.736 99.9587C126.416 99.235 123.405 99.872 121.987 101.97C121.665 102.451 121.457 102.998 121.377 103.57C121.348 103.692 121.366 103.821 121.428 103.93C121.49 104.039 121.591 104.121 121.71 104.159C121.833 104.192 121.963 104.175 122.073 104.113C122.183 104.05 122.264 103.947 122.299 103.825C122.671 101.182 125.92 100.196 128.201 100.8C131.525 101.68 133.757 104.647 136.485 106.532C137.918 107.523 139.551 108.315 141.31 108.458C142.826 108.577 144.331 108.114 145.519 107.165C147.849 105.324 148.741 102.159 148.225 99.3092C147.628 96.0092 145.407 93.1807 142.971 90.9908C138.03 86.5985 131.617 84.2289 125.007 84.3543C121.636 84.4318 118.119 85.1278 115.215 86.9097C112.398 88.638 110.221 91.5297 109.936 94.8908C109.686 97.8493 111.273 100.944 113.997 102.24C114.64 102.544 115.328 102.739 116.035 102.815C116.646 102.885 116.641 101.928 116.035 101.859L116.036 101.859Z" fill="#FF45C3"/>
<path d="M62.9071 119.321L64.9315 118.67C65.1481 118.254 64.7515 118.521 64.9408 118.117C70.0623 107.19 65.3291 100.486 65.3291 100.486L61.6676 103.008C61.6586 102.987 61.651 102.965 61.6421 102.945C61.6421 102.945 60.9921 101.499 59.9793 102.583C59.9793 102.583 63.1603 110.319 59.6178 119.935L63.7386 121.815L65.3291 119.935L65.3653 119.754L62.5188 119.496L62.9071 119.321Z" fill="#CCCCCC"/>
<path d="M120.635 159.917C104.368 156.302 89.2225 163.785 89.2225 163.785L89.1813 163.748L83.15 158.363L59.5817 119.899L65.3292 119.935C81.3063 110.391 103.79 111.693 103.79 111.693C113.477 122.682 120.635 159.917 120.635 159.917Z" fill="#FF4D3E"/>
<path opacity="0.1" d="M89.1813 163.748L83.15 158.362L59.5817 119.898L65.3292 119.935C65.3292 119.935 88.2365 150.192 89.1813 163.748Z" fill="#FF4D3E"/>
<path d="M91.8285 133.736C96.7526 132.226 99.9661 128.464 99.0061 125.333C98.0461 122.203 93.276 120.89 88.3518 122.4C83.4276 123.91 80.214 127.673 81.174 130.803C82.134 133.934 86.9043 135.247 91.8285 133.736Z" fill="#FFC4BF"/>
<path d="M41.4802 101.249C40.1814 106.05 35.7332 109.025 35.7332 109.025C35.7332 109.025 33.3904 104.214 34.6892 99.412C35.9881 94.6105 40.4366 91.6367 40.4366 91.6367C40.4366 91.6367 42.7791 96.4479 41.4802 101.249Z" fill="#FFBC43"/>
<path d="M29.665 101.249C30.9638 106.051 35.4125 109.025 35.4125 109.025C35.4125 109.025 37.7553 104.214 36.4565 99.412C35.1576 94.6105 30.7091 91.6367 30.7091 91.6367C30.7091 91.6367 28.3666 96.4479 29.665 101.249Z" fill="#FFBC43"/>
<path d="M31.5735 100.217C35.1373 103.687 35.5735 109.02 35.5735 109.02C35.5735 109.02 30.2306 108.728 26.6666 105.259C23.1026 101.789 22.6666 96.4561 22.6666 96.4561C22.6666 96.4561 28.0095 96.7479 31.5735 100.217Z" fill="#1AD877"/>
<path d="M39.572 100.217C36.008 103.686 35.572 109.02 35.572 109.02C35.572 109.02 40.9149 108.728 44.4787 105.258C48.0425 101.789 48.4787 96.4551 48.4787 96.4551C48.4787 96.4551 43.1359 96.7474 39.572 100.217Z" fill="#1AD877"/>
<path d="M220.335 155.453C219.037 160.254 214.588 163.228 214.588 163.228C214.588 163.228 212.245 158.417 213.543 153.615C214.842 148.814 219.292 145.84 219.292 145.84C219.292 145.84 221.633 150.651 220.335 155.453Z" fill="#FFBC43"/>
<path d="M208.52 155.453C209.818 160.254 214.267 163.228 214.267 163.228C214.267 163.228 216.61 158.417 215.312 153.615C214.013 148.814 209.563 145.84 209.563 145.84C209.563 145.84 207.222 150.651 208.52 155.453Z" fill="#FFBC43"/>
<path d="M210.428 154.421C213.992 157.89 214.427 163.224 214.427 163.224C214.427 163.224 209.085 162.932 205.52 159.462C201.955 155.993 201.522 150.659 201.522 150.659C201.522 150.659 206.865 150.951 210.428 154.421Z" fill="#1AD877"/>
<path d="M218.427 154.421C214.863 157.89 214.427 163.224 214.427 163.224C214.427 163.224 219.77 162.932 223.333 159.462C226.897 155.993 227.333 150.659 227.333 150.659C227.333 150.659 221.99 150.951 218.427 154.421Z" fill="#1AD877"/>
<path d="M164.846 219.695H90.881V220.334H164.846V219.695Z" fill="#333333"/>
</g>
<path d="M76.0833 57.8337C83.5852 57.8337 89.6667 51.7522 89.6667 44.2503C89.6667 36.7485 83.5852 30.667 76.0833 30.667C68.5815 30.667 62.5 36.7485 62.5 44.2503C62.5 51.7522 68.5815 57.8337 76.0833 57.8337Z" fill="white"/>
<path d="M76.0833 57.3337C83.3091 57.3337 89.1667 51.476 89.1667 44.2503C89.1667 37.0246 83.3091 31.167 76.0833 31.167C68.8576 31.167 63 37.0246 63 44.2503C63 51.476 68.8576 57.3337 76.0833 57.3337Z" stroke="#955AFF" stroke-width="6"/>
<path d="M179.25 53.667C183.806 53.667 187.5 49.9733 187.5 45.417C187.5 40.8606 183.806 37.167 179.25 37.167C174.694 37.167 171 40.8606 171 45.417C171 49.9733 174.694 53.667 179.25 53.667Z" fill="white"/>
<path d="M179.25 53.167C183.53 53.167 187 49.6972 187 45.417C187 41.1368 183.53 37.667 179.25 37.667C174.97 37.667 171.5 41.1368 171.5 45.417C171.5 49.6972 174.97 53.167 179.25 53.167Z" stroke="#FFBC43" stroke-width="6"/>
<path d="M63.4167 200C67.2366 200 70.3333 196.904 70.3333 193.084C70.3333 189.264 67.2366 186.167 63.4167 186.167C59.5967 186.167 56.5 189.264 56.5 193.084C56.5 196.904 59.5967 200 63.4167 200Z" fill="white"/>
<path d="M63.4167 199.5C66.9605 199.5 69.8333 196.627 69.8333 193.084C69.8333 189.54 66.9605 186.667 63.4167 186.667C59.8728 186.667 57 189.54 57 193.084C57 196.627 59.8728 199.5 63.4167 199.5Z" stroke="#1AD877" stroke-width="6"/>
</g>
</g>
<defs>
<clipPath id="clip0_35_470">
<rect width="250" height="250" fill="white"/>
</clipPath>
</defs>
</svg>
