<svg width="250" height="250" viewBox="0 0 250 250" fill="none" xmlns="http://www.w3.org/2000/svg">
<path d="M227.46 101.979L211.901 73.9745C209.174 69.0423 204.963 65.0943 199.865 62.6908L163.9 45.6541C156.78 42.2675 148.778 41.199 141.019 42.599L40.7485 60.5374C39.5456 60.7529 38.4567 61.3846 37.6725 62.3218C36.8882 63.2591 36.4585 64.4423 36.4585 65.6644V104.508C36.4585 105.889 37.0072 107.214 37.9839 108.191C38.9605 109.168 40.2852 109.717 41.6665 109.717H222.908C223.815 109.716 224.706 109.479 225.493 109.029C226.28 108.579 226.936 107.931 227.396 107.149C227.856 106.368 228.104 105.48 228.115 104.573C228.126 103.666 227.901 102.772 227.46 101.979Z" fill="#FFDDA1"/>
<path d="M234.375 99.3008H98.9585C90.329 99.3008 83.3335 106.296 83.3335 114.926V193.051C83.3335 201.68 90.329 208.676 98.9585 208.676H234.375C243.004 208.676 250 201.68 250 193.051V114.926C250 106.296 243.004 99.3008 234.375 99.3008Z" fill="#955AFF"/>
<path d="M250 172.217H83.3335V190.446H250V172.217Z" fill="#333333"/>
<path d="M229.167 114.926H208.333C205.457 114.926 203.125 117.258 203.125 120.134V125.342C203.125 128.219 205.457 130.551 208.333 130.551H229.167C232.043 130.551 234.375 128.219 234.375 125.342V120.134C234.375 117.258 232.043 114.926 229.167 114.926Z" fill="#FFBC43"/>
<path d="M164.53 115.103L119.553 110.708C116.528 110.413 113.654 109.241 111.285 107.337C108.915 105.433 107.153 102.88 106.213 99.9888L100.384 82.062C100.044 81.0167 99.3811 80.106 98.4914 79.4602C97.6017 78.8144 96.5305 78.4667 95.4312 78.4668H41.6929C40.3119 78.4667 38.9874 79.015 38.0106 79.9911C37.0338 80.9673 36.4847 82.2914 36.4839 83.6724L36.4585 125.545C36.4579 126.54 36.7424 127.515 37.2784 128.353C37.8144 129.192 38.5795 129.859 39.4829 130.276L70.5864 144.631C76.9804 147.589 83.9426 149.115 90.9873 149.105H162.135C164.477 149.102 166.794 148.619 168.941 147.684C171.089 146.749 173.021 145.383 174.619 143.671C176.217 141.958 177.446 139.935 178.23 137.728C179.013 135.521 179.336 133.177 179.176 130.84C178.635 122.904 172.358 116.526 164.53 115.103Z" fill="#FFDDA1"/>
<path d="M31.25 48.0459H15.625C6.99555 48.0459 0 55.0414 0 63.6709V131.562C0 140.192 6.99555 147.188 15.625 147.188H31.25C39.8794 147.188 46.875 140.192 46.875 131.562V63.6709C46.875 55.0414 39.8794 48.0459 31.25 48.0459Z" fill="#FF3929"/>
</svg>
