<svg width="250" height="250" viewBox="0 0 250 250" fill="none" xmlns="http://www.w3.org/2000/svg">
<path d="M201.556 45H48.7778C33.4365 45 21 57.4365 21 72.7778V176.944C21 192.286 33.4365 204.722 48.7778 204.722H201.556C216.897 204.722 229.333 192.286 229.333 176.944V72.7778C229.333 57.4365 216.897 45 201.556 45Z" fill="white"/>
<path d="M144.122 125.389L220.903 197.052C215.729 202.101 208.785 204.925 201.556 204.92H48.7779C41.5487 204.925 34.6047 202.101 29.4307 197.052L106.212 125.389C111.356 120.588 118.13 117.917 125.167 117.917C132.203 117.917 138.978 120.588 144.122 125.389Z" fill="url(#paint0_linear_101_4471)"/>
<path d="M144.122 124.531L220.903 52.8681C215.729 47.8193 208.785 44.9953 201.556 45H48.7779C41.5487 44.9953 34.6047 47.8193 29.4307 52.8681L106.212 124.531C111.356 129.333 118.13 132.003 125.167 132.003C132.203 132.003 138.978 129.333 144.122 124.531Z" fill="#F2F2F2"/>
<path d="M125.167 91.6914C122.473 88.9975 119.275 86.8606 115.756 85.4027C112.236 83.9447 108.464 83.1943 104.655 83.1943C100.845 83.1943 97.0728 83.9447 93.5533 85.4027C90.0338 86.8606 86.836 88.9975 84.1424 91.6914C78.7035 97.1323 75.6482 104.51 75.6482 112.204C75.6482 119.897 78.7035 127.275 84.1424 132.716L104.656 153.226L112.861 161.431C116.125 164.694 120.552 166.527 125.167 166.527C129.782 166.527 134.208 164.694 137.472 161.431L145.677 153.226L166.191 132.716C171.63 127.275 174.685 119.897 174.685 112.204C174.685 104.51 171.63 97.1323 166.191 91.6914C163.497 88.9975 160.3 86.8606 156.78 85.4027C153.261 83.9447 149.488 83.1943 145.679 83.1943C141.869 83.1943 138.097 83.9447 134.578 85.4027C131.058 86.8606 127.86 88.9975 125.167 91.6914Z" fill="#FF3929"/>
<path opacity="0.5" d="M92.9272 128.454C92.0069 128.455 91.1239 128.091 90.4723 127.441C88.5374 125.506 87.0025 123.209 85.9553 120.681C84.9081 118.153 84.3691 115.444 84.3691 112.708C84.3691 109.972 84.9081 107.262 85.9553 104.735C87.0025 102.207 88.5374 99.9099 90.4723 97.9753C91.1239 97.3242 92.0073 96.9587 92.9284 96.959C93.8495 96.9593 94.7327 97.3255 95.3838 97.977C96.0349 98.6286 96.4004 99.5121 96.4001 100.433C96.3998 101.354 96.0336 102.237 95.3821 102.889C92.7783 105.493 91.3156 109.025 91.3156 112.708C91.3156 116.391 92.7783 119.923 95.3821 122.527C95.8675 123.013 96.1981 123.632 96.332 124.305C96.4659 124.979 96.3971 125.677 96.1344 126.311C95.8717 126.945 95.4267 127.488 94.8559 127.869C94.285 128.251 93.6138 128.454 92.9272 128.454Z" fill="#FF887F"/>
<defs>
<linearGradient id="paint0_linear_101_4471" x1="125.167" y1="120.275" x2="125.167" y2="230.466" gradientUnits="userSpaceOnUse">
<stop stop-color="white"/>
<stop offset="0.345" stop-color="#F5F7F7"/>
<stop offset="1" stop-color="#E6EAEB"/>
</linearGradient>
</defs>
</svg>
