<svg width="24" height="24" viewBox="0 0 24 24" fill="none"
    xmlns="http://www.w3.org/2000/svg">
    <path d="M23.9917 13.3128C23.9917 14.0628 23.3667 14.6503 22.6583 14.6503H21.325L21.3542 21.3253C21.3542 21.4378 21.3458 21.5503 21.3333 21.6628V22.3337C21.3333 23.2545 20.5875 24.0003 19.6667 24.0003H19C18.9542 24.0003 18.9083 24.0003 18.8625 23.9962C18.8042 24.0003 18.7458 24.0003 18.6875 24.0003H17.3333H16.3333C15.4125 24.0003 14.6667 23.2545 14.6667 22.3337V21.3337V18.667C14.6667 17.9295 14.0708 17.3337 13.3333 17.3337H10.6667C9.92917 17.3337 9.33333 17.9295 9.33333 18.667V21.3337V22.3337C9.33333 23.2545 8.5875 24.0003 7.66667 24.0003H6.66667H5.3375C5.275 24.0003 5.2125 23.9962 5.15 23.992C5.1 23.9962 5.05 24.0003 5 24.0003H4.33333C3.4125 24.0003 2.66667 23.2545 2.66667 22.3337V17.667C2.66667 17.6295 2.66667 17.5878 2.67083 17.5503V14.6503H1.33333C0.583333 14.6503 0 14.067 0 13.3128C0 12.9378 0.125 12.6045 0.416667 12.3128L11.1 3.00033C11.3917 2.70866 11.725 2.66699 12.0167 2.66699C12.3083 2.66699 12.6417 2.75033 12.8917 2.95866L23.5333 12.3128C23.8667 12.6045 24.0333 12.9378 23.9917 13.3128Z" fill="black"/>
</svg>
