<svg width="250" height="250" viewBox="0 0 250 250" fill="none" xmlns="http://www.w3.org/2000/svg">
<path d="M138.554 79.556C137.808 79.5569 137.082 79.3178 136.483 78.8741C135.884 78.4304 135.444 77.8056 135.227 77.0922C135.011 76.3787 135.029 75.6146 135.281 74.9127C135.532 74.2108 136.003 73.6085 136.623 73.1949C145.675 67.1602 146.405 59.872 147.248 51.431C148.137 42.5282 149.148 32.4379 160.929 24.5838C161.695 24.0727 162.633 23.8869 163.536 24.0673C164.439 24.2476 165.234 24.7794 165.745 25.5456C166.256 26.3118 166.442 27.2496 166.261 28.1528C166.081 29.0559 165.549 29.8505 164.783 30.3616C155.731 36.3963 155.002 43.6845 154.158 52.1255C153.269 61.0282 152.259 71.1185 140.477 78.9727C139.908 79.3525 139.239 79.5555 138.554 79.556Z" fill="#1A94FA"/>
<path d="M176.748 117.75C175.881 117.751 175.045 117.427 174.404 116.842C173.764 116.257 173.365 115.454 173.287 114.59C173.209 113.726 173.458 112.864 173.983 112.174C174.509 111.484 175.273 111.016 176.127 110.861C176.474 110.795 212.287 104 218.554 82.0729C218.669 81.6228 218.872 81.2002 219.153 80.8303C219.434 80.4604 219.787 80.1505 220.189 79.9192C220.592 79.6879 221.037 79.5397 221.498 79.4835C221.96 79.4273 222.427 79.4642 222.874 79.592C223.32 79.7198 223.737 79.9359 224.098 80.2275C224.46 80.5191 224.759 80.8804 224.979 81.2898C225.198 81.6992 225.333 82.1485 225.376 82.611C225.419 83.0736 225.368 83.54 225.227 83.9826C217.776 110.063 179.019 117.392 177.373 117.694C177.167 117.732 176.958 117.75 176.748 117.75Z" fill="#FF4D3E"/>
<path d="M176.689 86.6809L170.835 86.792C170.313 86.8022 169.796 86.685 169.329 86.4505C168.863 86.2161 168.46 85.8714 168.156 85.4464C167.853 85.0214 167.657 84.5288 167.587 84.0113C167.516 83.4937 167.573 82.9668 167.752 82.4761L169.759 76.9726L167.842 71.4413C167.671 70.9477 167.622 70.4197 167.701 69.9031C167.78 69.3865 167.983 68.8969 168.294 68.4766C168.604 68.0563 169.012 67.718 169.483 67.4911C169.954 67.2641 170.473 67.1552 170.995 67.174L176.846 67.3823L181.516 63.8511C181.933 63.536 182.42 63.3271 182.936 63.2426C183.451 63.1581 183.98 63.2003 184.476 63.3658C184.971 63.5312 185.419 63.8149 185.781 64.1923C186.142 64.5696 186.406 65.0293 186.55 65.5316L188.158 71.1601L192.964 74.5108C193.392 74.8102 193.74 75.2092 193.979 75.6735C194.219 76.1377 194.341 76.6532 194.337 77.1754C194.333 77.6977 194.201 78.211 193.954 78.6711C193.707 79.1312 193.351 79.5242 192.919 79.8163L188.057 83.0872L186.356 88.6913C186.204 89.1913 185.933 89.6467 185.565 90.0181C185.198 90.3896 184.746 90.666 184.247 90.8233C183.749 90.9806 183.22 91.0141 182.706 90.9209C182.192 90.8277 181.708 90.6107 181.297 90.2886L176.689 86.6809Z" fill="#FFAB14"/>
<path d="M195.846 131.639C198.722 131.639 201.054 129.307 201.054 126.431C201.054 123.555 198.722 121.223 195.846 121.223C192.969 121.223 190.637 123.555 190.637 126.431C190.637 129.307 192.969 131.639 195.846 131.639Z" fill="#1A94FA"/>
<path d="M221.887 131.64C223.805 131.64 225.359 130.085 225.359 128.168C225.359 126.25 223.805 124.695 221.887 124.695C219.97 124.695 218.415 126.25 218.415 128.168C218.415 130.085 219.97 131.64 221.887 131.64Z" fill="#FFAB14"/>
<path d="M183.693 41.3614C185.611 41.3614 187.165 39.8069 187.165 37.8892C187.165 35.9716 185.611 34.417 183.693 34.417C181.775 34.417 180.221 35.9716 180.221 37.8892C180.221 39.8069 181.775 41.3614 183.693 41.3614Z" fill="#FF4D3E"/>
<path d="M214.943 44.8341C216.861 44.8341 218.415 43.2795 218.415 41.3619C218.415 39.4442 216.861 37.8896 214.943 37.8896C213.025 37.8896 211.471 39.4442 211.471 41.3619C211.471 43.2795 213.025 44.8341 214.943 44.8341Z" fill="#FFAB14"/>
<path d="M119.457 55.2507C122.333 55.2507 124.665 52.9188 124.665 50.0423C124.665 47.1658 122.333 44.834 119.457 44.834C116.58 44.834 114.248 47.1658 114.248 50.0423C114.248 52.9188 116.58 55.2507 119.457 55.2507Z" fill="#FFAB14"/>
<path d="M124.665 30.9444C126.583 30.9444 128.137 29.3899 128.137 27.4722C128.137 25.5546 126.583 24 124.665 24C122.747 24 121.193 25.5546 121.193 27.4722C121.193 29.3899 122.747 30.9444 124.665 30.9444Z" fill="#FF4D3E"/>
<path d="M77.4081 64.3271L185.082 171.997L42.6963 224.501C40.206 225.42 37.5045 225.605 34.9118 225.036C32.3191 224.467 29.9438 223.167 28.067 221.29C26.1903 219.413 24.8907 217.038 24.3222 214.445C23.7538 211.852 23.9402 209.151 24.8595 206.66L77.4081 64.3271Z" fill="#FFCD72"/>
<path opacity="0.75" d="M148.728 185.389L128.797 192.75C106.558 155.73 91.7345 114.737 85.1511 72.0557L112.096 99.0001C119.97 129.449 132.314 158.561 148.728 185.389Z" fill="#FFBC43"/>
<path opacity="0.75" d="M106.575 200.945L86.7137 208.236C72.4313 182.499 61.5976 154.995 54.4915 126.431L68.6234 88.167C73.9686 127.835 86.8504 166.115 106.575 200.945Z" fill="#FFBC43"/>
<path opacity="0.75" d="M64.7691 216.327L45.0122 223.619C39.6414 213.101 34.82 202.311 30.5677 191.293L42.0955 160.008C47.8529 179.457 55.4449 198.314 64.7691 216.327Z" fill="#FFBC43"/>
<path d="M186.497 170.888C194.633 162.752 177.045 131.973 147.213 102.141C117.382 72.3095 86.6028 54.7216 78.4669 62.8575C70.3309 70.9934 87.9189 101.772 117.751 131.604C147.582 161.436 178.361 179.024 186.497 170.888Z" fill="#FFAB14"/>
</svg>
