<svg width="250" height="250" viewBox="0 0 250 250" fill="none" xmlns="http://www.w3.org/2000/svg">
<g clip-path="url(#clip0_35_471)">
<mask id="mask0_35_471" style="mask-type:luminance" maskUnits="userSpaceOnUse" x="0" y="0" width="250" height="250">
<path d="M250 0H0V250H250V0Z" fill="white"/>
</mask>
<g mask="url(#mask0_35_471)">
<path d="M250 0H0V250H250V0Z" fill="white"/>
<path d="M140.388 174.613C139.09 174.613 137.845 174.097 136.926 173.179C136.008 172.261 135.492 171.016 135.492 169.717C135.492 168.419 136.008 167.173 136.926 166.255C137.845 165.337 139.09 164.821 140.388 164.821H213.098C212.733 164.149 212.193 163.589 211.536 163.198C210.879 162.807 210.129 162.601 209.365 162.601H64.8353C62.9478 162.601 61.1377 163.35 59.803 164.685C58.4684 166.02 57.7186 167.83 57.7186 169.717C57.7186 171.605 58.4684 173.415 59.803 174.749C61.1377 176.084 62.9478 176.834 64.8353 176.834H209.365C210.129 176.833 210.879 176.627 211.536 176.236C212.193 175.845 212.733 175.285 213.098 174.614L140.388 174.613Z" fill="#FF4D3E"/>
<path d="M213.195 167.518H144.065C143.959 167.518 143.857 167.476 143.783 167.401C143.708 167.326 143.666 167.225 143.666 167.119C143.666 167.013 143.708 166.912 143.783 166.837C143.857 166.762 143.959 166.72 144.065 166.72H213.195C213.247 166.719 213.299 166.73 213.348 166.75C213.396 166.77 213.44 166.799 213.477 166.836C213.551 166.911 213.593 167.013 213.593 167.119C213.593 167.225 213.551 167.326 213.477 167.401C213.44 167.439 213.396 167.468 213.348 167.488C213.299 167.508 213.247 167.518 213.195 167.518Z" fill="#CCCCCC"/>
<path d="M213.195 170.116H144.065C143.959 170.116 143.857 170.074 143.782 169.999C143.707 169.924 143.665 169.822 143.665 169.716C143.665 169.61 143.707 169.509 143.782 169.434C143.857 169.359 143.959 169.316 144.065 169.316H213.195C213.247 169.316 213.3 169.327 213.348 169.347C213.397 169.367 213.441 169.396 213.478 169.434C213.515 169.471 213.544 169.515 213.565 169.563C213.585 169.612 213.595 169.664 213.595 169.716C213.595 169.769 213.585 169.821 213.565 169.869C213.544 169.918 213.515 169.962 213.478 169.999C213.441 170.036 213.397 170.066 213.348 170.086C213.3 170.106 213.247 170.116 213.195 170.116Z" fill="#CCCCCC"/>
<path d="M213.195 172.715H144.065C143.959 172.714 143.858 172.671 143.783 172.597C143.708 172.522 143.666 172.42 143.666 172.314C143.666 172.208 143.708 172.107 143.783 172.032C143.858 171.958 143.959 171.916 144.065 171.915H213.195C213.301 171.915 213.403 171.957 213.478 172.032C213.553 172.107 213.595 172.209 213.595 172.315C213.595 172.421 213.553 172.523 213.478 172.598C213.403 172.673 213.301 172.715 213.195 172.715Z" fill="#CCCCCC"/>
<path d="M121.607 160.825C120.309 160.825 119.064 160.309 118.145 159.391C117.227 158.473 116.712 157.227 116.712 155.929C116.712 154.63 117.227 153.385 118.145 152.467C119.064 151.549 120.309 151.033 121.607 151.033H194.318C193.952 150.362 193.413 149.801 192.755 149.411C192.098 149.02 191.348 148.813 190.583 148.812H46.0542C44.1667 148.813 42.3566 149.562 41.0219 150.897C39.6873 152.232 38.9375 154.042 38.9375 155.929C38.9375 157.817 39.6873 159.627 41.0219 160.961C42.3566 162.296 44.1667 163.046 46.0542 163.046H190.583C191.348 163.045 192.098 162.839 192.755 162.448C193.413 162.057 193.952 161.497 194.318 160.825L121.607 160.825Z" fill="#1AD877"/>
<path d="M194.415 153.731H125.283C125.177 153.731 125.075 153.689 125 153.614C124.925 153.538 124.883 153.437 124.883 153.331C124.883 153.225 124.925 153.123 125 153.048C125.075 152.973 125.177 152.931 125.283 152.931H194.415C194.521 152.931 194.623 152.973 194.698 153.048C194.773 153.123 194.815 153.225 194.815 153.331C194.815 153.437 194.773 153.538 194.698 153.614C194.623 153.689 194.521 153.731 194.415 153.731Z" fill="#CCCCCC"/>
<path d="M194.415 156.328H125.283C125.177 156.328 125.075 156.286 125 156.211C124.925 156.136 124.883 156.034 124.883 155.928C124.883 155.822 124.925 155.72 125 155.645C125.075 155.57 125.177 155.528 125.283 155.528H194.415C194.521 155.528 194.623 155.57 194.698 155.645C194.773 155.72 194.815 155.822 194.815 155.928C194.815 156.034 194.773 156.136 194.698 156.211C194.623 156.286 194.521 156.328 194.415 156.328Z" fill="#CCCCCC"/>
<path d="M194.415 158.926H125.283C125.177 158.926 125.075 158.884 125 158.809C124.925 158.734 124.883 158.632 124.883 158.526C124.883 158.42 124.925 158.318 125 158.243C125.075 158.168 125.177 158.126 125.283 158.126H194.415C194.468 158.126 194.52 158.136 194.568 158.156C194.617 158.176 194.661 158.206 194.698 158.243C194.736 158.28 194.765 158.324 194.785 158.373C194.806 158.421 194.816 158.473 194.816 158.526C194.816 158.579 194.806 158.631 194.785 158.679C194.765 158.728 194.736 158.772 194.698 158.809C194.661 158.846 194.617 158.876 194.568 158.896C194.52 158.916 194.468 158.926 194.415 158.926Z" fill="#CCCCCC"/>
<path d="M102.826 146.577C101.528 146.577 100.282 146.061 99.3643 145.143C98.4462 144.225 97.9304 142.979 97.9304 141.681C97.9304 140.382 98.4462 139.137 99.3643 138.219C100.282 137.301 101.528 136.785 102.826 136.785H175.537C175.171 136.114 174.631 135.553 173.974 135.162C173.317 134.772 172.566 134.565 171.802 134.564H27.273C25.3856 134.564 23.5754 135.314 22.2408 136.649C20.9062 137.984 20.1564 139.794 20.1564 141.681C20.1564 143.569 20.9062 145.379 22.2408 146.713C23.5754 148.048 25.3856 148.798 27.273 148.798H171.802C172.566 148.797 173.317 148.591 173.974 148.2C174.631 147.809 175.171 147.249 175.537 146.577L102.826 146.577Z" fill="#FFBC43"/>
<path d="M175.633 139.483H106.503C106.396 139.483 106.295 139.44 106.22 139.365C106.145 139.29 106.103 139.189 106.103 139.083C106.103 138.977 106.145 138.875 106.22 138.8C106.295 138.725 106.396 138.683 106.503 138.683H175.633C175.739 138.683 175.841 138.725 175.916 138.8C175.991 138.875 176.033 138.977 176.033 139.083C176.033 139.189 175.991 139.29 175.916 139.365C175.841 139.44 175.739 139.483 175.633 139.483Z" fill="#CCCCCC"/>
<path d="M175.633 142.08H106.503C106.396 142.08 106.295 142.038 106.22 141.963C106.145 141.888 106.103 141.786 106.103 141.68C106.103 141.574 106.145 141.472 106.22 141.397C106.295 141.322 106.396 141.28 106.503 141.28H175.633C175.686 141.28 175.738 141.291 175.787 141.311C175.835 141.331 175.878 141.36 175.915 141.397C175.953 141.434 175.982 141.478 176.002 141.527C176.023 141.575 176.033 141.627 176.033 141.68C176.033 141.732 176.023 141.784 176.002 141.833C175.982 141.882 175.953 141.926 175.915 141.962C175.879 142 175.835 142.029 175.787 142.049C175.738 142.069 175.686 142.08 175.633 142.08V142.08Z" fill="#CCCCCC"/>
<path d="M175.633 144.678H106.503C106.396 144.678 106.295 144.636 106.22 144.561C106.145 144.486 106.103 144.384 106.103 144.278C106.103 144.172 106.145 144.07 106.22 143.995C106.295 143.92 106.396 143.878 106.503 143.878H175.633C175.686 143.878 175.738 143.888 175.787 143.908C175.835 143.928 175.879 143.958 175.915 143.995C175.953 144.032 175.982 144.076 176.002 144.125C176.023 144.173 176.033 144.225 176.033 144.278C176.033 144.33 176.023 144.382 176.002 144.431C175.982 144.479 175.953 144.523 175.915 144.56C175.878 144.597 175.835 144.627 175.787 144.647C175.738 144.667 175.686 144.677 175.633 144.677V144.678Z" fill="#CCCCCC"/>
<path d="M177.23 116.181C176.851 116.181 176.485 116.036 176.209 115.777C175.932 115.517 175.764 115.162 175.74 114.783L175.518 111.396C175.493 111 175.625 110.61 175.886 110.312C176.147 110.014 176.516 109.832 176.912 109.806L203.452 108.067C204.297 108.012 205.129 108.295 205.766 108.853C206.402 109.412 206.791 110.2 206.846 111.045C206.901 111.89 206.619 112.722 206.06 113.359C205.502 113.996 204.713 114.384 203.868 114.44L177.33 116.178C177.297 116.18 177.263 116.181 177.23 116.181Z" fill="#955AFF"/>
<path d="M182.463 116.616C182.077 116.616 181.705 116.466 181.427 116.197C181.148 115.929 180.985 115.563 180.97 115.177L180.78 110.117C180.766 109.72 180.909 109.335 181.178 109.044C181.448 108.753 181.822 108.582 182.218 108.567L204.042 107.75C204.238 107.743 204.434 107.774 204.618 107.842C204.802 107.911 204.971 108.014 205.115 108.148C205.259 108.282 205.375 108.442 205.457 108.621C205.539 108.799 205.584 108.992 205.592 109.188L205.782 114.249C205.796 114.645 205.653 115.031 205.383 115.321C205.113 115.612 204.739 115.784 204.343 115.799L182.518 116.616C182.5 116.616 182.482 116.616 182.463 116.616Z" fill="#333333"/>
<path d="M208.037 163.263H204.642C204.245 163.263 203.865 163.105 203.585 162.825C203.305 162.544 203.147 162.164 203.147 161.768V133.471C203.147 133.074 203.305 132.694 203.585 132.414C203.865 132.134 204.245 131.976 204.642 131.976H208.037C208.433 131.976 208.813 132.134 209.093 132.414C209.374 132.694 209.531 133.074 209.532 133.471V161.768C209.531 162.164 209.374 162.544 209.093 162.825C208.813 163.105 208.433 163.263 208.037 163.263Z" fill="#333333"/>
<path d="M192.968 148.305L190.065 146.546C189.727 146.339 189.484 146.007 189.39 145.623C189.296 145.238 189.357 144.831 189.562 144.492L204.228 120.293C204.434 119.954 204.766 119.711 205.151 119.616C205.536 119.522 205.942 119.584 206.282 119.789L209.185 121.549C209.523 121.756 209.766 122.088 209.86 122.472C209.954 122.857 209.893 123.264 209.688 123.603L195.022 147.802C194.816 148.141 194.484 148.384 194.099 148.479C193.714 148.573 193.307 148.511 192.968 148.305Z" fill="#333333"/>
<path d="M202.88 102.445C205.2 102.445 207.469 101.757 209.398 100.468C211.328 99.1796 212.832 97.3474 213.72 95.2038C214.608 93.0601 214.841 90.7012 214.388 88.4254C213.936 86.1496 212.818 84.059 211.178 82.4182C209.537 80.7773 207.447 79.6598 205.171 79.207C202.895 78.7542 200.536 78.9864 198.393 79.8743C196.249 80.7622 194.416 82.2659 193.127 84.1952C191.838 86.1245 191.15 88.3927 191.15 90.7131C191.15 92.2536 191.453 93.7791 192.043 95.2024C192.632 96.6257 193.496 97.9189 194.585 99.0083C195.675 100.098 196.968 100.962 198.391 101.552C199.814 102.141 201.34 102.445 202.88 102.445Z" fill="#955AFF"/>
<path d="M196.532 94.7189C196.154 94.5949 195.807 94.3915 195.515 94.1224C195.322 93.9301 195.173 93.698 195.078 93.4422C194.984 93.1864 194.946 92.913 194.968 92.6413C194.981 92.4476 195.038 92.2596 195.135 92.0913C195.232 91.9231 195.366 91.7797 195.528 91.6724C195.948 91.4033 196.508 91.4024 197.08 91.6543L197.058 87.0744L197.518 87.0723L197.543 92.4556L197.188 92.2328C196.778 91.9746 196.192 91.7929 195.777 92.0591C195.674 92.1289 195.589 92.222 195.528 92.3308C195.468 92.4395 195.433 92.5604 195.427 92.6844C195.412 92.8869 195.44 93.0903 195.51 93.2809C195.58 93.4716 195.69 93.6448 195.833 93.7888C196.342 94.2741 197.082 94.4259 197.927 94.5614L197.855 95.0156C197.406 94.9562 196.963 94.8566 196.532 94.7181V94.7189Z" fill="#333333"/>
<path d="M192.317 86.8428L192.257 87.2988L194.712 87.6231L194.773 87.1671L192.317 86.8428Z" fill="#333333"/>
<path d="M200.068 87.8662L200.008 88.3224L202.465 88.6467L202.525 88.1907L200.068 87.8662Z" fill="#333333"/>
<path d="M212.675 141.063H192.895C192.377 141.063 191.88 140.856 191.513 140.49C191.147 140.123 190.941 139.626 190.94 139.108L195.082 107.349C195.085 106.833 195.292 106.339 195.658 105.976C196.024 105.612 196.519 105.408 197.035 105.408H204.055C206.859 105.412 209.547 106.528 211.529 108.51C213.511 110.493 214.627 113.181 214.63 115.985V139.108C214.629 139.626 214.423 140.123 214.057 140.49C213.69 140.856 213.193 141.063 212.675 141.063Z" fill="#333333"/>
<path d="M229.693 128.548C229.816 128.81 229.86 129.101 229.82 129.387C229.78 129.673 229.659 129.942 229.47 130.16L227.252 132.729C227.058 132.953 226.803 133.114 226.518 133.193C226.233 133.272 225.931 133.264 225.65 133.171C225.464 133.109 225.291 133.011 225.142 132.883L205.017 115.493C204.696 115.22 204.432 114.886 204.241 114.511C204.05 114.136 203.935 113.726 203.903 113.306C203.871 112.886 203.922 112.464 204.054 112.064C204.186 111.663 204.395 111.293 204.671 110.975C204.946 110.656 205.282 110.395 205.659 110.206C206.035 110.018 206.446 109.906 206.866 109.877C207.286 109.848 207.708 109.902 208.107 110.037C208.506 110.171 208.875 110.384 209.192 110.661L229.317 128.051C229.475 128.189 229.604 128.358 229.693 128.548Z" fill="#955AFF"/>
<path d="M225.252 122.809C225.374 123.071 225.418 123.362 225.378 123.648C225.339 123.934 225.217 124.203 225.028 124.421L221.238 128.809C220.979 129.109 220.611 129.294 220.215 129.322C219.82 129.351 219.429 129.222 219.128 128.963L202.603 114.683C202.455 114.554 202.333 114.398 202.245 114.223C202.157 114.047 202.104 113.856 202.09 113.66C202.076 113.464 202.1 113.268 202.162 113.081C202.223 112.895 202.321 112.722 202.45 112.574L206.24 108.186C206.433 107.962 206.689 107.8 206.974 107.722C207.259 107.643 207.561 107.651 207.842 107.744C208.028 107.805 208.2 107.903 208.348 108.032L224.875 122.311C225.034 122.449 225.162 122.618 225.252 122.809V122.809Z" fill="#333333"/>
<path d="M203.1 83.7547C201.532 82.4568 199.435 83.6843 197.663 83.51C195.967 83.3433 194.6 81.8502 194.228 80.2433C193.795 78.3687 194.735 76.4643 196.153 75.2635C197.705 73.9482 199.79 73.5393 201.777 73.7395C204.053 73.969 206.15 74.9883 208.038 76.2338C209.86 77.3977 211.542 78.7686 213.048 80.319C214.398 81.7547 215.552 83.4747 215.947 85.4335C216.307 87.2138 216.097 89.1982 215.068 90.7317C214.523 91.5182 213.785 92.1508 212.923 92.5682C212.027 93.03 211.067 93.3663 210.2 93.8858C208.888 94.6712 207.628 96.2718 208.075 97.9043C208.171 98.2607 208.353 98.5882 208.605 98.8583C208.908 99.1822 209.435 98.7365 209.132 98.4118C208.598 97.8415 208.603 97.0672 208.87 96.3692C209.186 95.5819 209.76 94.9255 210.498 94.508C211.407 93.9655 212.413 93.6222 213.345 93.126C214.238 92.6726 215.008 92.0095 215.588 91.1937C216.685 89.6067 216.983 87.5628 216.693 85.6828C216.378 83.6485 215.295 81.8148 213.952 80.2867C212.49 78.6235 210.707 77.226 208.888 75.9748C206.938 74.6322 204.788 73.5065 202.428 73.1295C200.382 72.8027 198.175 73.0697 196.412 74.2153C194.767 75.2848 193.523 77.0942 193.435 79.0913C193.406 79.9998 193.62 80.8995 194.055 81.6977C194.49 82.4959 195.13 83.1638 195.908 83.6325C196.707 84.0898 197.628 84.285 198.543 84.1905C199.522 84.1092 200.498 83.7905 201.485 83.855C201.932 83.8738 202.361 84.0376 202.707 84.3217C203.048 84.605 203.44 84.036 203.1 83.755V83.7547Z" fill="#FF45C3"/>
<path d="M189.307 144.901L189.322 144.823C189.363 144.631 189.441 144.449 189.553 144.288C189.665 144.126 189.808 143.988 189.973 143.882L192.825 142.042C193.158 141.827 193.563 141.754 193.951 141.837C194.338 141.921 194.677 142.155 194.892 142.488L203.692 156.134C203.906 156.467 203.98 156.872 203.897 157.259C203.813 157.646 203.579 157.985 203.247 158.2L200.393 160.04C200.06 160.255 199.655 160.328 199.268 160.245C198.88 160.161 198.542 159.927 198.327 159.594L189.527 145.949C189.325 145.639 189.247 145.265 189.307 144.901V144.901Z" fill="#333333"/>
<path d="M77.2275 69.8712C77.1846 69.8712 77.1432 69.8549 77.1118 69.8256C77.0804 69.7963 77.0613 69.7562 77.0583 69.7134C76.9473 68.2055 76.271 66.7951 75.1647 65.7645C74.0583 64.734 72.6036 64.1592 71.0917 64.1552C70.9107 64.1552 70.7207 64.1644 70.5267 64.1826C70.4942 64.1856 70.4616 64.1793 70.4326 64.1642C70.4037 64.1492 70.3797 64.1262 70.3635 64.0979C69.6689 62.8825 68.6319 61.8986 67.3817 61.2689C66.1315 60.6391 64.7236 60.3915 63.3335 60.5568C61.9435 60.7221 60.6329 61.293 59.5653 62.1984C58.4977 63.1038 57.7203 64.3035 57.3302 65.6479C57.3199 65.6839 57.2979 65.7155 57.2678 65.7376C57.2376 65.7598 57.2009 65.7713 57.1635 65.7704L57.1183 65.7691C57.0948 65.7691 57.0713 65.7674 57.0477 65.7674C55.9009 65.771 54.7899 66.1666 53.8989 66.8885C53.0079 67.6104 52.3905 68.6153 52.1492 69.7364C52.1411 69.7746 52.1201 69.8088 52.0898 69.8334C52.0594 69.8579 52.0215 69.8712 51.9825 69.8711H40.6125C40.5675 69.8711 40.5243 69.8532 40.4925 69.8213C40.4606 69.7895 40.4427 69.7463 40.4427 69.7013C40.4427 69.6563 40.4606 69.6131 40.4925 69.5813C40.5243 69.5494 40.5675 69.5316 40.6125 69.5316H51.8473C52.1302 68.3655 52.7954 67.3277 53.737 66.5839C54.6785 65.8401 55.8421 65.4331 57.042 65.4279C57.4691 64.0461 58.2883 62.818 59.4001 61.893C60.5118 60.9679 61.8684 60.3857 63.3048 60.217C64.7412 60.0483 66.1957 60.3004 67.4916 60.9427C68.7875 61.585 69.8689 62.5898 70.6045 63.8351C70.7712 63.8221 70.9352 63.8156 71.0927 63.8156C72.6904 63.8199 74.2276 64.4274 75.3966 65.5165C76.5656 66.6056 77.2803 68.096 77.3975 69.6894C77.3991 69.7116 77.3962 69.734 77.3892 69.7551C77.3821 69.7763 77.3709 69.7958 77.3563 69.8126C77.3417 69.8294 77.3239 69.8432 77.3039 69.8532C77.284 69.8631 77.2622 69.869 77.24 69.8706L77.2275 69.8712Z" fill="#333333"/>
<path d="M75.2081 72.0475H47.3731C47.3281 72.0475 47.2849 72.0296 47.2531 71.9978C47.2213 71.966 47.2034 71.9228 47.2034 71.8778C47.2034 71.8327 47.2213 71.7896 47.2531 71.7577C47.2849 71.7259 47.3281 71.708 47.3731 71.708H75.2081C75.2531 71.708 75.2963 71.7259 75.3282 71.7577C75.36 71.7896 75.3779 71.8327 75.3779 71.8778C75.3779 71.9228 75.36 71.966 75.3282 71.9978C75.2963 72.0296 75.2531 72.0475 75.2081 72.0475Z" fill="#333333"/>
<path d="M54.1625 74.5084H44.8275C44.7824 74.5084 44.7393 74.4906 44.7074 74.4587C44.6756 74.4269 44.6577 74.3837 44.6577 74.3387C44.6577 74.2937 44.6756 74.2505 44.7074 74.2187C44.7393 74.1868 44.7824 74.1689 44.8275 74.1689H54.1625C54.2075 74.1689 54.2507 74.1868 54.2825 74.2187C54.3143 74.2505 54.3322 74.2937 54.3322 74.3387C54.3322 74.3837 54.3143 74.4269 54.2825 74.4587C54.2507 74.4906 54.2075 74.5084 54.1625 74.5084Z" fill="#333333"/>
<path d="M166.394 82.5382C166.351 82.5382 166.31 82.5219 166.278 82.4926C166.247 82.4633 166.228 82.4232 166.225 82.3804C166.114 80.8725 165.438 79.4621 164.331 78.4315C163.225 77.4009 161.77 76.8262 160.258 76.8222C160.077 76.8222 159.887 76.8314 159.693 76.8496C159.661 76.8526 159.628 76.8463 159.599 76.8312C159.57 76.8162 159.546 76.7932 159.53 76.7649C158.836 75.5495 157.798 74.5656 156.548 73.9358C155.298 73.3061 153.89 73.0584 152.5 73.2238C151.11 73.3891 149.8 73.96 148.732 74.8654C147.664 75.7708 146.887 76.9705 146.497 78.3149C146.487 78.3509 146.465 78.3824 146.434 78.4046C146.404 78.4268 146.368 78.4383 146.33 78.4374L146.285 78.4361C146.261 78.4361 146.238 78.4344 146.214 78.4344C145.068 78.438 143.956 78.8336 143.065 79.5555C142.174 80.2774 141.557 81.2823 141.316 82.4034C141.308 82.4416 141.287 82.4758 141.256 82.5004C141.226 82.5249 141.188 82.5382 141.149 82.5381H129.779C129.734 82.5381 129.691 82.5202 129.659 82.4883C129.627 82.4565 129.609 82.4133 129.609 82.3683C129.609 82.3233 129.627 82.2801 129.659 82.2483C129.691 82.2164 129.734 82.1986 129.779 82.1986H141.014C141.297 81.0325 141.962 79.9947 142.904 79.2509C143.845 78.5071 145.009 78.1001 146.209 78.0949C146.636 76.7131 147.455 75.485 148.567 74.56C149.678 73.6349 151.035 73.0527 152.471 72.884C153.908 72.7153 155.362 72.9674 156.658 73.6097C157.954 74.252 159.036 75.2568 159.771 76.5021C159.938 76.4891 160.102 76.4826 160.259 76.4826C161.857 76.4869 163.394 77.0943 164.563 78.1835C165.732 79.2726 166.447 80.763 166.564 82.3564C166.566 82.3786 166.563 82.401 166.556 82.4221C166.549 82.4432 166.538 82.4628 166.523 82.4796C166.508 82.4964 166.49 82.5102 166.471 82.5202C166.451 82.5301 166.429 82.536 166.407 82.5376L166.394 82.5382Z" fill="#333333"/>
<path d="M164.375 84.7145H136.54C136.495 84.7145 136.452 84.6966 136.42 84.6648C136.388 84.6329 136.37 84.5898 136.37 84.5447C136.37 84.4997 136.388 84.4566 136.42 84.4247C136.452 84.3929 136.495 84.375 136.54 84.375H164.375C164.42 84.375 164.463 84.3929 164.495 84.4247C164.527 84.4566 164.545 84.4997 164.545 84.5447C164.545 84.5898 164.527 84.6329 164.495 84.6648C164.463 84.6966 164.42 84.7145 164.375 84.7145Z" fill="#333333"/>
<path d="M143.329 87.1754H133.994C133.949 87.1754 133.906 87.1576 133.874 87.1257C133.842 87.0939 133.824 87.0507 133.824 87.0057C133.824 86.9607 133.842 86.9175 133.874 86.8857C133.906 86.8538 133.949 86.8359 133.994 86.8359H143.329C143.374 86.8359 143.417 86.8538 143.449 86.8857C143.481 86.9175 143.499 86.9607 143.499 87.0057C143.499 87.0507 143.481 87.0939 143.449 87.1257C143.417 87.1576 143.374 87.1754 143.329 87.1754Z" fill="#333333"/>
</g>
</g>
<defs>
<clipPath id="clip0_35_471">
<rect width="250" height="250" fill="white"/>
</clipPath>
</defs>
</svg>
