<svg width="24" height="24" viewBox="0 0 24 24" fill="none" xmlns="http://www.w3.org/2000/svg">
<path d="M16.9313 11.6672C17.6063 10.7016 18 9.525 18 8.25C18 4.93594 15.3141 2.25 12 2.25C8.68594 2.25 6 4.93594 6 8.25C6 9.525 6.39375 10.7016 7.06875 11.6672C7.24219 11.9156 7.44844 12.1969 7.66875 12.4969C8.27344 13.3266 8.99531 14.3203 9.53438 15.3C10.0219 16.1906 10.2703 17.1187 10.3922 17.9953H8.10938C8.00625 17.4328 7.83281 16.8844 7.55625 16.3781C7.09219 15.5344 6.51562 14.7422 5.93906 13.95C5.69531 13.6172 5.45156 13.2844 5.21719 12.9469C4.29375 11.6203 3.75 9.99844 3.75 8.25C3.75 3.69375 7.44375 0 12 0C16.5562 0 20.25 3.69375 20.25 8.25C20.25 9.99844 19.7063 11.6203 18.7781 12.9516C18.5438 13.2891 18.3 13.6219 18.0563 13.9547C17.4797 14.7422 16.9031 15.5344 16.4391 16.3828C16.1625 16.8891 15.9891 17.4375 15.8859 18H13.6125C13.7344 17.1234 13.9828 16.1906 14.4703 15.3047C15.0094 14.325 15.7312 13.3313 16.3359 12.5016C16.5562 12.2016 16.7578 11.9203 16.9313 11.6719V11.6672ZM12 6C10.7578 6 9.75 7.00781 9.75 8.25C9.75 8.6625 9.4125 9 9 9C8.5875 9 8.25 8.6625 8.25 8.25C8.25 6.17812 9.92812 4.5 12 4.5C12.4125 4.5 12.75 4.8375 12.75 5.25C12.75 5.6625 12.4125 6 12 6ZM12 24C9.92812 24 8.25 22.3219 8.25 20.25V19.5H15.75V20.25C15.75 22.3219 14.0719 24 12 24Z" fill="black"/>
</svg>
