<svg width="250" height="250" viewBox="0 0 250 250" fill="none" xmlns="http://www.w3.org/2000/svg">
<path d="M124.583 239.167C187.866 239.167 239.167 187.866 239.167 124.583C239.167 61.3007 187.866 10 124.583 10C61.3007 10 10 61.3007 10 124.583C10 187.866 61.3007 239.167 124.583 239.167Z" fill="#333333"/>
<path d="M124.583 218.333C176.36 218.333 218.333 176.36 218.333 124.583C218.333 72.8063 176.36 30.833 124.583 30.833C72.8066 30.833 30.8333 72.8063 30.8333 124.583C30.8333 176.36 72.8066 218.333 124.583 218.333Z" fill="white"/>
<path d="M124.583 67.2917C123.202 67.2917 121.877 66.7429 120.9 65.7662C119.924 64.7894 119.375 63.4647 119.375 62.0833V46.4583C119.375 45.077 119.924 43.7522 120.9 42.7755C121.877 41.7987 123.202 41.25 124.583 41.25C125.965 41.25 127.289 41.7987 128.266 42.7755C129.243 43.7522 129.792 45.077 129.792 46.4583V62.0833C129.792 63.4647 129.243 64.7894 128.266 65.7662C127.289 66.7429 125.965 67.2917 124.583 67.2917Z" fill="#CCCCCC"/>
<path d="M124.583 207.917C123.202 207.917 121.877 207.368 120.9 206.391C119.924 205.414 119.375 204.09 119.375 202.708V187.083C119.375 185.702 119.924 184.377 120.9 183.4C121.877 182.424 123.202 181.875 124.583 181.875C125.965 181.875 127.289 182.424 128.266 183.4C129.243 184.377 129.792 185.702 129.792 187.083V202.708C129.792 204.09 129.243 205.414 128.266 206.391C127.289 207.368 125.965 207.917 124.583 207.917Z" fill="#CCCCCC"/>
<path d="M202.708 129.792H187.083C185.702 129.792 184.377 129.243 183.4 128.266C182.424 127.289 181.875 125.965 181.875 124.583C181.875 123.202 182.424 121.877 183.4 120.9C184.377 119.924 185.702 119.375 187.083 119.375H202.708C204.09 119.375 205.414 119.924 206.391 120.9C207.368 121.877 207.917 123.202 207.917 124.583C207.917 125.965 207.368 127.289 206.391 128.266C205.414 129.243 204.09 129.792 202.708 129.792Z" fill="#CCCCCC"/>
<path d="M62.0833 129.792H46.4583C45.077 129.792 43.7522 129.243 42.7755 128.266C41.7987 127.289 41.25 125.965 41.25 124.583C41.25 123.202 41.7987 121.877 42.7755 120.9C43.7522 119.924 45.077 119.375 46.4583 119.375H62.0833C63.4647 119.375 64.7894 119.924 65.7662 120.9C66.7429 121.877 67.2917 123.202 67.2917 124.583C67.2917 125.965 66.7429 127.289 65.7662 128.266C64.7894 129.243 63.4647 129.792 62.0833 129.792Z" fill="#CCCCCC"/>
<path d="M76.7082 177.667C75.8107 177.667 74.9285 177.434 74.1471 176.993C73.3658 176.551 72.7118 175.915 72.2486 175.147C71.7853 174.378 71.5286 173.502 71.5033 172.605C71.478 171.708 71.6849 170.82 72.104 170.026L102.38 112.833C104.731 108.38 108.37 104.738 112.823 102.386L170.026 72.1043C171.01 71.5854 172.134 71.3952 173.234 71.5615C174.334 71.7278 175.352 72.2418 176.138 73.0284C176.925 73.815 177.439 74.8328 177.605 75.9326C177.771 77.0325 177.581 78.1568 177.062 79.1407L146.786 136.333C144.436 140.787 140.796 144.428 136.344 146.781L79.1405 177.063C78.391 177.459 77.5561 177.666 76.7082 177.667Z" fill="#1A94FA"/>
<path d="M176.146 73.0209C175.359 72.2342 174.34 71.7202 173.24 71.5543C172.14 71.3884 171.015 71.5793 170.031 72.099L112.823 102.385C110.611 103.555 108.587 105.049 106.818 106.818L142.349 142.349C144.12 140.577 145.616 138.549 146.786 136.333L177.062 79.1407C177.584 78.1566 177.776 77.0313 177.611 75.9299C177.446 74.8284 176.933 73.8089 176.146 73.0209Z" fill="#FF3929"/>
</svg>
