<svg width="24" height="24" viewBox="0 0 24 24" fill="none" xmlns="http://www.w3.org/2000/svg">
<path d="M11.6563 7.39875C11.9225 7.1625 12.0275 6.79125 11.8888 6.46125C11.8025 6.2625 11.7088 6.0675 11.6038 5.88L11.4875 5.6775C11.375 5.49 11.2513 5.30625 11.12 5.13C10.9063 4.845 10.5313 4.75125 10.1938 4.86375L9.13626 5.2125C8.73501 4.8825 8.27377 4.6125 7.77877 4.42875L7.55001 3.34125C7.47877 2.9925 7.20877 2.715 6.85627 2.67375C6.60877 2.64 6.35751 2.625 6.10251 2.625H6.07626C5.82127 2.625 5.57002 2.64 5.32252 2.67C4.97002 2.71125 4.70002 2.9925 4.62877 3.3375L4.40002 4.42875C3.90127 4.61625 3.44377 4.8825 3.04252 5.2125L1.98127 4.8675C1.64377 4.755 1.26877 4.84875 1.05502 5.13375C0.923766 5.31 0.800016 5.49375 0.683766 5.68125L0.571266 5.88C0.466266 6.0675 0.372516 6.2625 0.286266 6.465C0.147516 6.79125 0.252516 7.1625 0.518766 7.4025L1.35127 8.145C1.31002 8.39625 1.28752 8.65875 1.28752 8.925C1.28752 9.19125 1.31002 9.45375 1.35127 9.70875L0.518766 10.4513C0.252516 10.6875 0.147516 11.0588 0.286266 11.3888C0.372516 11.5875 0.466266 11.7825 0.571266 11.9738L0.683766 12.1688C0.796266 12.36 0.920016 12.54 1.05502 12.7163C1.26877 13.0013 1.64377 13.095 1.98127 12.9825L3.03877 12.6337C3.44002 12.9637 3.90127 13.2338 4.39627 13.4175L4.62502 14.5087C4.69627 14.8575 4.96627 15.135 5.31877 15.1763C5.57001 15.2063 5.82502 15.2213 6.08377 15.2213C6.34251 15.2213 6.59752 15.2063 6.84877 15.1763C7.20127 15.135 7.47127 14.8538 7.54252 14.5087L7.77126 13.4175C8.27001 13.23 8.72752 12.9637 9.12877 12.6337L10.1863 12.9825C10.5238 13.095 10.8988 13.0013 11.1125 12.7163C11.2438 12.54 11.3675 12.36 11.48 12.1688L11.5963 11.9663C11.7013 11.7788 11.795 11.5838 11.8813 11.385C12.02 11.0588 11.915 10.6875 11.6488 10.4475L10.8163 9.705C10.8575 9.45 10.88 9.1875 10.88 8.92125C10.88 8.655 10.8575 8.3925 10.8163 8.1375L11.6488 7.395L11.6563 7.39875ZM4.28752 8.925C4.28752 8.44761 4.47716 7.98977 4.81472 7.65221C5.15229 7.31464 5.61013 7.125 6.08751 7.125C6.5649 7.125 7.02274 7.31464 7.36031 7.65221C7.69787 7.98977 7.88752 8.44761 7.88752 8.925C7.88752 9.40239 7.69787 9.86023 7.36031 10.1978C7.02274 10.5354 6.5649 10.725 6.08751 10.725C5.61013 10.725 5.15229 10.5354 4.81472 10.1978C4.47716 9.86023 4.28752 9.40239 4.28752 8.925ZM19.0138 21.0938C19.25 21.36 19.6213 21.465 19.9513 21.3263C20.15 21.24 20.345 21.1463 20.5325 21.0413L20.735 20.925C20.9225 20.8125 21.1063 20.6888 21.2825 20.5575C21.5675 20.3438 21.6613 19.9688 21.5488 19.6313L21.2 18.5738C21.53 18.1725 21.8 17.7113 21.9838 17.2163L23.075 16.9875C23.4238 16.9163 23.7013 16.6463 23.7425 16.2938C23.7725 16.0425 23.7875 15.7875 23.7875 15.5288C23.7875 15.27 23.7725 15.015 23.7425 14.7638C23.7013 14.4113 23.42 14.1413 23.075 14.07L21.9838 13.8375C21.7963 13.3388 21.53 12.8813 21.2 12.48L21.5488 11.4225C21.6613 11.085 21.5675 10.71 21.2825 10.4963C21.1063 10.365 20.9225 10.2413 20.735 10.125L20.5363 10.0125C20.3488 9.9075 20.1538 9.81375 19.9513 9.7275C19.625 9.58875 19.2538 9.69375 19.0138 9.96L18.2713 10.7925C18.0163 10.7513 17.7538 10.7288 17.4875 10.7288C17.2213 10.7288 16.9588 10.7513 16.7038 10.7925L15.9613 9.96C15.725 9.69375 15.3538 9.58875 15.0238 9.7275C14.825 9.81375 14.63 9.9075 14.4388 10.0125L14.2438 10.125C14.0525 10.2375 13.8725 10.3612 13.6963 10.4963C13.4113 10.71 13.3175 11.085 13.43 11.4225L13.7788 12.48C13.4488 12.8813 13.1788 13.3425 12.995 13.8375L11.9038 14.0625C11.555 14.1338 11.2775 14.4038 11.2363 14.7563C11.2063 15.0075 11.1913 15.2625 11.1913 15.5213C11.1913 15.78 11.2063 16.035 11.2363 16.2863C11.2775 16.6388 11.5588 16.9088 11.9038 16.98L12.995 17.2088C13.1825 17.7075 13.4488 18.165 13.7788 18.5663L13.43 19.6238C13.3175 19.9613 13.4113 20.3363 13.6963 20.55C13.8725 20.6813 14.0525 20.805 14.2438 20.9175L14.4463 21.0338C14.6338 21.1388 14.8288 21.2325 15.0275 21.3188C15.3538 21.4575 15.725 21.3525 15.965 21.0863L16.7075 20.2538C16.9625 20.295 17.225 20.3175 17.4913 20.3175C17.7575 20.3175 18.02 20.295 18.275 20.2538L19.0175 21.0863L19.0138 21.0938ZM17.4875 13.725C17.7239 13.725 17.958 13.7716 18.1763 13.862C18.3947 13.9525 18.5932 14.0851 18.7603 14.2522C18.9275 14.4194 19.06 14.6178 19.1505 14.8362C19.241 15.0546 19.2875 15.2886 19.2875 15.525C19.2875 15.7614 19.241 15.9954 19.1505 16.2138C19.06 16.4322 18.9275 16.6306 18.7603 16.7978C18.5932 16.9649 18.3947 17.0975 18.1763 17.188C17.958 17.2784 17.7239 17.325 17.4875 17.325C17.2511 17.325 17.0171 17.2784 16.7987 17.188C16.5803 17.0975 16.3819 16.9649 16.2147 16.7978C16.0476 16.6306 15.915 16.4322 15.8245 16.2138C15.7341 15.9954 15.6875 15.7614 15.6875 15.525C15.6875 15.2886 15.7341 15.0546 15.8245 14.8362C15.915 14.6178 16.0476 14.4194 16.2147 14.2522C16.3819 14.0851 16.5803 13.9525 16.7987 13.862C17.0171 13.7716 17.2511 13.725 17.4875 13.725Z" fill="black"/>
</svg>
