<svg width="250" height="250" viewBox="0 0 250 250" fill="none" xmlns="http://www.w3.org/2000/svg">
<g clip-path="url(#clip0_35_473)">
<mask id="mask0_35_473" style="mask-type:luminance" maskUnits="userSpaceOnUse" x="0" y="0" width="250" height="250">
<path d="M250 0H0V250H250V0Z" fill="white"/>
</mask>
<g mask="url(#mask0_35_473)">
<path d="M250 0H0V250H250V0Z" fill="white"/>
<path opacity="0.01" d="M250 0H0V250H250V0Z" fill="white"/>
<path d="M17.3902 157.785C18.1929 158.067 19.0547 158.138 19.8926 157.99C20.7306 157.843 21.5164 157.482 22.1743 156.942C23.85 155.535 24.3755 153.219 24.8028 151.073L26.0672 144.726L23.4202 146.549C21.5163 147.86 19.5702 149.213 18.2518 151.112C16.9335 153.01 16.3588 155.603 17.4175 157.658" fill="#00D468"/>
<path d="M17.7989 165.911C17.4655 163.483 17.123 161.024 17.3572 158.57C17.5649 156.391 18.2295 154.263 19.583 152.517C20.3016 151.593 21.1759 150.801 22.1667 150.176C22.4249 150.013 22.6627 150.423 22.4055 150.585C20.6915 151.668 19.3658 153.268 18.6195 155.154C17.7952 157.25 17.6629 159.536 17.8049 161.763C17.8907 163.11 18.073 164.448 18.2562 165.785C18.2707 165.846 18.2616 165.909 18.2309 165.963C18.2002 166.017 18.1502 166.058 18.0909 166.076C18.0304 166.092 17.9658 166.084 17.9113 166.053C17.8568 166.022 17.8167 165.971 17.7997 165.911L17.7989 165.911Z" fill="#FFBC43"/>
<path d="M20.197 162.016C20.5412 162.54 21.0144 162.966 21.571 163.253C22.1276 163.541 22.7488 163.68 23.3749 163.657C24.984 163.581 26.3249 162.457 27.5319 161.392L31.1025 158.239L28.7394 158.125C27.0394 158.044 25.2967 157.968 23.6779 158.492C22.059 159.016 20.5664 160.278 20.2705 161.954" fill="#00D468"/>
<path d="M16.857 167.307C18.461 164.469 20.3214 161.314 23.6459 160.306C24.5702 160.026 25.5393 159.926 26.5012 160.011C26.8044 160.037 26.7287 160.504 26.4262 160.477C24.8138 160.343 23.2044 160.769 21.8692 161.683C20.614 162.594 19.5499 163.742 18.7372 165.063C18.2185 165.853 17.7539 166.678 17.2894 167.499C17.141 167.763 16.7069 167.573 16.857 167.307Z" fill="#FFBC43"/>
<path d="M164.113 154.074C165.219 154.463 166.406 154.56 167.56 154.357C168.714 154.154 169.796 153.657 170.702 152.914C173.008 150.976 173.733 147.786 174.322 144.831L176.062 136.091L172.417 138.601C169.795 140.406 167.115 142.27 165.3 144.884C163.485 147.499 162.693 151.069 164.151 153.899" fill="#00D468"/>
<path d="M164.676 165.266C164.218 161.923 163.745 158.536 164.068 155.157C164.354 152.156 165.269 149.226 167.133 146.822C168.122 145.548 169.326 144.457 170.69 143.598C171.045 143.373 171.373 143.937 171.018 144.161C168.658 145.653 166.833 147.856 165.805 150.452C164.67 153.339 164.488 156.487 164.683 159.554C164.802 161.409 165.053 163.252 165.305 165.092C165.325 165.175 165.312 165.263 165.27 165.337C165.228 165.412 165.159 165.467 165.077 165.493C164.994 165.515 164.906 165.504 164.831 165.461C164.756 165.418 164.701 165.348 164.677 165.265L164.676 165.266Z" fill="#FFBC43"/>
<path d="M167.978 159.9C168.452 160.621 169.104 161.207 169.87 161.603C170.637 161.999 171.493 162.191 172.355 162.159C174.57 162.054 176.417 160.508 178.078 159.04L182.997 154.698L179.742 154.542C177.402 154.43 175.002 154.325 172.772 155.047C170.542 155.769 168.487 157.506 168.08 159.814" fill="#00D468"/>
<path d="M163.379 167.186C165.588 163.278 168.15 158.933 172.728 157.545C174.001 157.16 175.335 157.022 176.66 157.139C177.078 157.175 176.973 157.818 176.557 157.783C174.336 157.598 172.12 158.185 170.282 159.443C168.512 160.648 167.135 162.322 165.968 164.098C165.254 165.186 164.614 166.32 163.975 167.453C163.77 167.815 163.172 167.553 163.379 167.186Z" fill="#FFBC43"/>
<path d="M143.411 95.2576C143.178 95.1562 142.99 94.9726 142.884 94.7419C142.778 94.5111 142.76 94.2493 142.834 94.0063C142.846 93.969 142.854 93.9305 142.857 93.8915C142.864 93.78 142.834 93.6692 142.773 93.5756C142.712 93.482 142.623 93.4106 142.518 93.3719C142.413 93.3333 142.299 93.3294 142.192 93.361C142.084 93.3926 141.99 93.458 141.923 93.5473C141.9 93.5789 141.881 93.6132 141.866 93.6493C141.765 93.8822 141.581 94.0698 141.35 94.1761C141.119 94.2825 140.858 94.3003 140.615 94.2261C140.577 94.2142 140.539 94.2066 140.5 94.2036C140.388 94.1968 140.278 94.2261 140.184 94.2871C140.091 94.3481 140.019 94.4376 139.981 94.5424C139.942 94.6472 139.938 94.7616 139.97 94.8687C140.001 94.9758 140.067 95.0698 140.156 95.137C140.187 95.16 140.222 95.1793 140.258 95.1943C140.491 95.2958 140.678 95.4794 140.785 95.7102C140.891 95.9409 140.909 96.2027 140.835 96.4458C140.823 96.4831 140.815 96.5216 140.812 96.5606C140.805 96.6722 140.834 96.7831 140.895 96.8767C140.956 96.9704 141.046 97.0419 141.151 97.0806C141.255 97.1193 141.37 97.1231 141.477 97.0914C141.584 97.0597 141.678 96.9943 141.745 96.9048C141.769 96.8731 141.788 96.8389 141.803 96.8028C141.904 96.5699 142.088 96.3824 142.319 96.276C142.549 96.1696 142.811 96.1517 143.054 96.2258C143.091 96.2379 143.13 96.2454 143.169 96.2483C143.28 96.2552 143.391 96.2259 143.485 96.1649C143.578 96.1039 143.65 96.0144 143.688 95.9096C143.727 95.8049 143.731 95.6904 143.699 95.5833C143.668 95.4762 143.602 95.3821 143.513 95.315C143.481 95.292 143.447 95.2727 143.411 95.2576Z" fill="#1A94FA"/>
<path d="M163.133 141.191C162.9 141.09 162.713 140.906 162.607 140.676C162.5 140.445 162.482 140.183 162.557 139.94C162.569 139.903 162.576 139.864 162.579 139.825C162.586 139.714 162.557 139.603 162.496 139.509C162.435 139.416 162.345 139.344 162.241 139.306C162.136 139.267 162.021 139.263 161.914 139.295C161.807 139.326 161.713 139.392 161.646 139.481C161.623 139.512 161.603 139.547 161.588 139.583C161.487 139.816 161.303 140.004 161.073 140.11C160.842 140.216 160.58 140.234 160.337 140.16C160.3 140.148 160.261 140.14 160.222 140.137C160.111 140.13 160 140.16 159.906 140.221C159.813 140.282 159.741 140.371 159.703 140.476C159.664 140.581 159.66 140.695 159.692 140.802C159.723 140.91 159.789 141.004 159.878 141.071C159.91 141.094 159.944 141.113 159.98 141.128C160.213 141.23 160.401 141.413 160.507 141.644C160.613 141.875 160.631 142.137 160.557 142.38C160.545 142.417 160.537 142.456 160.534 142.495C160.527 142.606 160.557 142.717 160.618 142.81C160.679 142.904 160.768 142.975 160.873 143.014C160.978 143.053 161.092 143.057 161.199 143.025C161.307 142.993 161.401 142.928 161.468 142.839C161.491 142.807 161.51 142.773 161.525 142.737C161.627 142.504 161.81 142.316 162.041 142.21C162.272 142.103 162.533 142.086 162.776 142.16C162.814 142.172 162.852 142.179 162.891 142.182C163.003 142.189 163.114 142.16 163.207 142.099C163.301 142.038 163.372 141.949 163.411 141.844C163.449 141.739 163.453 141.624 163.422 141.517C163.39 141.41 163.325 141.316 163.235 141.249C163.204 141.226 163.17 141.207 163.133 141.191Z" fill="#66B8FC"/>
<path d="M59.7309 114.421C59.498 114.319 59.3105 114.135 59.2041 113.905C59.0977 113.674 59.0799 113.412 59.1541 113.169C59.166 113.132 59.1735 113.093 59.1766 113.054C59.1835 112.943 59.1542 112.832 59.0932 112.739C59.0322 112.645 58.9427 112.574 58.8379 112.535C58.7332 112.496 58.6187 112.493 58.5116 112.524C58.4045 112.556 58.3104 112.621 58.2433 112.71C58.2202 112.742 58.201 112.776 58.1859 112.812C58.0845 113.045 57.901 113.233 57.6702 113.339C57.4395 113.445 57.1776 113.463 56.9346 113.389C56.8973 113.377 56.8588 113.369 56.8198 113.367C56.7083 113.36 56.5975 113.389 56.504 113.45C56.4104 113.511 56.339 113.6 56.3003 113.705C56.2617 113.81 56.2579 113.924 56.2895 114.032C56.3211 114.139 56.3864 114.233 56.4758 114.3C56.5073 114.323 56.5415 114.342 56.5776 114.357C56.8106 114.459 56.9981 114.642 57.1045 114.873C57.2109 115.104 57.2287 115.366 57.1546 115.609C57.1426 115.646 57.135 115.685 57.1319 115.724C57.1251 115.835 57.1543 115.946 57.2153 116.039C57.2763 116.133 57.3658 116.204 57.4706 116.243C57.5754 116.282 57.6898 116.285 57.7969 116.254C57.904 116.222 57.9981 116.157 58.0653 116.068C58.0883 116.036 58.1075 116.002 58.1226 115.966C58.224 115.733 58.4076 115.545 58.6383 115.439C58.8691 115.332 59.1309 115.315 59.3739 115.389C59.4112 115.401 59.4497 115.408 59.4888 115.411C59.6003 115.418 59.711 115.389 59.8046 115.328C59.8981 115.267 59.9695 115.178 60.0082 115.073C60.0468 114.968 60.0506 114.853 60.019 114.746C59.9874 114.639 59.9221 114.545 59.8328 114.478C59.8012 114.455 59.767 114.436 59.7309 114.421Z" fill="#66B8FC"/>
<path d="M102.868 97.9471C103.203 97.9472 103.53 97.8481 103.808 97.6623C104.086 97.4766 104.303 97.2125 104.431 96.9036C104.559 96.5946 104.592 96.2546 104.527 95.9266C104.462 95.5986 104.301 95.2973 104.064 95.0608C103.828 94.8243 103.527 94.6632 103.199 94.5979C102.871 94.5327 102.531 94.5661 102.222 94.6941C101.913 94.8221 101.649 95.0388 101.463 95.3169C101.277 95.5949 101.178 95.9218 101.178 96.2563C101.178 96.4783 101.221 96.6981 101.306 96.9033C101.391 97.1084 101.516 97.2948 101.673 97.4518C101.83 97.6088 102.016 97.7334 102.221 97.8183C102.426 97.9033 102.646 97.9471 102.868 97.9471Z" fill="#66B8FC"/>
<path d="M193.028 93.4383C193.363 93.4385 193.69 93.3394 193.968 93.1537C194.246 92.968 194.463 92.704 194.591 92.3951C194.719 92.0861 194.753 91.7461 194.688 91.4181C194.622 91.09 194.461 90.7887 194.225 90.5521C193.989 90.3156 193.687 90.1545 193.359 90.0892C193.031 90.0239 192.691 90.0573 192.382 90.1853C192.073 90.3133 191.809 90.53 191.623 90.8081C191.438 91.0862 191.338 91.4132 191.338 91.7476C191.338 91.9696 191.382 92.1894 191.467 92.3945C191.552 92.5996 191.676 92.786 191.833 92.943C191.99 93.1 192.176 93.2245 192.382 93.3095C192.587 93.3945 192.806 93.4383 193.028 93.4383Z" fill="#FF4D3E"/>
<path d="M61.7332 85.5477C62.0677 85.5477 62.3946 85.4486 62.6727 85.2629C62.9508 85.0771 63.1676 84.8131 63.2956 84.5041C63.4236 84.1951 63.4571 83.8551 63.3919 83.5271C63.3267 83.1991 63.1657 82.8978 62.9292 82.6613C62.6927 82.4248 62.3915 82.2638 62.0634 82.1985C61.7354 82.1333 61.3954 82.1667 61.0865 82.2947C60.7775 82.4227 60.5134 82.6395 60.3276 82.9176C60.1418 83.1956 60.0427 83.5226 60.0427 83.857C60.0427 84.079 60.0864 84.2989 60.1714 84.504C60.2563 84.7091 60.3808 84.8955 60.5378 85.0525C60.6948 85.2095 60.8812 85.334 61.0863 85.419C61.2914 85.5039 61.5112 85.5477 61.7332 85.5477Z" fill="#1A94FA"/>
<path d="M55.2317 162.392C57.6322 162.392 59.9788 161.681 61.9749 160.347C63.971 159.014 65.5268 157.119 66.4457 154.901C67.3646 152.684 67.6052 150.243 67.1371 147.889C66.669 145.535 65.5133 143.372 63.8161 141.674C62.1188 139.977 59.9563 138.821 57.6021 138.352C55.2478 137.884 52.8075 138.124 50.5897 139.043C48.372 139.961 46.4764 141.517 45.1428 143.513C43.8092 145.509 43.0974 147.855 43.0974 150.256C43.0973 151.849 43.411 153.427 44.0208 154.9C44.6305 156.372 45.5243 157.71 46.6511 158.837C47.7778 159.964 49.1156 160.858 50.5878 161.468C52.0601 162.078 53.6381 162.392 55.2317 162.392Z" fill="#B891FF"/>
<path d="M53.3885 159.78H49.7021V166.386H53.3885V159.78Z" fill="#B891FF"/>
<path d="M60.7613 159.78H57.075V166.386H60.7613V159.78Z" fill="#B891FF"/>
<path d="M52.7739 167.615C54.4706 167.615 55.8459 167.1 55.8459 166.463C55.8459 165.826 54.4706 165.311 52.7739 165.311C51.0772 165.311 49.7019 165.827 49.7019 166.463C49.7019 167.098 51.0774 167.615 52.7739 167.615Z" fill="#B891FF"/>
<path d="M60.147 167.462C61.8435 167.462 63.2188 166.945 63.2188 166.309C63.2188 165.674 61.8435 165.157 60.147 165.157C58.4505 165.157 57.075 165.674 57.075 166.309C57.075 166.945 58.4501 167.462 60.147 167.462Z" fill="#B891FF"/>
<path d="M68.3074 144.953C70.9352 142.322 72.3964 139.521 71.5707 138.696C70.7451 137.871 67.9456 139.334 65.3176 141.965C62.6896 144.595 61.2287 147.396 62.0544 148.221C62.8801 149.046 65.6796 147.584 68.3074 144.953Z" fill="#B891FF"/>
<path d="M45.451 149.067C46.2767 148.242 44.8157 145.441 42.1877 142.81C39.5597 140.18 36.7602 138.717 35.9347 139.542C35.1092 140.367 36.57 143.168 39.1979 145.798C41.8257 148.429 44.6254 149.892 45.451 149.067Z" fill="#B891FF"/>
<path d="M54.7211 152.683C55.5415 152.683 56.3435 152.44 57.0257 151.985C57.7079 151.529 58.2397 150.881 58.5537 150.123C58.8678 149.365 58.95 148.531 58.79 147.727C58.6301 146.922 58.2351 146.183 57.655 145.603C57.0749 145.023 56.3359 144.628 55.5313 144.467C54.7266 144.307 53.8926 144.389 53.1347 144.703C52.3767 145.017 51.7289 145.549 51.2731 146.231C50.8173 146.913 50.574 147.715 50.574 148.536C50.5739 149.08 50.6811 149.62 50.8895 150.123C51.0979 150.626 51.4034 151.083 51.7885 151.468C52.1736 151.854 52.6308 152.159 53.134 152.368C53.6372 152.576 54.1765 152.683 54.7211 152.683Z" fill="white"/>
<path d="M54.7211 149.918C54.9948 149.918 55.2624 149.837 55.49 149.685C55.7176 149.533 55.895 149.317 55.9998 149.064C56.1046 148.812 56.1321 148.533 56.0787 148.265C56.0254 147.997 55.8936 147.75 55.7001 147.557C55.5066 147.363 55.26 147.231 54.9916 147.178C54.7232 147.125 54.445 147.152 54.1922 147.257C53.9394 147.362 53.7233 147.539 53.5714 147.767C53.4195 147.994 53.3385 148.262 53.3386 148.536C53.3388 148.902 53.4846 149.254 53.7438 149.513C54.003 149.772 54.3545 149.918 54.7211 149.918Z" fill="#333333"/>
<path d="M58.0131 156.208C58.0765 156.556 58.0707 156.914 57.996 157.26C57.9213 157.606 57.7792 157.934 57.5777 158.226C57.3761 158.517 57.1192 158.766 56.8216 158.958C56.524 159.149 56.1914 159.281 55.843 159.344C55.4945 159.408 55.137 159.402 54.7908 159.327C54.4445 159.253 54.1164 159.111 53.8252 158.909C53.5339 158.708 53.2852 158.451 53.0932 158.153C52.9012 157.855 52.7697 157.523 52.7062 157.174L52.7052 157.169C52.4399 155.703 53.5732 155.184 55.0386 154.919C56.5039 154.654 57.7477 154.742 58.0131 156.208Z" fill="white"/>
<path d="M67.13 162.993C66.8569 162.993 66.595 163.102 66.4019 163.295C66.2087 163.488 66.1001 163.75 66.0999 164.023V166.176C66.1005 166.449 66.2092 166.711 66.4022 166.904C66.5952 167.097 66.8569 167.206 67.13 167.207H83.7054C83.9785 167.206 84.2401 167.097 84.4332 166.904C84.6262 166.711 84.7349 166.449 84.7355 166.176V164.023C84.7353 163.75 84.6266 163.488 84.4335 163.295C84.2404 163.102 83.9785 162.993 83.7054 162.993H67.13Z" fill="#FFBC43"/>
<path d="M76.6621 161.56C76.6113 161.53 76.5552 161.511 76.4971 161.504C76.4389 161.496 76.3798 161.5 76.3231 161.515C76.2665 161.53 76.2134 161.556 76.1668 161.592C76.1203 161.628 76.0813 161.672 76.0519 161.723L75.4353 162.79L74.8316 161.597C74.8051 161.544 74.7686 161.498 74.7241 161.459C74.6796 161.421 74.628 161.392 74.5723 161.374C74.5165 161.356 74.4577 161.348 74.3992 161.353C74.3407 161.357 74.2837 161.373 74.2314 161.4C74.179 161.426 74.1324 161.463 74.0942 161.507C74.056 161.552 74.0269 161.603 74.0086 161.659C73.9903 161.715 73.9832 161.774 73.9876 161.832C73.992 161.891 74.008 161.948 74.0344 162L74.5041 162.929H74.3333V167.269H76.6309V162.929H76.3881L76.8263 162.17C76.8855 162.067 76.9016 161.945 76.8709 161.831C76.8403 161.716 76.7654 161.619 76.6628 161.56H76.6621Z" fill="#FF4D3E"/>
<path d="M54.9192 142.296C52.7632 142.293 50.6199 141.966 48.5615 141.324C48.4185 141.278 48.2937 141.188 48.205 141.066C48.1163 140.945 48.0683 140.799 48.0679 140.648V135.708C48.0681 135.522 48.1424 135.343 48.2744 135.211C48.4064 135.078 48.5855 135.004 48.7722 135.004H61.1692C61.356 135.004 61.535 135.078 61.667 135.211C61.799 135.343 61.8733 135.522 61.8735 135.708V140.646C61.8737 140.797 61.825 140.945 61.7348 141.067C61.6445 141.188 61.5174 141.278 61.3724 141.322C59.2807 141.961 57.1064 142.289 54.9192 142.296Z" fill="#FF4D3E"/>
<path opacity="0.2" d="M61.7334 135.708V136.534L55.0249 138.887C54.8995 138.93 54.763 138.928 54.6389 138.881L48.2087 136.466V135.708C48.2091 135.559 48.2686 135.416 48.3742 135.31C48.4798 135.204 48.6229 135.145 48.7722 135.145H61.1692C61.3186 135.145 61.4617 135.204 61.5673 135.31C61.6729 135.416 61.7324 135.559 61.7327 135.708L61.7334 135.708Z" fill="black"/>
<path d="M54.8365 137.932C54.7519 137.932 54.668 137.917 54.5888 137.887L44.9808 134.279C44.8449 134.228 44.7281 134.136 44.6464 134.016C44.5646 133.896 44.5219 133.754 44.524 133.609C44.5262 133.464 44.5731 133.323 44.6584 133.206C44.7437 133.088 44.8632 133 45.0005 132.953L54.0407 129.86C54.1865 129.81 54.3444 129.81 54.4907 129.858L64.5802 133.222C64.7196 133.268 64.841 133.357 64.9274 133.476C65.0138 133.595 65.0609 133.738 65.062 133.885C65.0631 134.032 65.0183 134.175 64.9337 134.296C64.8491 134.416 64.729 134.507 64.5903 134.555L55.0687 137.893C54.9937 137.919 54.9148 137.932 54.8353 137.932L54.8365 137.932Z" fill="#FF4D3E"/>
<path d="M46.0956 137.681H45.8137V133.595H54.4071V133.877H46.0956V137.681Z" fill="#333333"/>
<path d="M45.9546 138.527C46.0661 138.527 46.1751 138.494 46.2678 138.432C46.3605 138.37 46.4328 138.282 46.4755 138.179C46.5182 138.076 46.5294 137.963 46.5076 137.853C46.4859 137.744 46.4322 137.643 46.3534 137.565C46.2746 137.486 46.1742 137.432 46.0648 137.41C45.9555 137.388 45.8421 137.4 45.7391 137.442C45.6361 137.485 45.5481 137.557 45.4861 137.65C45.4242 137.743 45.3911 137.852 45.3911 137.963C45.3911 138.113 45.4505 138.256 45.5562 138.362C45.6618 138.467 45.8052 138.527 45.9546 138.527Z" fill="#333333"/>
<path d="M125.388 162.392C127.788 162.392 130.135 161.681 132.131 160.347C134.127 159.014 135.683 157.119 136.602 154.901C137.521 152.684 137.761 150.243 137.293 147.889C136.825 145.535 135.669 143.372 133.972 141.674C132.275 139.977 130.112 138.821 127.758 138.352C125.404 137.884 122.963 138.124 120.746 139.043C118.528 139.961 116.632 141.517 115.299 143.513C113.965 145.509 113.253 147.855 113.253 150.256C113.253 151.849 113.567 153.427 114.177 154.9C114.787 156.372 115.68 157.71 116.807 158.837C117.934 159.964 119.272 160.858 120.744 161.468C122.216 162.078 123.794 162.392 125.388 162.392Z" fill="#B891FF"/>
<path d="M123.544 159.78H119.858V166.386H123.544V159.78Z" fill="#B891FF"/>
<path d="M130.917 159.78H127.231V166.386H130.917V159.78Z" fill="#B891FF"/>
<path d="M122.93 167.615C124.627 167.615 126.002 167.1 126.002 166.463C126.002 165.826 124.627 165.311 122.93 165.311C121.233 165.311 119.858 165.827 119.858 166.463C119.858 167.098 121.233 167.615 122.93 167.615Z" fill="#B891FF"/>
<path d="M130.303 167.462C131.999 167.462 133.375 166.945 133.375 166.309C133.375 165.674 131.999 165.157 130.303 165.157C128.606 165.157 127.231 165.674 127.231 166.309C127.231 166.945 128.606 167.462 130.303 167.462Z" fill="#B891FF"/>
<path d="M138.464 144.953C141.091 142.322 142.552 139.521 141.727 138.696C140.901 137.871 138.102 139.334 135.474 141.965C132.846 144.595 131.385 147.396 132.21 148.221C133.036 149.046 135.836 147.584 138.464 144.953Z" fill="#B891FF"/>
<path d="M114.557 156.218C116.677 153.163 117.619 150.147 116.661 149.482C115.702 148.816 113.206 150.752 111.085 153.806C108.965 156.861 108.023 159.877 108.982 160.542C109.941 161.208 112.437 159.272 114.557 156.218Z" fill="#B891FF"/>
<path d="M124.877 152.683C125.697 152.684 126.499 152.44 127.182 151.985C127.864 151.529 128.396 150.881 128.71 150.123C129.024 149.366 129.106 148.531 128.946 147.727C128.786 146.922 128.391 146.183 127.811 145.603C127.231 145.023 126.492 144.628 125.687 144.467C124.883 144.307 124.049 144.389 123.291 144.703C122.533 145.017 121.885 145.549 121.429 146.231C120.973 146.913 120.73 147.715 120.73 148.536C120.73 149.08 120.837 149.62 121.046 150.123C121.254 150.626 121.559 151.083 121.944 151.468C122.329 151.854 122.787 152.159 123.29 152.368C123.793 152.576 124.332 152.683 124.877 152.683Z" fill="white"/>
<path d="M126.286 148.509C126.56 148.509 126.827 148.428 127.055 148.276C127.282 148.124 127.46 147.908 127.565 147.656C127.669 147.403 127.697 147.125 127.644 146.856C127.591 146.588 127.459 146.341 127.265 146.148C127.072 145.954 126.826 145.822 126.557 145.769C126.289 145.715 126.011 145.743 125.758 145.847C125.505 145.952 125.289 146.129 125.137 146.357C124.985 146.584 124.904 146.852 124.904 147.126C124.903 147.307 124.939 147.487 125.008 147.655C125.078 147.823 125.18 147.975 125.308 148.104C125.436 148.232 125.589 148.334 125.757 148.404C125.924 148.473 126.104 148.509 126.286 148.509Z" fill="#333333"/>
<path d="M129.849 156.207C130.256 157.673 128.774 159.077 126.539 159.344C124.305 159.611 122.163 158.639 121.756 157.173L121.755 157.168C121.35 155.701 123.078 155.183 125.313 154.918C127.549 154.653 129.445 154.741 129.849 156.207Z" fill="white"/>
<path d="M121.142 143.113C119.141 143.915 117.03 144.411 114.881 144.584C114.731 144.594 114.582 144.557 114.454 144.478C114.327 144.398 114.227 144.28 114.171 144.141L112.328 139.558C112.259 139.385 112.261 139.191 112.334 139.019C112.407 138.847 112.546 138.711 112.719 138.641L124.221 134.016C124.394 133.946 124.588 133.948 124.76 134.021C124.932 134.095 125.068 134.233 125.138 134.406L126.979 138.987C127.036 139.128 127.046 139.283 127.007 139.429C126.969 139.576 126.885 139.706 126.766 139.801C125.064 141.175 123.169 142.291 121.142 143.113L121.142 143.113Z" fill="#FF4D3E"/>
<path opacity="0.2" d="M125.007 134.46L125.315 135.226L119.968 139.912C119.868 139.999 119.74 140.048 119.608 140.051L112.741 140.209L112.458 139.506C112.403 139.367 112.404 139.212 112.463 139.075C112.522 138.937 112.632 138.829 112.771 138.772L124.273 134.147C124.411 134.091 124.566 134.093 124.704 134.152C124.841 134.21 124.95 134.321 125.006 134.459L125.007 134.46Z" fill="black"/>
<path d="M119.438 139.096C119.359 139.127 119.276 139.144 119.191 139.146L108.931 139.383C108.786 139.387 108.643 139.345 108.523 139.265C108.402 139.184 108.309 139.068 108.257 138.932C108.205 138.797 108.196 138.649 108.231 138.508C108.267 138.367 108.345 138.241 108.454 138.146L115.688 131.903C115.805 131.803 115.951 131.743 116.104 131.733L126.721 131.089C126.868 131.08 127.014 131.118 127.138 131.196C127.262 131.274 127.359 131.389 127.415 131.525C127.471 131.661 127.483 131.811 127.449 131.954C127.416 132.097 127.338 132.226 127.228 132.323L119.639 138.972C119.579 139.025 119.511 139.066 119.437 139.096H119.438Z" fill="#FF4D3E"/>
<path d="M111.234 142.124L110.973 142.229L109.449 138.438L117.422 135.231L117.527 135.493L109.815 138.594L111.234 142.124Z" fill="#333333"/>
<path d="M111.209 143.001C111.32 143.001 111.429 142.968 111.522 142.906C111.614 142.845 111.687 142.756 111.729 142.653C111.772 142.55 111.783 142.437 111.762 142.328C111.74 142.218 111.686 142.118 111.607 142.039C111.528 141.96 111.428 141.907 111.319 141.885C111.209 141.863 111.096 141.874 110.993 141.917C110.89 141.96 110.802 142.032 110.74 142.125C110.678 142.217 110.645 142.326 110.645 142.438C110.645 142.587 110.704 142.731 110.81 142.836C110.916 142.942 111.059 143.001 111.209 143.001Z" fill="#333333"/>
<path d="M171.583 121.582C169.754 120.44 168.107 119.029 166.698 117.396C166.602 117.281 166.544 117.138 166.533 116.989C166.522 116.839 166.558 116.689 166.637 116.561L169.248 112.368C169.347 112.21 169.505 112.097 169.687 112.054C169.869 112.012 170.06 112.044 170.218 112.142L180.742 118.696C180.9 118.795 181.013 118.952 181.055 119.135C181.097 119.317 181.066 119.508 180.967 119.667L178.358 123.858C178.278 123.987 178.159 124.086 178.018 124.142C177.877 124.197 177.721 124.206 177.575 124.167C175.462 123.604 173.443 122.733 171.583 121.582V121.582Z" fill="#FF4D3E"/>
<path opacity="0.2" d="M180.848 119.592L180.412 120.293L173.473 118.744C173.344 118.715 173.229 118.641 173.148 118.535L168.967 113.086L169.367 112.442C169.446 112.316 169.573 112.226 169.718 112.192C169.864 112.159 170.016 112.184 170.143 112.262L180.667 118.815C180.794 118.894 180.884 119.02 180.918 119.166C180.952 119.312 180.927 119.465 180.848 119.592Z" fill="black"/>
<path d="M173.818 117.833C173.747 117.788 173.683 117.731 173.632 117.664L167.382 109.522C167.316 109.436 167.27 109.336 167.249 109.229C167.228 109.123 167.232 109.013 167.261 108.908C167.289 108.803 167.342 108.707 167.414 108.625C167.486 108.544 167.576 108.481 167.677 108.44C167.811 108.386 167.959 108.374 168.1 108.407L177.408 110.56C177.558 110.595 177.693 110.678 177.792 110.797L184.58 118.986C184.674 119.099 184.729 119.239 184.74 119.385C184.75 119.532 184.714 119.678 184.638 119.803C184.561 119.928 184.447 120.027 184.312 120.084C184.176 120.141 184.027 120.155 183.883 120.123L174.037 117.923C173.959 117.906 173.886 117.875 173.818 117.833Z" fill="#FF4D3E"/>
<path d="M166.531 113L166.292 112.851L168.452 109.383L175.747 113.926L175.597 114.165L168.542 109.771L166.531 113Z" fill="#333333"/>
<path d="M166.262 113.728C166.374 113.728 166.483 113.695 166.575 113.633C166.668 113.571 166.74 113.483 166.783 113.38C166.826 113.277 166.837 113.164 166.815 113.054C166.794 112.945 166.74 112.845 166.661 112.766C166.582 112.687 166.482 112.633 166.372 112.611C166.263 112.59 166.15 112.601 166.047 112.643C165.944 112.686 165.856 112.758 165.794 112.851C165.732 112.944 165.699 113.053 165.699 113.164C165.699 113.314 165.758 113.457 165.864 113.563C165.97 113.668 166.113 113.728 166.262 113.728Z" fill="#333333"/>
<path d="M200.938 148.583C203.339 148.584 205.685 147.873 207.682 146.539C209.678 145.206 211.234 143.311 212.153 141.093C213.072 138.876 213.313 136.435 212.845 134.081C212.377 131.727 211.221 129.564 209.524 127.866C207.827 126.169 205.664 125.012 203.31 124.544C200.956 124.075 198.515 124.316 196.298 125.234C194.08 126.153 192.184 127.708 190.85 129.704C189.517 131.7 188.805 134.046 188.805 136.447C188.805 139.665 190.083 142.752 192.358 145.028C194.634 147.304 197.72 148.583 200.938 148.583Z" fill="#B891FF"/>
<path d="M209.35 142.74L206.205 144.663L209.65 150.3L212.795 148.377L209.35 142.74Z" fill="#B891FF"/>
<path d="M203.06 146.586L199.915 148.509L203.358 154.145L206.503 152.222L203.06 146.586Z" fill="#B891FF"/>
<path d="M210.815 151.027C212.262 150.142 213.167 148.985 212.835 148.442C212.503 147.899 211.06 148.175 209.613 149.061C208.167 149.947 207.26 151.103 207.592 151.646C207.923 152.189 209.367 151.912 210.815 151.027Z" fill="#B891FF"/>
<path d="M204.443 154.742C205.892 153.857 206.795 152.7 206.463 152.157C206.132 151.614 204.69 151.89 203.242 152.776C201.793 153.662 200.89 154.818 201.222 155.361C201.553 155.904 202.995 155.627 204.443 154.742Z" fill="#B891FF"/>
<path d="M194.115 134.413C194.942 133.588 193.48 130.786 190.852 128.156C188.223 125.526 185.425 124.062 184.6 124.887C183.775 125.713 185.235 128.514 187.863 131.144C190.492 133.774 193.29 135.238 194.115 134.413Z" fill="#B891FF"/>
<path d="M217.345 146.735C218.303 146.069 217.362 143.053 215.242 139.999C213.122 136.944 210.625 135.008 209.665 135.674C208.705 136.34 209.648 139.356 211.768 142.41C213.888 145.464 216.385 147.4 217.345 146.735Z" fill="#B891FF"/>
<path d="M197.223 137.184C198.044 137.184 198.846 136.941 199.528 136.485C200.21 136.029 200.741 135.381 201.055 134.623C201.369 133.866 201.451 133.032 201.291 132.227C201.131 131.422 200.736 130.683 200.156 130.103C199.575 129.523 198.836 129.128 198.032 128.968C197.227 128.808 196.393 128.891 195.635 129.204C194.877 129.518 194.23 130.05 193.774 130.732C193.318 131.414 193.075 132.216 193.075 133.037C193.075 133.581 193.182 134.121 193.391 134.624C193.599 135.127 193.905 135.585 194.29 135.97C194.675 136.355 195.132 136.66 195.636 136.869C196.139 137.077 196.679 137.184 197.223 137.184Z" fill="white"/>
<path d="M195.813 133.011C196.087 133.011 196.355 132.93 196.582 132.778C196.81 132.627 196.988 132.411 197.093 132.158C197.197 131.905 197.225 131.627 197.172 131.359C197.119 131.09 196.987 130.844 196.794 130.65C196.6 130.456 196.354 130.324 196.085 130.271C195.817 130.217 195.539 130.245 195.286 130.349C195.033 130.454 194.817 130.631 194.665 130.859C194.513 131.086 194.432 131.354 194.432 131.627C194.432 131.994 194.577 132.346 194.836 132.605C195.095 132.864 195.447 133.01 195.813 133.011Z" fill="#333333"/>
<path d="M191.882 139.956C191.097 141.245 192.143 142.988 194.223 143.85C196.303 144.712 198.625 144.367 199.41 143.077L199.413 143.073C200.198 141.783 198.675 140.818 196.595 139.958C194.515 139.097 192.667 138.667 191.882 139.956Z" fill="white"/>
<path d="M196.867 121.209C197.95 116.844 202.733 114.276 207.55 115.472C212.367 116.668 215.392 121.176 214.308 125.54C213.225 129.904 209.63 129.918 204.813 128.722C199.997 127.526 195.783 125.573 196.867 121.209Z" fill="#FF887F"/>
<path d="M239.052 167.833H11.1149C11.0402 167.833 10.9686 167.803 10.9157 167.75C10.8629 167.698 10.8333 167.626 10.8333 167.551C10.8333 167.476 10.8629 167.405 10.9157 167.352C10.9686 167.299 11.0402 167.27 11.1149 167.27H239.052C239.126 167.27 239.198 167.299 239.251 167.352C239.304 167.405 239.333 167.476 239.333 167.551C239.333 167.626 239.304 167.698 239.251 167.75C239.198 167.803 239.126 167.833 239.052 167.833Z" fill="black"/>
<path d="M80.9062 125V103.901H92.9479V75.8978H112.2V56.8691H128.359V75.8978H146.195V97.8302H163.109V125" stroke="#333333" stroke-width="3"/>
</g>
</g>
<defs>
<clipPath id="clip0_35_473">
<rect width="250" height="250" fill="white"/>
</clipPath>
</defs>
</svg>
