<svg width="250" height="250" viewBox="0 0 250 250" fill="none" xmlns="http://www.w3.org/2000/svg">
<path d="M122.375 218.333C179.905 218.333 226.542 171.696 226.542 114.167C226.542 56.637 179.905 10 122.375 10C64.8454 10 18.2084 56.637 18.2084 114.167C18.2084 171.696 64.8454 218.333 122.375 218.333Z" fill="#F2F2F2"/>
<path d="M164.042 106.114L194.25 96.3019L226.422 119.687C226.526 117.864 226.578 116.042 226.578 114.167C226.61 90.2722 218.371 67.1033 203.26 48.5936L190.948 86.4113L156.281 97.6717L127.583 76.8384V40.3228L159.771 16.9269C135.696 7.69102 109.054 7.69102 84.9791 16.9269L117.167 40.3228V76.8228L88.4687 97.6561L53.802 86.3957L41.4895 48.5936C26.3921 67.1083 18.1663 90.2767 18.2083 114.167C18.2083 116.042 18.2604 117.864 18.3645 119.687L50.5364 96.3019L80.7447 106.114C80.7492 106.611 80.8264 107.104 80.9739 107.578L93.25 145.417L74.7656 170.833H35.0312C49.0216 192.494 70.5797 208.166 95.5 214.792L83.1979 176.953L99.8645 154.036H144.927L161.594 176.953L149.25 214.792C174.17 208.166 195.728 192.494 209.719 170.833H169.984L151.5 145.417L163.786 107.604C163.945 107.123 164.031 106.621 164.042 106.114Z" fill="#333333"/>
<path d="M233.213 182.124C223.39 170.615 211.188 161.373 197.448 155.036C183.707 148.699 168.756 145.417 153.625 145.417C138.494 145.417 123.542 148.699 109.802 155.036C96.0618 161.373 83.8595 170.615 74.0364 182.124C71.6432 184.967 70.3308 188.564 70.3308 192.281C70.3308 195.997 71.6432 199.594 74.0364 202.437C83.8595 213.946 96.0618 223.188 109.802 229.525C123.542 235.862 138.494 239.144 153.625 239.144C168.756 239.144 183.707 235.862 197.448 229.525C211.188 223.188 223.39 213.946 233.213 202.437C235.607 199.594 236.919 195.997 236.919 192.281C236.919 188.564 235.607 184.967 233.213 182.124Z" fill="#FFAB14"/>
<path d="M101.542 192.291C101.55 202.33 99.4752 212.262 95.4479 221.458C98.33 223.43 101.321 225.239 104.406 226.875C109.382 216.024 111.958 204.228 111.958 192.291C111.958 180.354 109.382 168.558 104.406 157.708C101.321 159.344 98.33 161.152 95.4479 163.125C99.4752 172.321 101.55 182.252 101.542 192.291Z" fill="#F2F2F2"/>
<path d="M205.708 192.291C205.7 202.33 207.775 212.262 211.802 221.458C208.92 223.43 205.929 225.239 202.844 226.875C197.868 216.024 195.292 204.228 195.292 192.291C195.292 180.354 197.868 168.558 202.844 157.708C205.929 159.344 208.92 161.152 211.802 163.125C207.775 172.321 205.7 182.252 205.708 192.291Z" fill="#F2F2F2"/>
<path d="M174.458 187.083H169.25V181.874C169.25 180.493 168.701 179.168 167.725 178.191C166.748 177.215 165.423 176.666 164.042 176.666C162.66 176.666 161.336 177.215 160.359 178.191C159.382 179.168 158.833 180.493 158.833 181.874V187.083H148.417V181.874C148.417 180.493 147.868 179.168 146.891 178.191C145.915 177.215 144.59 176.666 143.208 176.666C141.827 176.666 140.502 177.215 139.526 178.191C138.549 179.168 138 180.493 138 181.874V187.083H132.792C131.41 187.083 130.086 187.631 129.109 188.608C128.132 189.585 127.583 190.91 127.583 192.291C127.583 193.672 128.132 194.997 129.109 195.974C130.086 196.951 131.41 197.499 132.792 197.499H138V202.708C138 204.089 138.549 205.414 139.526 206.391C140.502 207.367 141.827 207.916 143.208 207.916C144.59 207.916 145.915 207.367 146.891 206.391C147.868 205.414 148.417 204.089 148.417 202.708V197.499H158.833V202.708C158.833 204.089 159.382 205.414 160.359 206.391C161.336 207.367 162.66 207.916 164.042 207.916C165.423 207.916 166.748 207.367 167.725 206.391C168.701 205.414 169.25 204.089 169.25 202.708V197.499H174.458C175.84 197.499 177.165 196.951 178.141 195.974C179.118 194.997 179.667 193.672 179.667 192.291C179.667 190.91 179.118 189.585 178.141 188.608C177.165 187.631 175.84 187.083 174.458 187.083Z" fill="#F2F2F2"/>
<path d="M52.0625 233.958C73.6361 233.958 91.125 216.469 91.125 194.896C91.125 173.322 73.6361 155.833 52.0625 155.833C30.4889 155.833 13 173.322 13 194.896C13 216.469 30.4889 233.958 52.0625 233.958Z" fill="#00D468"/>
<path d="M44.6979 187.531C40.6235 191.627 35.6836 194.758 30.2408 196.695C24.798 198.632 18.9905 199.325 13.2448 198.724C13.097 197.453 13.024 196.175 13.026 194.896C13.0075 192.682 13.217 190.473 13.651 188.302C17.9572 188.837 22.3286 188.382 26.4324 186.972C30.5362 185.562 34.2642 183.234 37.3325 180.166C40.4008 177.098 42.7286 173.37 44.1385 169.266C45.5484 165.162 46.0034 160.791 45.4687 156.485C47.6394 156.05 49.8489 155.841 52.0625 155.86C53.3417 155.857 54.6199 155.931 55.8906 156.078C56.4918 161.824 55.7985 167.632 53.8616 173.074C51.9248 178.517 48.7936 183.457 44.6979 187.531Z" fill="#F2F2F2"/>
<path d="M58.6563 233.307C56.4865 233.749 54.277 233.968 52.0625 233.958C50.7833 233.96 49.5051 233.887 48.2344 233.739C47.6488 227.994 48.3494 222.191 50.2855 216.751C52.2215 211.311 55.3445 206.37 59.4277 202.286C63.5109 198.203 68.4519 195.08 73.8922 193.144C79.3324 191.208 85.1355 190.508 90.8802 191.093C91.0357 192.355 91.1174 193.624 91.125 194.895C91.1435 197.109 90.9341 199.318 90.5 201.489C86.1938 200.954 81.8224 201.409 77.7186 202.819C73.6148 204.229 69.8869 206.557 66.8185 209.625C63.7502 212.694 61.4225 216.422 60.0126 220.525C58.6026 224.629 58.1477 229.001 58.6823 233.307H58.6563Z" fill="#F2F2F2"/>
</svg>
