<svg width="250" height="250" viewBox="0 0 250 250" fill="none" xmlns="http://www.w3.org/2000/svg">
<path d="M103.917 88.1289V98.5455H67.4583V88.1289C63.4152 88.2198 59.5008 86.705 56.5723 83.9161C53.6438 81.1271 51.9397 77.2913 51.8333 73.2487V24.8841C51.9397 20.8414 53.6438 17.0056 56.5723 14.2167C59.5008 11.4278 63.4152 9.91291 67.4583 10.0039H103.917C107.96 9.91291 111.874 11.4278 114.803 14.2167C117.731 17.0056 119.435 20.8414 119.542 24.8841V73.2487C119.435 77.2913 117.731 81.1271 114.803 83.9161C111.874 86.705 107.96 88.2198 103.917 88.1289Z" fill="#FF45C3"/>
<path d="M67.4583 20.4201C66.1779 20.3307 64.9137 20.7488 63.9391 21.5841C62.9645 22.4193 62.3577 23.6046 62.25 24.8836V73.2482C62.3577 74.5272 62.9645 75.7125 63.9391 76.5477C64.9137 77.383 66.1779 77.8011 67.4583 77.7117H103.917C105.197 77.8011 106.461 77.383 107.436 76.5477C108.411 75.7125 109.017 74.5272 109.125 73.2482V24.8836C109.017 23.6046 108.411 22.4193 107.436 21.5841C106.461 20.7488 105.197 20.3307 103.917 20.4201H67.4583Z" fill="#CCE7FE"/>
<path d="M95.026 50.1441L83.0833 62.0868L76.349 55.3524C75.3723 54.376 74.0477 53.8275 72.6667 53.8275C71.2856 53.8275 69.9611 54.376 68.9844 55.3524L62.25 62.0868V73.2482C62.3577 74.5273 62.9645 75.7125 63.9391 76.5478C64.9137 77.383 66.1779 77.8012 67.4583 77.7118H103.917C105.197 77.8012 106.461 77.383 107.436 76.5478C108.411 75.7125 109.017 74.5273 109.125 73.2482V56.8784L102.391 50.1441C101.414 49.1677 100.089 48.6191 98.7083 48.6191C97.3273 48.6191 96.0027 49.1677 95.026 50.1441Z" fill="#00D468"/>
<path d="M163.667 55.7696C164.514 51.0296 165.984 46.4222 168.036 42.0665C169.501 38.9372 171.244 35.946 173.245 33.129C176.728 28.2044 181.13 23.999 186.208 20.7436C186.959 20.2614 187.82 19.9774 188.71 19.918C189.601 19.8586 190.491 20.0257 191.3 20.4038C192.108 20.782 192.807 21.3587 193.332 22.0803C193.857 22.8018 194.191 23.6446 194.302 24.53C195.056 30.5099 194.65 36.5793 193.104 42.405C192.23 45.7518 191.057 49.0132 189.599 52.1498C187.57 56.5169 184.977 60.5987 181.885 64.2904L163.667 55.7696Z" fill="#1AD877"/>
<path d="M168.646 55.7696C167.798 51.0296 166.329 46.4222 164.276 42.0665C162.813 38.9362 161.07 35.9448 159.068 33.129C155.584 28.2044 151.182 23.999 146.104 20.7436C145.353 20.2614 144.492 19.9774 143.602 19.918C142.712 19.8586 141.821 20.0257 141.013 20.4038C140.204 20.782 139.505 21.3587 138.98 22.0803C138.455 22.8018 138.121 23.6446 138.01 24.53C137.258 30.51 137.665 36.5788 139.208 42.405C140.087 45.7504 141.26 49.0114 142.713 52.1498C144.744 56.5157 147.337 60.5973 150.427 64.2904L168.646 55.7696Z" fill="#1AD877"/>
<path d="M156.359 53.7541C155.12 49.1023 154.499 44.3077 154.51 39.4937C154.525 36.0307 154.849 32.576 155.479 29.1708C156.549 23.2385 158.75 17.5676 161.964 12.4676C162.439 11.7123 163.099 11.0899 163.88 10.6586C164.662 10.2272 165.54 10.001 166.432 10.001C167.325 10.001 168.203 10.2272 168.984 10.6586C169.766 11.0899 170.425 11.7123 170.901 12.4676C174.104 17.5699 176.294 23.2407 177.354 29.1708C177.978 32.5731 178.297 36.0243 178.307 39.4833C178.319 44.2972 177.697 49.0919 176.458 53.7437L156.359 53.7541Z" fill="#66E5A4"/>
<path d="M187.25 46.4619H145.583C142.821 46.4619 140.171 47.5594 138.218 49.5129C136.264 51.4664 135.167 54.1159 135.167 56.8786V67.2952C135.167 72.8206 137.362 78.1196 141.269 82.0266C145.176 85.9336 150.475 88.1286 156 88.1286V98.5452H176.833V88.1286C182.359 88.1286 187.658 85.9336 191.565 82.0266C195.472 78.1196 197.667 72.8206 197.667 67.2952V56.8786C197.667 54.1159 196.569 51.4664 194.616 49.5129C192.662 47.5594 190.013 46.4619 187.25 46.4619Z" fill="white"/>
<path d="M103.917 145.421H93.5001C90.7374 145.421 88.0879 146.518 86.1344 148.472C84.1809 150.425 83.0834 153.075 83.0834 155.838H72.6667V207.921H83.0834C83.0834 210.684 84.1809 213.333 86.1344 215.287C88.0879 217.24 90.7374 218.338 93.5001 218.338H103.917C106.679 218.338 109.329 217.24 111.282 215.287C113.236 213.333 114.333 210.684 114.333 207.921H124.75V155.838H114.333C114.333 153.075 113.236 150.425 111.282 148.472C109.329 146.518 106.679 145.421 103.917 145.421Z" fill="#DCC8FF"/>
<path d="M114.333 161.046H83.0833V171.463H114.333V161.046Z" fill="url(#paint0_linear_101_4495)"/>
<path d="M135.167 135.004H124.75C118.997 135.004 114.333 139.668 114.333 145.421V207.921C114.333 213.674 118.997 218.337 124.75 218.337H135.167C140.92 218.337 145.583 213.674 145.583 207.921V145.421C145.583 139.668 140.92 135.004 135.167 135.004Z" fill="#4DACFB"/>
<path d="M145.583 150.629H114.333V161.046H145.583V150.629Z" fill="url(#paint1_linear_101_4495)"/>
<path d="M72.6666 135.004H62.2499C56.497 135.004 51.8333 139.668 51.8333 145.421V207.921C51.8333 213.674 56.497 218.337 62.2499 218.337H72.6666C78.4196 218.337 83.0833 213.674 83.0833 207.921V145.421C83.0833 139.668 78.4196 135.004 72.6666 135.004Z" fill="#FF73D2"/>
<path d="M83.0833 150.629H51.8333V161.046H83.0833V150.629Z" fill="url(#paint2_linear_101_4495)"/>
<path d="M189.276 221.738H167.708C166.562 221.739 165.447 221.36 164.538 220.663C163.628 219.965 162.974 218.986 162.677 217.879L145.932 155.379C145.578 154.058 145.487 152.679 145.665 151.323C145.844 149.966 146.288 148.658 146.971 147.473C147.655 146.288 148.566 145.25 149.651 144.417C150.737 143.584 151.975 142.973 153.297 142.619L163.359 139.926C164.681 139.572 166.059 139.481 167.416 139.659C168.772 139.837 170.08 140.281 171.265 140.965C172.45 141.649 173.489 142.56 174.322 143.645C175.155 144.73 175.766 145.969 176.12 147.291L194.307 215.176C194.514 215.948 194.541 216.757 194.385 217.54C194.229 218.324 193.895 219.062 193.409 219.695C192.922 220.329 192.297 220.843 191.58 221.196C190.863 221.55 190.075 221.739 189.276 221.738Z" fill="#FF887F"/>
<path d="M151.135 174.785L181.255 166.467L177.937 154.087L147.818 162.41L151.135 174.785Z" fill="url(#paint3_linear_101_4495)"/>
<path d="M176.833 103.754V119.379C176.833 120.76 177.382 122.085 178.359 123.062C179.335 124.039 180.66 124.587 182.042 124.587H192.458C193.84 124.587 195.164 124.039 196.141 123.062C197.118 122.085 197.667 120.76 197.667 119.379V103.754H176.833Z" fill="#333333"/>
<path d="M51.8333 103.754V119.379C51.8333 120.76 52.382 122.085 53.3587 123.062C54.3355 124.039 55.6602 124.587 57.0416 124.587H67.4583C68.8396 124.587 70.1643 124.039 71.1411 123.062C72.1179 122.085 72.6666 120.76 72.6666 119.379V103.754H51.8333Z" fill="#333333"/>
<path d="M208.083 88.1289H41.4167C38.654 88.1289 36.0045 89.2264 34.051 91.1799C32.0975 93.1334 31 95.7829 31 98.5456C31 101.308 32.0975 103.958 34.051 105.911C36.0045 107.865 38.654 108.962 41.4167 108.962H208.083C210.846 108.962 213.496 107.865 215.449 105.911C217.403 103.958 218.5 101.308 218.5 98.5456C218.5 95.7829 217.403 93.1334 215.449 91.1799C213.496 89.2264 210.846 88.1289 208.083 88.1289Z" fill="#666666"/>
<path d="M176.833 218.337V233.962C176.833 235.343 177.382 236.668 178.359 237.645C179.335 238.622 180.66 239.17 182.042 239.17H192.458C193.84 239.17 195.164 238.622 196.141 237.645C197.118 236.668 197.667 235.343 197.667 233.962V218.337H176.833Z" fill="#333333"/>
<path d="M51.8333 218.337V233.962C51.8333 235.343 52.382 236.668 53.3587 237.645C54.3355 238.622 55.6602 239.17 57.0416 239.17H67.4583C68.8396 239.17 70.1643 238.622 71.1411 237.645C72.1179 236.668 72.6666 235.343 72.6666 233.962V218.337H51.8333Z" fill="#333333"/>
<path d="M208.083 202.712H41.4167C38.654 202.712 36.0045 203.809 34.051 205.763C32.0975 207.716 31 210.366 31 213.129C31 215.891 32.0975 218.541 34.051 220.494C36.0045 222.448 38.654 223.545 41.4167 223.545H208.083C210.846 223.545 213.496 222.448 215.449 220.494C217.403 218.541 218.5 215.891 218.5 213.129C218.5 210.366 217.403 207.716 215.449 205.763C213.496 203.809 210.846 202.712 208.083 202.712Z" fill="#666666"/>
<defs>
<linearGradient id="paint0_linear_101_4495" x1="83.0833" y1="166.254" x2="114.333" y2="166.254" gradientUnits="userSpaceOnUse">
<stop stop-color="white"/>
<stop offset="1" stop-color="#F2EBE6"/>
</linearGradient>
<linearGradient id="paint1_linear_101_4495" x1="113.823" y1="155.837" x2="144.375" y2="155.837" gradientUnits="userSpaceOnUse">
<stop stop-color="white"/>
<stop offset="1" stop-color="#F2EDED"/>
</linearGradient>
<linearGradient id="paint2_linear_101_4495" x1="51.8333" y1="155.837" x2="83.0833" y2="155.837" gradientUnits="userSpaceOnUse">
<stop stop-color="white"/>
<stop offset="1" stop-color="#EDF2F0"/>
</linearGradient>
<linearGradient id="paint3_linear_101_4495" x1="179.792" y1="159.842" x2="149.239" y2="169.045" gradientUnits="userSpaceOnUse">
<stop stop-color="white"/>
<stop offset="1" stop-color="#EDF1F2"/>
</linearGradient>
</defs>
</svg>
