<svg width="250" height="250" viewBox="0 0 250 250" fill="none" xmlns="http://www.w3.org/2000/svg">
<g clip-path="url(#clip0_101_4043)">
<path d="M166.667 145.75H83.3333C81.952 145.75 80.6272 145.201 79.6505 144.224C78.6737 143.247 78.125 141.923 78.125 140.541V109.291C78.125 107.91 78.6737 106.585 79.6505 105.608C80.6272 104.632 81.952 104.083 83.3333 104.083H166.667C168.048 104.083 169.373 104.632 170.35 105.608C171.326 106.585 171.875 107.91 171.875 109.291V140.541C171.875 141.923 171.326 143.247 170.35 144.224C169.373 145.201 168.048 145.75 166.667 145.75Z" fill="#333333"/>
<path d="M223.958 156.166C222.577 156.166 221.252 155.618 220.275 154.641C219.299 153.664 218.75 152.339 218.75 150.958V98.8748C218.75 97.9869 218.976 97.1137 219.408 96.338C219.84 95.5623 220.463 94.9099 221.219 94.4429C221.974 93.9758 222.836 93.7096 223.723 93.6694C224.61 93.6292 225.492 93.8165 226.286 94.2134L241.365 101.755C243.966 103.045 246.153 105.038 247.679 107.508C249.206 109.978 250.01 112.826 250 115.729V134.104C250.01 137.007 249.206 139.855 247.679 142.325C246.153 144.795 243.966 146.788 241.365 148.078L226.286 155.646C225.561 155.997 224.764 156.175 223.958 156.166Z" fill="#666666"/>
<path d="M213.542 177H192.708C191.327 177 190.002 176.451 189.025 175.474C188.049 174.497 187.5 173.173 187.5 171.791V78.0413C187.5 76.66 188.049 75.3352 189.025 74.3585C190.002 73.3817 191.327 72.833 192.708 72.833H213.542C217.686 72.833 221.66 74.4792 224.59 77.4095C227.52 80.3397 229.167 84.314 229.167 88.458V161.375C229.167 165.519 227.52 169.493 224.59 172.423C221.66 175.353 217.686 177 213.542 177Z" fill="#999999"/>
<path d="M187.5 197.833H171.875C167.731 197.833 163.757 196.187 160.826 193.257C157.896 190.327 156.25 186.352 156.25 182.208V67.625C156.25 63.481 157.896 59.5067 160.826 56.5765C163.757 53.6462 167.731 52 171.875 52H187.5C191.644 52 195.618 53.6462 198.549 56.5765C201.479 59.5067 203.125 63.481 203.125 67.625V182.208C203.125 186.352 201.479 190.327 198.549 193.257C195.618 196.187 191.644 197.833 187.5 197.833Z" fill="#CCCCCC"/>
<path d="M23.7136 155.645L8.6355 148.078C6.03455 146.788 3.84698 144.795 2.32073 142.325C0.794471 139.855 -0.00944691 137.007 8.37672e-05 134.104V115.729C-0.00944691 112.825 0.794471 109.977 2.32073 107.508C3.84698 105.038 6.03455 103.045 8.6355 101.755L23.7397 94.2131C24.5329 93.8223 25.4127 93.6398 26.2959 93.683C27.1792 93.7261 28.037 93.9935 28.7884 94.4598C29.5397 94.9262 30.16 95.5762 30.5907 96.3486C31.0214 97.1209 31.2483 97.9903 31.2501 98.8746V150.958C31.2505 151.846 31.0239 152.719 30.5919 153.495C30.1598 154.27 29.5366 154.923 28.7815 155.39C28.0264 155.857 27.1644 156.123 26.2774 156.163C25.3904 156.204 24.5079 156.016 23.7136 155.619V155.645Z" fill="#666666"/>
<path d="M20.8334 161.375V88.458C20.8334 84.314 22.4796 80.3397 25.4098 77.4095C28.3401 74.4792 32.3144 72.833 36.4584 72.833H57.2917C58.673 72.833 59.9978 73.3817 60.9746 74.3585C61.9513 75.3352 62.5 76.66 62.5 78.0413V171.791C62.5 173.173 61.9513 174.497 60.9746 175.474C59.9978 176.451 58.673 177 57.2917 177H36.4584C32.3144 177 28.3401 175.353 25.4098 172.423C22.4796 169.493 20.8334 165.519 20.8334 161.375Z" fill="#999999"/>
<path d="M46.875 182.208V67.625C46.875 63.481 48.5212 59.5067 51.4515 56.5765C54.3817 53.6462 58.356 52 62.5 52H78.125C82.269 52 86.2433 53.6462 89.1735 56.5765C92.1038 59.5067 93.75 63.481 93.75 67.625V182.208C93.75 186.352 92.1038 190.327 89.1735 193.257C86.2433 196.187 82.269 197.833 78.125 197.833H62.5C58.356 197.833 54.3817 196.187 51.4515 193.257C48.5212 190.327 46.875 186.352 46.875 182.208Z" fill="#CCCCCC"/>
</g>
<defs>
<clipPath id="clip0_101_4043">
<rect width="250" height="250" fill="white"/>
</clipPath>
</defs>
</svg>
