<svg width="250" height="250" viewBox="0 0 250 250" fill="none" xmlns="http://www.w3.org/2000/svg">
<path d="M193.083 21H42.0417C27.6593 21 16 32.6593 16 47.0417V187.667C16 202.049 27.6593 213.708 42.0417 213.708H193.083C207.466 213.708 219.125 202.049 219.125 187.667V47.0417C219.125 32.6593 207.466 21 193.083 21Z" fill="#333333"/>
<path d="M172.25 62.6667H203.5V47.0417C203.5 44.279 202.403 41.6295 200.449 39.676C198.496 37.7225 195.846 36.625 193.083 36.625H172.25V62.6667Z" fill="#666666"/>
<path d="M172.25 172.042H203.5V187.667C203.5 190.43 202.403 193.079 200.449 195.033C198.496 196.986 195.846 198.084 193.083 198.084H172.25V172.042Z" fill="#666666"/>
<path d="M203.5 78.292H172.25V109.542H203.5V78.292Z" fill="#666666"/>
<path d="M203.5 125.167H172.25V156.417H203.5V125.167Z" fill="#666666"/>
<path d="M62.875 62.6667H31.625V47.0417C31.625 44.279 32.7225 41.6295 34.676 39.676C36.6295 37.7225 39.279 36.625 42.0417 36.625H62.875V62.6667Z" fill="#666666"/>
<path d="M62.875 172.042H31.625V187.667C31.625 190.43 32.7225 193.079 34.676 195.033C36.6295 196.986 39.279 198.084 42.0417 198.084H62.875V172.042Z" fill="#666666"/>
<path d="M62.875 78.292H31.625V109.542H62.875V78.292Z" fill="#666666"/>
<path d="M62.875 125.167H31.625V156.417H62.875V125.167Z" fill="#666666"/>
<path d="M146.24 110.938L104.51 86.8438C102.927 85.9296 101.131 85.4483 99.3022 85.4482C97.4738 85.4482 95.6775 85.9295 94.094 86.8437C92.5104 87.758 91.1954 89.0729 90.2812 90.6564C89.3669 92.2399 88.8855 94.0362 88.8855 95.8646V144.052C88.8855 145.881 89.3669 147.677 90.2812 149.26C91.1954 150.844 92.5104 152.159 94.094 153.073C95.6775 153.987 97.4738 154.469 99.3022 154.469C101.131 154.469 102.927 153.987 104.51 153.073L146.24 128.979C147.823 128.065 149.138 126.75 150.052 125.167C150.966 123.583 151.448 121.787 151.448 119.958C151.448 118.13 150.966 116.334 150.052 114.75C149.138 113.167 147.823 111.852 146.24 110.938Z" fill="#F2F2F2"/>
<path d="M165.807 220.943L151.891 228.672C151.104 229.108 150.218 229.334 149.319 229.326C148.419 229.318 147.537 229.077 146.758 228.627C145.98 228.177 145.331 227.533 144.875 226.758C144.419 225.983 144.171 225.102 144.156 224.203L143.885 208.292C143.822 204.515 144.787 200.792 146.677 197.521L206.292 94.2657C207.673 91.8732 209.948 90.1275 212.617 89.4126C215.285 88.6976 218.128 89.0719 220.521 90.4532L229.542 95.6615C231.934 97.0429 233.68 99.318 234.395 101.987C235.11 104.655 234.735 107.498 233.354 109.891L173.74 213.146C171.851 216.416 169.109 219.111 165.807 220.943Z" fill="#F2F2F2"/>
<path d="M146.427 198.026C144.714 201.172 143.839 204.705 143.885 208.287L144.156 224.203C144.171 225.103 144.418 225.983 144.874 226.758C145.33 227.534 145.979 228.178 146.758 228.628C147.537 229.078 148.419 229.318 149.318 229.326C150.218 229.334 151.104 229.109 151.891 228.672L165.807 220.943C168.935 219.198 171.558 216.674 173.422 213.615L146.427 198.026Z" fill="black"/>
<path d="M225.469 123.552L198.385 107.927L206.271 94.2657C207.652 91.8732 209.927 90.1275 212.596 89.4126C215.264 88.6976 218.108 89.0719 220.5 90.4532L229.521 95.6615C231.913 97.0429 233.659 99.318 234.374 101.987C235.089 104.655 234.715 107.498 233.333 109.891L225.469 123.552Z" fill="black"/>
<path d="M197.01 131.173L189.198 144.704C187.759 147.195 188.613 150.381 191.104 151.819C193.595 153.257 196.781 152.404 198.219 149.913L206.031 136.381C207.47 133.89 206.616 130.705 204.125 129.266C201.634 127.828 198.448 128.682 197.01 131.173Z" fill="black"/>
</svg>
