<svg width="250" height="250" viewBox="0 0 250 250" fill="none" xmlns="http://www.w3.org/2000/svg">
<path d="M135.755 239.167H114.922C103.432 239.167 94.0886 229.823 94.0886 218.334V213.125C94.0886 210.245 96.422 207.917 99.297 207.917H151.38C154.255 207.917 156.589 210.245 156.589 213.125V218.334C156.589 229.823 147.245 239.167 135.755 239.167Z" fill="#999999"/>
<path d="M151.328 218.334H99.1876C90.5678 218.334 83.5522 211.319 83.5522 202.699V190.756C83.5522 178.444 78.0678 166.298 68.5001 157.433C59.823 149.397 48.5209 135.324 43.948 113.933C38.5209 88.5582 44.5574 62.2925 60.5105 41.8654C75.6615 22.4696 98.198 10.8707 122.349 10.053C145.302 9.25087 166.849 17.5842 183.255 33.4436C199.646 49.2873 208.672 70.5582 208.672 93.3394C208.672 125.673 194.359 145.871 182.349 157.121C172.573 166.287 166.958 178.938 166.958 191.834V202.704C166.958 211.324 159.943 218.339 151.323 218.339L151.328 218.334Z" fill="#FFBC43"/>
<path d="M146.172 103.751C137.557 103.751 130.547 110.761 130.547 119.376V124.584H120.13V119.376C120.13 110.761 113.12 103.751 104.505 103.751C95.8908 103.751 88.8804 110.761 88.8804 119.376C88.8804 127.991 95.8908 135.001 104.505 135.001H109.714V197.501C109.714 200.381 112.047 202.709 114.922 202.709C117.797 202.709 120.13 200.381 120.13 197.501V135.001H130.547V197.501C130.547 200.381 132.88 202.709 135.755 202.709C138.63 202.709 140.964 200.381 140.964 197.501V135.001H146.172C154.787 135.001 161.797 127.991 161.797 119.376C161.797 110.761 154.787 103.751 146.172 103.751ZM99.297 119.376C99.297 116.506 101.636 114.168 104.505 114.168C107.375 114.168 109.714 116.506 109.714 119.376V124.584H104.505C101.636 124.584 99.297 122.246 99.297 119.376ZM146.172 124.584H140.964V119.376C140.964 116.506 143.302 114.168 146.172 114.168C149.042 114.168 151.38 116.506 151.38 119.376C151.38 122.246 149.042 124.584 146.172 124.584Z" fill="#FFAB14"/>
<path d="M83.3491 187.084C83.4585 188.303 83.5522 189.527 83.5522 190.756V202.699C83.5522 211.318 90.5679 218.334 99.1877 218.334H151.328C159.948 218.334 166.964 211.318 166.964 202.699V191.829C166.964 190.24 167.052 188.657 167.219 187.084H83.3491Z" fill="#CCCCCC"/>
</svg>
