<svg width="250" height="250" viewBox="0 0 250 250" fill="none" xmlns="http://www.w3.org/2000/svg">
<path d="M208.906 234.75H144.427C136.37 234.75 129.682 228.703 128.88 220.683L119.401 125.896C119.255 124.433 119.734 122.969 120.724 121.881C121.708 120.787 123.109 120.167 124.583 120.167H228.75C230.224 120.167 231.625 120.787 232.609 121.881C233.599 122.969 234.078 124.427 233.932 125.896L224.453 220.683C223.651 228.703 216.964 234.75 208.906 234.75Z" fill="#0088FA"/>
<path d="M228.75 130.583C225.875 130.583 223.542 128.255 223.542 125.375C223.542 99.5257 202.51 78.4997 176.667 78.4997C150.823 78.4997 129.792 99.5257 129.792 125.375C129.792 128.255 127.458 130.583 124.583 130.583C121.708 130.583 119.375 128.255 119.375 125.375C119.375 93.7861 145.078 68.083 176.667 68.083C208.255 68.083 233.958 93.7861 233.958 125.375C233.958 128.255 231.625 130.583 228.75 130.583Z" fill="#CCCCCC"/>
<path d="M233.958 130.584H119.375C116.5 130.584 114.167 128.256 114.167 125.375C114.167 122.495 116.5 120.167 119.375 120.167H233.958C236.833 120.167 239.167 122.495 239.167 125.375C239.167 128.256 236.833 130.584 233.958 130.584Z" fill="#80C3FC"/>
<path d="M30.8333 130.583C28.9323 130.583 27.1771 129.547 26.2656 127.875L23.6667 123.13C22.2292 120.495 20.0833 118.349 17.4583 116.911L12.7135 114.323C11.0417 113.406 10 111.651 10 109.75C10 107.849 11.0417 106.094 12.7135 105.177L17.4635 102.583C20.0885 101.151 22.2344 99 23.6719 96.375L26.2708 91.625C28.1042 88.2865 33.5781 88.2865 35.4115 91.625L38.0104 96.3698C39.4479 99.0052 41.5938 101.151 44.2188 102.589L48.9635 105.177C50.6354 106.094 51.6771 107.849 51.6771 109.75C51.6771 111.651 50.6354 113.406 48.9635 114.323L44.2135 116.917C41.5885 118.349 39.4427 120.5 38.0052 123.125L35.4062 127.875C34.4896 129.542 32.7344 130.583 30.8333 130.583Z" fill="#F2F2F2"/>
<path d="M207.917 62.8753C206.016 62.8753 204.26 61.8389 203.349 60.167L200.75 55.4222C199.313 52.7868 197.167 50.6409 194.542 49.2034L189.797 46.6149C188.125 45.6982 187.083 43.943 187.083 42.042C187.083 40.1409 188.125 38.3857 189.797 37.4691L194.547 34.8753C197.172 33.443 199.318 31.292 200.755 28.667L203.354 23.917C205.188 20.5785 210.662 20.5785 212.495 23.917L215.094 28.6618C216.531 31.2972 218.677 33.443 221.302 34.8805L226.047 37.4691C227.719 38.3857 228.76 40.1409 228.76 42.042C228.76 43.943 227.719 45.6982 226.047 46.6149L221.297 49.2087C218.672 50.641 216.526 52.792 215.089 55.417L212.49 60.167C211.573 61.8337 209.818 62.8753 207.917 62.8753Z" fill="#F2F2F2"/>
<path d="M140.208 47.2497H135V42.0413C135 39.1611 132.667 36.833 129.792 36.833C126.917 36.833 124.583 39.1611 124.583 42.0413V47.2497H119.375C116.5 47.2497 114.167 49.5778 114.167 52.458C114.167 55.3382 116.5 57.6663 119.375 57.6663H124.583V62.8747C124.583 65.7549 126.917 68.083 129.792 68.083C132.667 68.083 135 65.7549 135 62.8747V57.6663H140.208C143.083 57.6663 145.417 55.3382 145.417 52.458C145.417 49.5778 143.083 47.2497 140.208 47.2497Z" fill="#F2F2F2"/>
<path d="M41.25 42.0417H36.0417V36.8333C36.0417 33.9531 33.7084 31.625 30.8334 31.625C27.9584 31.625 25.625 33.9531 25.625 36.8333V42.0417H20.4167C17.5417 42.0417 15.2084 44.3698 15.2084 47.25C15.2084 50.1302 17.5417 52.4583 20.4167 52.4583H25.625V57.6667C25.625 60.5469 27.9584 62.875 30.8334 62.875C33.7084 62.875 36.0417 60.5469 36.0417 57.6667V52.4583H41.25C44.125 52.4583 46.4584 50.1302 46.4584 47.25C46.4584 44.3698 44.125 42.0417 41.25 42.0417Z" fill="#F2F2F2"/>
<path d="M145.411 234.75H20.4219C17.0052 234.75 13.8073 233.078 11.8594 230.271C9.91144 227.464 9.46873 223.875 10.6667 220.677L26.0677 185.771C26.901 183.886 28.7708 182.667 30.8333 182.667H135C137.062 182.667 138.932 183.881 139.766 185.771L155.052 220.396C156.365 223.875 155.922 227.459 153.969 230.271C152.021 233.078 148.823 234.75 145.406 234.75H145.411Z" fill="#CCCCCC"/>
<path opacity="0.5" d="M88.125 182.667H77.7084V234.75H88.125V182.667Z" fill="#999999"/>
<path opacity="0.5" d="M69.0104 182.667L65.625 234.75H55.1562L58.5417 182.667H69.0104Z" fill="#999999"/>
<path opacity="0.5" d="M51.6147 182.667L41.5105 234.75H30.8855L40.9897 182.667H51.6147Z" fill="#999999"/>
<path opacity="0.5" d="M110.677 234.75H100.26L96.823 182.667H107.24L110.677 234.75Z" fill="#999999"/>
<path opacity="0.5" d="M134.948 234.587H124.323L114.219 182.504H124.844L134.948 234.587Z" fill="#999999"/>
<path d="M82.9167 16C88.6719 16 93.3333 20.6615 93.3333 26.4167V151.417C93.3333 154.292 91 156.625 88.125 156.625H77.7083C74.8333 156.625 72.5 154.292 72.5 151.417V26.4167C72.5 20.6615 77.1615 16 82.9167 16Z" fill="#1A94FA"/>
<path d="M103.75 177.458H62.0833C59.2083 177.458 56.875 175.13 56.875 172.25V156.625C56.875 150.88 61.5469 146.208 67.2917 146.208H98.5417C104.286 146.208 108.958 150.88 108.958 156.625V172.25C108.958 175.13 106.625 177.458 103.75 177.458Z" fill="#0088FA"/>
<path d="M135 187.875H30.8333C27.9583 187.875 25.625 185.547 25.625 182.666V172.25C25.625 166.505 30.2969 161.833 36.0417 161.833H129.792C135.536 161.833 140.208 166.505 140.208 172.25V182.666C140.208 185.547 137.875 187.875 135 187.875Z" fill="#66B8FC"/>
</svg>
