<svg width="250" height="250" viewBox="0 0 250 250" fill="none" xmlns="http://www.w3.org/2000/svg">
<path d="M223.542 46.625H25.625C17.0104 46.625 10 53.6354 10 62.25V182.042C10 196.401 21.6823 208.083 36.0417 208.083H94.25C97.75 208.083 101.026 209.161 103.474 211.115C109.427 215.88 116.927 218.5 124.583 218.5C132.24 218.5 139.74 215.88 145.693 211.115C148.141 209.161 151.417 208.083 154.917 208.083H213.125C227.484 208.083 239.167 196.401 239.167 182.042V62.25C239.167 53.6354 232.156 46.625 223.542 46.625Z" fill="#80C3FC"/>
<path opacity="0.35" d="M207.917 171.625H41.25L15.2812 197.594C20.0365 203.922 27.5365 208.083 36.0417 208.083H94.25C97.75 208.083 101.026 209.161 103.474 211.115C109.427 215.88 116.927 218.5 124.583 218.5C132.24 218.5 139.74 215.88 145.693 211.115C148.141 209.161 151.417 208.083 154.917 208.083H213.125C221.63 208.083 229.13 203.922 233.885 197.594L207.917 171.625Z" fill="#0088FA"/>
<path d="M202.708 31H152.823C143.536 31 134.542 33.724 126.818 38.875L124.578 40.3698L122.338 38.875C114.615 33.724 105.625 31 96.3333 31H46.4583C37.8437 31 30.8333 38.0104 30.8333 46.625V171.625C30.8333 180.24 37.8437 187.25 46.4583 187.25H96.3437C103.568 187.25 110.557 189.37 116.568 193.375L121.693 196.792C122.568 197.375 123.573 197.667 124.583 197.667C125.594 197.667 126.599 197.375 127.474 196.792L132.599 193.375C138.609 189.37 145.604 187.25 152.823 187.25H202.708C211.323 187.25 218.333 180.24 218.333 171.625V46.625C218.333 38.0104 211.323 31 202.708 31Z" fill="#F2F2F2"/>
<path d="M127.474 196.792L132.599 193.375C138.609 189.37 145.604 187.25 152.823 187.25H202.708C211.323 187.25 218.333 180.24 218.333 171.625V46.625C218.333 38.0104 211.323 31 202.708 31H152.823C143.536 31 134.542 33.724 126.818 38.875L124.578 40.3698V197.672C125.583 197.672 126.594 197.38 127.469 196.797L127.474 196.792Z" fill="white"/>
<path d="M103.75 77.8747H51.6666C48.7916 77.8747 46.4583 75.5413 46.4583 72.6663C46.4583 69.7913 48.7916 67.458 51.6666 67.458H103.75C106.625 67.458 108.958 69.7913 108.958 72.6663C108.958 75.5413 106.625 77.8747 103.75 77.8747Z" fill="#999999"/>
<path d="M197.5 77.8747H145.417C142.542 77.8747 140.208 75.5413 140.208 72.6663C140.208 69.7913 142.542 67.458 145.417 67.458H197.5C200.375 67.458 202.708 69.7913 202.708 72.6663C202.708 75.5413 200.375 77.8747 197.5 77.8747Z" fill="#999999"/>
<path d="M103.75 103.917H51.6666C48.7916 103.917 46.4583 101.583 46.4583 98.7083C46.4583 95.8333 48.7916 93.5 51.6666 93.5H103.75C106.625 93.5 108.958 95.8333 108.958 98.7083C108.958 101.583 106.625 103.917 103.75 103.917Z" fill="#999999"/>
<path d="M197.5 103.917H145.417C142.542 103.917 140.208 101.583 140.208 98.7083C140.208 95.8333 142.542 93.5 145.417 93.5H197.5C200.375 93.5 202.708 95.8333 202.708 98.7083C202.708 101.583 200.375 103.917 197.5 103.917Z" fill="#999999"/>
<path d="M103.75 129.959H51.6666C48.7916 129.959 46.4583 127.625 46.4583 124.75C46.4583 121.875 48.7916 119.542 51.6666 119.542H103.75C106.625 119.542 108.958 121.875 108.958 124.75C108.958 127.625 106.625 129.959 103.75 129.959Z" fill="#999999"/>
<path d="M197.5 129.959H145.417C142.542 129.959 140.208 127.625 140.208 124.75C140.208 121.875 142.542 119.542 145.417 119.542H197.5C200.375 119.542 202.708 121.875 202.708 124.75C202.708 127.625 200.375 129.959 197.5 129.959Z" fill="#999999"/>
<path d="M103.75 156H51.6666C48.7916 156 46.4583 153.666 46.4583 150.791C46.4583 147.916 48.7916 145.583 51.6666 145.583H103.75C106.625 145.583 108.958 147.916 108.958 150.791C108.958 153.666 106.625 156 103.75 156Z" fill="#999999"/>
<path d="M197.5 156H145.417C142.542 156 140.208 153.666 140.208 150.791C140.208 147.916 142.542 145.583 145.417 145.583H197.5C200.375 145.583 202.708 147.916 202.708 150.791C202.708 153.666 200.375 156 197.5 156Z" fill="#999999"/>
</svg>
