<svg width="250" height="250" viewBox="0 0 250 250" fill="none" xmlns="http://www.w3.org/2000/svg">
<path d="M58.875 32.2725H27.625C18.9956 32.2725 12 39.268 12 47.8975V204.147C12 212.777 18.9956 219.772 27.625 219.772H58.875C67.5045 219.772 74.5 212.777 74.5 204.147V47.8975C74.5 39.268 67.5045 32.2725 58.875 32.2725Z" fill="#00D468"/>
<path d="M58.8751 73.9391H27.6251C24.7449 73.9391 22.4167 71.6058 22.4167 68.7308C22.4167 65.8558 24.7449 63.5225 27.6251 63.5225H58.8751C61.7553 63.5225 64.0834 65.8558 64.0834 68.7308C64.0834 71.6058 61.7553 73.9391 58.8751 73.9391Z" fill="#F2F2F2"/>
<path d="M58.8751 188.522H27.6251C24.7449 188.522 22.4167 186.189 22.4167 183.314C22.4167 180.439 24.7449 178.105 27.6251 178.105H58.8751C61.7553 178.105 64.0834 180.439 64.0834 183.314C64.0834 186.189 61.7553 188.522 58.8751 188.522Z" fill="#F2F2F2"/>
<path d="M126.583 32.2725H95.3334C86.7039 32.2725 79.7084 39.268 79.7084 47.8975V204.147C79.7084 212.777 86.7039 219.772 95.3334 219.772H126.583C135.213 219.772 142.208 212.777 142.208 204.147V47.8975C142.208 39.268 135.213 32.2725 126.583 32.2725Z" fill="#0088FA"/>
<path d="M126.583 73.9391H95.3333C92.4531 73.9391 90.125 71.6058 90.125 68.7308C90.125 65.8558 92.4531 63.5225 95.3333 63.5225H126.583C129.464 63.5225 131.792 65.8558 131.792 68.7308C131.792 71.6058 129.464 73.9391 126.583 73.9391Z" fill="#F2F2F2"/>
<path d="M126.583 188.522H95.3333C92.4531 188.522 90.125 186.189 90.125 183.314C90.125 180.439 92.4531 178.105 95.3333 178.105H126.583C129.464 178.105 131.792 180.439 131.792 183.314C131.792 186.189 129.464 188.522 126.583 188.522Z" fill="#F2F2F2"/>
<path d="M186.26 30.0436L156.075 38.1317C147.739 40.3652 142.793 48.933 145.026 57.2684L185.467 208.194C187.7 216.53 196.268 221.476 204.603 219.243L234.789 211.155C243.124 208.921 248.071 200.354 245.837 192.018L205.397 41.0922C203.163 32.7568 194.595 27.8102 186.26 30.0436Z" fill="#FF3929"/>
<path d="M197.047 70.2881L166.859 78.3767C164.078 79.1215 161.224 77.4704 160.479 74.6944C159.734 71.9183 161.38 69.059 164.162 68.3142L194.349 60.2256C197.13 59.4808 199.984 61.1319 200.729 63.9079C201.474 66.684 199.828 69.5433 197.047 70.2881Z" fill="#F2F2F2"/>
<path d="M226.703 180.965L196.516 189.053C193.734 189.798 190.88 188.147 190.136 185.371C189.391 182.595 191.037 179.736 193.818 178.991L224.005 170.902C226.787 170.158 229.641 171.809 230.386 174.585C231.13 177.361 229.484 180.22 226.703 180.965Z" fill="#F2F2F2"/>
</svg>
