<svg width="250" height="250" viewBox="0 0 250 250" fill="none" xmlns="http://www.w3.org/2000/svg">
<g clip-path="url(#clip0_35_466)">
<mask id="mask0_35_466" style="mask-type:luminance" maskUnits="userSpaceOnUse" x="0" y="0" width="250" height="250">
<path d="M250 0H0V250H250V0Z" fill="white"/>
</mask>
<g mask="url(#mask0_35_466)">
<path d="M250 0H0V250H250V0Z" fill="white"/>
<path d="M211.252 211.808C211.252 219.37 170.378 225.5 119.959 225.5C69.5393 225.5 28.6666 219.37 28.6666 211.808C28.6666 206.457 49.1543 201.818 79.0128 199.57C91.3255 198.64 105.237 198.118 119.959 198.118C126.011 198.118 131.924 198.207 137.642 198.375C179.598 199.612 211.252 205.155 211.252 211.808Z" fill="#FF887F"/>
<path opacity="0.1" d="M108.179 214.607C127.534 214.607 143.224 212.695 143.224 210.337C143.224 207.978 127.534 206.068 108.179 206.068C88.8247 206.068 73.1349 207.978 73.1349 210.337C73.1349 212.695 88.8247 214.607 108.179 214.607Z" fill="#333333"/>
<path d="M108.032 213.428C126.329 213.428 141.162 197.61 141.162 178.097C141.162 158.583 126.329 142.766 108.032 142.766C89.7351 142.766 74.9016 158.583 74.9016 178.097C74.9016 197.61 89.7346 213.428 108.032 213.428Z" fill="#4DACFB"/>
<path d="M118.486 199.002H97.8719V217.845H118.486V199.002Z" fill="#FF4D3E"/>
<path d="M145.432 203.565L144.254 210.044L151.911 211.22L156.918 208.277L156.623 203.565H145.432Z" fill="white"/>
<path d="M106.854 81.9667C106.854 81.9667 106.265 88.7385 104.792 89.0334C103.32 89.3282 108.032 101.105 108.032 101.105H115.1L120.695 99.6327L118.045 93.1554C118.045 93.1554 114.512 88.4444 117.162 84.6169C119.812 80.7894 106.854 81.9667 106.854 81.9667Z" fill="#FFDDA1"/>
<path opacity="0.1" d="M106.854 81.9667C106.854 81.9667 106.265 88.7385 104.792 89.0334C103.32 89.3282 108.032 101.105 108.032 101.105H115.1L120.695 99.6327L118.045 93.1554C118.045 93.1554 114.512 88.4444 117.162 84.6169C119.812 80.7894 106.854 81.9667 106.854 81.9667Z" fill="#333333"/>
<path d="M92.1296 133.786C92.1296 133.786 84.4727 148.507 90.6571 151.451C96.8414 154.396 98.3137 154.101 98.3137 154.985C98.3137 155.868 97.1359 155.573 97.7249 157.046C98.3139 158.518 96.5469 164.406 98.3137 167.94C100.081 171.474 99.4917 174.122 99.4917 174.122C99.4917 174.122 99.4917 174.417 100.081 175.595C100.67 176.773 100.964 177.655 100.67 178.245C100.375 178.835 98.6082 182.662 100.375 183.543C102.142 184.425 111.271 185.017 112.155 183.543C113.038 182.07 111.272 181.188 112.155 180.305C113.038 179.422 113.627 179.128 113.038 178.538C112.449 177.948 111.86 170.59 111.86 170.59C111.86 170.59 113.333 162.051 112.744 160.873C112.154 159.696 111.271 158.518 111.86 157.635C112.449 156.751 113.038 157.046 113.333 155.868C113.627 154.69 114.216 152.04 114.216 152.04L117.455 151.746L125.112 153.218C125.112 153.218 133.652 162.64 143.076 165.585C143.076 165.585 145.726 168.235 146.609 168.235C147.493 168.235 147.493 168.235 147.198 168.825C146.904 169.415 146.021 169.413 146.609 170.001C147.198 170.59 148.082 169.708 147.493 170.591C146.904 171.475 146.315 171.475 146.904 172.063C147.493 172.651 146.609 175.89 146.609 176.185C146.609 176.48 143.959 204.155 144.843 204.745C145.726 205.335 158.095 207.1 158.978 204.745C159.862 202.39 158.389 199.445 158.389 199.445C158.389 199.445 162.806 164.113 161.629 161.758C160.451 159.403 156.329 148.803 134.241 142.031C134.241 142.031 128.057 140.853 128.057 139.97C128.057 139.087 127.468 133.493 126.29 133.198C125.112 132.904 118.339 132.609 118.339 132.609L109.798 135.259L98.0189 133.198L92.1296 133.786Z" fill="#333333"/>
<path d="M102.437 183.25L100.964 188.55C100.964 188.55 99.7862 197.088 101.259 199.148C102.415 200.766 104.48 202.75 108.31 203.098C109.383 203.196 110.458 202.925 111.356 202.33C112.254 201.735 112.923 200.851 113.251 199.825C113.295 199.701 113.323 199.573 113.333 199.443C113.333 198.855 112.45 191.788 112.45 191.788L110.977 184.426L110.683 182.366L102.437 183.25Z" fill="#333333"/>
<path d="M145.432 208.57C145.432 208.57 143.96 207.098 143.666 208.57C143.372 210.042 142.193 216.225 144.255 216.52C146.316 216.815 166.047 219.758 168.109 218.58C170.17 217.402 173.999 215.637 171.642 214.753C169.285 213.87 162.513 211.22 162.513 211.22C162.513 211.22 158.685 206.215 158.096 205.92C157.508 205.625 154.268 206.215 152.796 207.393C151.325 208.572 145.432 208.57 145.432 208.57Z" fill="#333333"/>
<path d="M113.922 88.1502C115.727 88.1498 117.491 87.6141 118.992 86.611C120.493 85.6078 121.662 84.1821 122.353 82.5143C123.043 80.8465 123.224 79.0113 122.872 77.2409C122.519 75.4705 121.65 73.8444 120.373 72.5681C119.096 71.2918 117.47 70.4227 115.7 70.0707C113.929 69.7187 112.094 69.8996 110.426 70.5905C108.759 71.2814 107.333 72.4513 106.33 73.9523C105.328 75.4533 104.792 77.2179 104.792 79.023C104.793 80.2218 105.029 81.4087 105.488 82.5162C105.947 83.6236 106.619 84.6298 107.467 85.4774C108.315 86.3249 109.321 86.9972 110.428 87.4558C111.536 87.9144 112.723 88.1503 113.922 88.1502Z" fill="#FFDDA1"/>
<path d="M113.038 99.6322L109.505 95.8047L105.588 88.1495C105.588 88.1495 102.732 87.2662 102.143 88.7384C101.554 90.2105 90.9526 94.9217 90.9526 94.9217C90.9526 94.9217 93.6026 119.654 92.4251 122.009C91.2476 124.364 89.1856 133.786 90.9526 134.67C92.7196 135.553 100.965 134.67 103.616 135.847C106.266 137.025 113.923 137.025 115.984 135.553C118.046 134.081 118.634 132.903 120.696 133.786C122.451 134.538 126.554 108.83 127.735 101.17C127.834 100.526 127.752 99.8676 127.496 99.2686C127.241 98.6697 126.823 98.1543 126.29 97.7807C123.647 95.9277 118.888 92.7344 118.046 93.1555C116.867 93.7437 113.038 99.6322 113.038 99.6322Z" fill="#1AD877"/>
<path d="M125.701 98.4541C126.393 98.6269 127.015 99.0071 127.484 99.5437C127.953 100.08 128.247 100.748 128.325 101.456L130.708 122.892C130.708 122.892 124.818 135.552 121.873 127.014C118.928 118.475 125.701 98.4541 125.701 98.4541Z" fill="#1AD877"/>
<path d="M125.112 124.953L131.591 123.187C131.591 123.187 132.769 131.431 133.947 131.431C135.125 131.431 129.824 136.141 127.174 135.553C124.523 134.964 120.695 132.903 120.4 131.431C120.106 129.959 123.05 123.775 123.05 123.775L125.112 124.953Z" fill="#1AD877"/>
<path d="M107.03 82.9597C107.651 81.5912 107.543 79.9949 108.056 78.5825C108.331 77.8262 108.777 77.1437 109.36 76.5883C109.942 76.0329 110.645 75.6196 111.413 75.3807C112.182 75.1418 112.995 75.0838 113.79 75.2112C114.584 75.3385 115.339 75.6479 115.994 76.115C116.654 76.5857 117.316 77.2468 118.122 77.157C118.99 77.0602 119.764 76.0923 120.561 76.447C121.446 76.8402 121.207 78.4247 122.103 78.7907C122.574 78.9833 123.132 78.6867 123.403 78.256C123.641 77.8035 123.77 77.302 123.781 76.7909C123.905 75.5352 124.017 74.2062 123.472 73.0678C123.243 72.682 123.043 72.2795 122.875 71.8637C122.779 71.4753 122.741 71.0752 122.761 70.6758C122.756 69.1999 122.648 67.6603 121.905 66.3849C121.081 64.9695 119.557 64.0645 117.967 63.6695C116.377 63.2745 114.712 63.3352 113.079 63.4734C110.381 63.7017 107.566 64.1914 105.44 65.8685C105.152 66.0796 104.903 66.3409 104.707 66.6398C104.52 66.995 104.388 67.3763 104.316 67.7708C103.856 69.6423 103.167 71.4498 102.264 73.1522C101.83 73.8738 101.475 74.6404 101.205 75.4385C100.98 76.2495 100.995 77.1737 101.467 77.8707C101.85 78.4382 102.465 78.7407 102.948 79.204C103.426 79.6638 103.65 80.548 104.18 80.896C104.642 81.2 105.196 80.9855 105.668 81.3075C106.273 81.7215 106.317 82.6284 107.03 82.9597Z" fill="black"/>
<path d="M114.511 104.049L115.394 102.282C115.394 102.282 128.352 106.11 131.002 109.643C131.002 109.643 137.481 105.521 141.015 106.11L144.548 106.699L133.652 116.415L119.811 115.237L114.511 104.049Z" fill="#F2F2F2"/>
<path d="M113.922 102.282L101.848 119.066L119.223 127.604C119.223 127.604 120.847 128.487 122.096 127.604L133.653 122.304L144.549 106.699L133.653 112.293C133.653 112.293 132.475 109.938 130.119 111.116L113.922 102.282Z" fill="#955AFF"/>
<path d="M132.475 132.019L134.831 125.835C134.831 125.835 140.131 119.064 137.187 115.825C134.242 112.586 131.002 125.247 131.002 125.247L132.475 132.019Z" fill="#FFDDA1"/>
<path d="M105.292 131.033L110.433 126.866C110.433 126.866 118.417 123.666 117.495 119.388C116.573 115.109 107.417 124.436 107.417 124.436L105.292 131.033Z" fill="#FFDDA1"/>
<path opacity="0.1" d="M92.5712 101.251H92.2767C92.2767 101.251 87.7122 95.8045 86.8287 103.165C85.9452 110.526 83 134.963 90.657 135.847C98.314 136.73 103.762 132.167 103.762 132.167C103.762 132.167 109.357 123.628 107.295 123.628C106.298 123.628 103.585 123.18 101.111 123.334C98.4715 123.497 96.0999 124.241 96.2519 123.481C96.5469 122.008 100.817 103.312 92.5712 101.251Z" fill="#333333"/>
<path d="M92.1295 95.5097L90.9515 94.9209C90.9515 94.9209 86.2397 95.8042 85.3562 103.165C84.4727 110.526 81.5278 134.963 89.1845 135.846C96.8412 136.73 107.148 134.669 107.148 134.669C107.148 134.669 109.21 123.48 107.148 123.48C105.087 123.48 94.4853 124.953 94.7798 123.48C95.0743 122.008 100.375 97.5707 92.1295 95.5097Z" fill="#1AD877"/>
<path d="M128.205 128.633L131.452 123.657L133.506 131.872L128.206 134.228L128.205 128.633Z" fill="#1AD877"/>
<path d="M70.9181 108.906H52.0708V127.75H70.9181V108.906Z" fill="#FFCD72"/>
<path d="M138.217 24.667L142.987 32.9278L147.757 41.1885H128.677L133.447 32.9278L138.217 24.667Z" fill="#FFBC43"/>
<path d="M221.333 74.1979C221.22 77.7222 220.362 80.5471 218.758 82.6725C217.155 84.798 215.251 85.8609 213.045 85.8612C211.248 85.8612 209.673 84.821 208.32 82.7407C206.967 80.6604 206.29 77.4604 206.29 73.1407C206.29 72.1852 206.313 71.2757 206.358 70.4124C206.404 69.549 206.461 68.7305 206.53 67.9569L207.723 56.7369H199.843C198.478 70.9239 197.358 79.3645 196.483 82.0587C195.608 84.7529 194.124 86.1 192.032 86.0999C191.088 86.0765 190.187 85.6992 189.508 85.0427C189.115 84.694 188.803 84.2622 188.597 83.7786C188.39 83.295 188.293 82.7716 188.313 82.246C188.313 81.2007 189.138 79.74 190.787 77.8639C192.436 75.9878 193.351 74.2767 193.533 72.7305L195.58 56.736H192.272C191.339 56.7414 190.42 56.9694 189.593 57.401C188.832 57.7502 188.17 58.2835 187.667 58.9527L186.2 61.136H185.005C186.12 57.6805 187.49 55.0829 189.115 53.3434C190.742 51.604 192.612 50.7344 194.727 50.7344H220.788V56.7367H211.987C211.713 59.4648 211.503 62.193 211.357 64.9214C211.208 67.6497 211.134 70.3894 211.135 73.1404C211.135 75.005 211.567 76.517 212.43 77.6762C213.295 78.8358 214.376 79.4155 215.672 79.4155C216.467 79.4155 217.302 79.0915 218.178 78.4435C218.594 78.1521 218.942 77.7742 219.198 77.3356C219.454 76.8971 219.612 76.4083 219.662 75.9029C219.73 75.4029 219.781 75.0107 219.815 74.7262C219.85 74.4429 219.867 74.266 219.867 74.1977L221.333 74.1979Z" fill="#D0B6FF"/>
<path opacity="0.1" d="M221.333 74.1979C221.22 77.7222 220.362 80.5471 218.758 82.6725C217.155 84.798 215.251 85.8609 213.045 85.8612C211.248 85.8612 209.673 84.821 208.32 82.7407C206.967 80.6604 206.29 77.4604 206.29 73.1407C206.29 72.1852 206.313 71.2757 206.358 70.4124C206.404 69.549 206.461 68.7305 206.53 67.9569L207.723 56.7369H199.843C198.478 70.9239 197.358 79.3645 196.483 82.0587C195.608 84.7529 194.124 86.1 192.032 86.0999C191.088 86.0765 190.187 85.6992 189.508 85.0427C189.115 84.694 188.803 84.2622 188.597 83.7786C188.39 83.295 188.293 82.7716 188.313 82.246C188.313 81.2007 189.138 79.74 190.787 77.8639C192.436 75.9878 193.351 74.2767 193.533 72.7305L195.58 56.736H192.272C191.339 56.7414 190.42 56.9694 189.593 57.401C188.832 57.7502 188.17 58.2835 187.667 58.9527L186.2 61.136H185.005C186.12 57.6805 187.49 55.0829 189.115 53.3434C190.742 51.604 192.612 50.7344 194.727 50.7344H220.788V56.7367H211.987C211.713 59.4648 211.503 62.193 211.357 64.9214C211.208 67.6497 211.134 70.3894 211.135 73.1404C211.135 75.005 211.567 76.517 212.43 77.6762C213.295 78.8358 214.376 79.4155 215.672 79.4155C216.467 79.4155 217.302 79.0915 218.178 78.4435C218.594 78.1521 218.942 77.7742 219.198 77.3356C219.454 76.8971 219.612 76.4083 219.662 75.9029C219.73 75.4029 219.781 75.0107 219.815 74.7262C219.85 74.4429 219.867 74.266 219.867 74.1977L221.333 74.1979Z" fill="#333333"/>
<path d="M221.333 73.1337C221.22 76.6581 220.362 79.483 218.758 81.6084C217.155 83.7338 215.251 84.7968 213.045 84.7972C211.248 84.7972 209.673 83.7571 208.32 81.6767C206.967 79.5964 206.29 76.3964 206.29 72.0767C206.29 71.1218 206.313 70.2124 206.358 69.3484C206.404 68.4844 206.461 67.6659 206.53 66.8931L207.723 55.6729H199.843C198.478 69.8599 197.358 78.3005 196.483 80.9947C195.608 83.6889 194.124 85.0361 192.032 85.0361C191.088 85.0128 190.187 84.6355 189.508 83.9789C189.115 83.6302 188.803 83.1985 188.597 82.7149C188.39 82.2313 188.293 81.7079 188.313 81.1824C188.313 80.1368 189.138 78.6761 190.787 76.8001C192.436 74.9241 193.351 73.2131 193.533 71.6671L195.58 55.6724H192.272C191.339 55.6779 190.421 55.9059 189.593 56.3374C188.832 56.6866 188.17 57.2199 187.667 57.8891L186.2 60.0724H185.005C186.12 56.6168 187.49 54.0193 189.115 52.2797C190.742 50.5404 192.612 49.6708 194.727 49.6709H220.788V55.6731H211.987C211.713 58.4014 211.503 61.1297 211.357 63.8579C211.208 66.5862 211.134 69.3259 211.135 72.0769C211.135 73.9415 211.567 75.4534 212.43 76.6127C213.295 77.7723 214.376 78.352 215.672 78.3519C216.467 78.3519 217.302 78.0279 218.178 77.3799C218.594 77.0885 218.942 76.7105 219.198 76.272C219.454 75.8334 219.612 75.3447 219.662 74.8392C219.73 74.3392 219.781 73.9471 219.815 73.6627C219.85 73.3794 219.867 73.2024 219.867 73.1341L221.333 73.1337Z" fill="#955AFF"/>
<path d="M39.3909 47.41C38.7598 47.41 38.1429 47.2229 37.6182 46.8722C37.0934 46.5216 36.6845 46.0233 36.443 45.4402C36.2015 44.8572 36.1383 44.2156 36.2614 43.5967C36.3845 42.9777 36.6884 42.4091 37.1346 41.9629C37.5809 41.5166 38.1494 41.2128 38.7684 41.0896C39.3874 40.9665 40.0289 41.0297 40.612 41.2712C41.195 41.5127 41.6934 41.9217 42.044 42.4464C42.3946 42.9712 42.5817 43.5881 42.5817 44.2192C42.5817 45.0654 42.2456 45.877 41.6472 46.4754C41.0488 47.0738 40.2372 47.41 39.3909 47.41ZM39.3909 41.1385C38.7816 41.1385 38.1859 41.3192 37.6793 41.6577C37.1726 41.9962 36.7778 42.4774 36.5446 43.0403C36.3114 43.6033 36.2504 44.2227 36.3693 44.8204C36.4881 45.418 36.7816 45.9669 37.2124 46.3978C37.6433 46.8287 38.1922 47.1221 38.7899 47.241C39.3875 47.3598 40.0069 47.2988 40.5699 47.0656C41.1328 46.8325 41.614 46.4376 41.9525 45.9309C42.2911 45.4243 42.4717 44.8287 42.4717 44.2193C42.4717 43.8147 42.3921 43.4141 42.2372 43.0403C42.0824 42.6666 41.8555 42.3269 41.5694 42.0408C41.2833 41.7548 40.9437 41.5278 40.5699 41.373C40.1961 41.2182 39.7955 41.1385 39.3909 41.1385Z" fill="#333333"/>
<path d="M71.7358 47.41C71.1047 47.41 70.4877 47.2229 69.963 46.8722C69.4383 46.5216 69.0293 46.0233 68.7878 45.4402C68.5463 44.8572 68.4831 44.2156 68.6062 43.5967C68.7294 42.9777 69.0333 42.4091 69.4795 41.9629C69.9257 41.5166 70.4943 41.2128 71.1133 41.0896C71.7322 40.9665 72.3738 41.0297 72.9568 41.2712C73.5399 41.5127 74.0382 41.9217 74.3888 42.4464C74.7395 42.9712 74.9266 43.5881 74.9266 44.2192C74.9266 45.0654 74.5904 45.877 73.992 46.4754C73.3936 47.0738 72.582 47.41 71.7358 47.41ZM71.7358 41.1385C71.1264 41.1385 70.5308 41.3192 70.0241 41.6577C69.5175 41.9962 69.1226 42.4774 68.8894 43.0403C68.6563 43.6033 68.5952 44.2227 68.7141 44.8204C68.833 45.418 69.1264 45.9669 69.5573 46.3978C69.9881 46.8287 70.5371 47.1221 71.1347 47.241C71.7323 47.3598 72.3518 47.2988 72.9147 47.0656C73.4777 46.8325 73.9589 46.4376 74.2974 45.9309C74.6359 45.4243 74.8166 44.8287 74.8166 44.2193C74.8166 43.8147 74.7369 43.4141 74.5821 43.0403C74.4273 42.6666 74.2003 42.3269 73.9142 42.0408C73.6281 41.7548 73.2885 41.5278 72.9147 41.373C72.541 41.2182 72.1403 41.1385 71.7358 41.1385Z" fill="#333333"/>
<path d="M83.4185 40.0044H27.8338C26.7518 40.0062 25.8748 41.0896 25.8733 42.4266V68.9261C25.8748 70.2629 26.7516 71.3457 27.8338 71.3482H83.4185C84.5005 71.3464 85.3775 70.2631 85.379 68.9261V42.4261C85.3775 41.0892 84.5006 40.0064 83.4185 40.0039V40.0044ZM85.1485 68.9261C85.1473 70.1057 84.3735 71.0619 83.4186 71.0632H27.8338C26.8788 71.0617 26.1055 70.1059 26.104 68.9261V42.4261C26.1051 41.2464 26.879 40.2902 27.8338 40.2889H83.4185C84.3733 40.2904 85.1468 41.2462 85.1483 42.4261L85.1485 68.9261Z" fill="#333333"/>
<path d="M39.8236 50.6631H29.9473V57.5766H39.8236V50.6631Z" fill="#F2F2F2"/>
<path d="M53.6505 50.6631H43.7742V57.5766H53.6505V50.6631Z" fill="#F2F2F2"/>
<path d="M67.4773 50.6631H57.601V57.5766H67.4773V50.6631Z" fill="#F2F2F2"/>
<path d="M81.3041 50.6631H71.4277V57.5766H81.3041V50.6631Z" fill="#F2F2F2"/>
<path d="M39.8236 60.7861H29.9473V67.6996H39.8236V60.7861Z" fill="#F2F2F2"/>
<path d="M53.6505 60.7861H43.7742V67.6996H53.6505V60.7861Z" fill="#F2F2F2"/>
<path d="M67.4773 60.7861H57.601V67.6996H67.4773V60.7861Z" fill="#F2F2F2"/>
<path d="M81.3041 60.7861H71.4277V67.6996H81.3041V60.7861Z" fill="#F2F2F2"/>
<path d="M47.0642 67.6599L44.7327 64.4401L45.3677 63.9804L47.1525 66.4444L53.9817 59.4277L54.5433 59.9746L47.0642 67.6599Z" fill="#FF887F"/>
<path d="M61.0145 57.5369L58.683 54.317L59.318 53.8574L61.1028 56.3214L67.932 49.3047L68.4936 49.8515L61.0145 57.5369Z" fill="#FF4D3E"/>
<path d="M39.4331 32.3838H39.2643V44.2341H39.4331V32.3838Z" fill="#333333"/>
<path d="M71.9015 32.3838H71.7327V44.2341H71.9015V32.3838Z" fill="#333333"/>
<path d="M33.3607 57.5369L31.0292 54.317L31.6642 53.8574L33.449 56.3214L40.2782 49.3047L40.8398 49.8515L33.3607 57.5369Z" fill="#FF4D3E"/>
</g>
</g>
<defs>
<clipPath id="clip0_35_466">
<rect width="250" height="250" fill="white"/>
</clipPath>
</defs>
</svg>
