<svg width="250" height="250" viewBox="0 0 250 250" fill="none" xmlns="http://www.w3.org/2000/svg">
<g clip-path="url(#clip0_102_317)">
<path d="M125.333 104.167C122.369 104.17 119.464 103.33 116.958 101.745L49.2501 58.7396C47.0219 57.3347 45.1875 55.3864 43.9193 53.0777C42.6511 50.769 41.9907 48.1757 42.0001 45.5417V15.625C42.0001 11.481 43.6463 7.50671 46.5766 4.57646C49.5068 1.6462 53.4811 0 57.6251 0L193.042 0C197.186 0 201.16 1.6462 204.09 4.57646C207.021 7.50671 208.667 11.481 208.667 15.625V45.5417C208.673 48.1737 208.011 50.7643 206.743 53.0707C205.475 55.3772 203.642 57.3241 201.417 58.7292L133.708 101.734C131.204 103.324 128.299 104.167 125.333 104.167Z" fill="#FF3929"/>
<path d="M172.208 0V77.2917L140.958 97.1354V0H172.208Z" fill="white"/>
<path d="M145.495 94.2503L140.958 91.3701V97.1357L145.495 94.2555V94.2503Z" fill="#D9E1E2"/>
<path d="M109.708 0V97.1354L78.4584 77.2917V0H109.708Z" fill="white"/>
<path d="M125.333 250C165.604 250 198.25 217.354 198.25 177.084C198.25 136.813 165.604 104.167 125.333 104.167C85.0626 104.167 52.4167 136.813 52.4167 177.084C52.4167 217.354 85.0626 250 125.333 250Z" fill="#FFAB14"/>
<path d="M125.333 234.375C156.975 234.375 182.625 208.725 182.625 177.084C182.625 145.442 156.975 119.792 125.333 119.792C93.6921 119.792 68.0417 145.442 68.0417 177.084C68.0417 208.725 93.6921 234.375 125.333 234.375Z" fill="#FFBC43"/>
<path d="M123.49 202.604L109.656 207.526C108.814 207.825 107.911 207.914 107.027 207.786C106.142 207.657 105.302 207.316 104.579 206.79C103.856 206.265 103.271 205.571 102.877 204.769C102.482 203.967 102.288 203.081 102.313 202.187L102.719 187.5C102.751 186.234 102.348 184.995 101.578 183.989L92.625 172.349C92.08 171.641 91.7156 170.81 91.5635 169.93C91.4114 169.049 91.4762 168.145 91.7521 167.295C92.028 166.445 92.5069 165.675 93.1472 165.052C93.7876 164.429 94.5701 163.971 95.4271 163.718L109.49 159.552C110.705 159.193 111.759 158.426 112.474 157.38L120.797 145.312C121.302 144.575 121.979 143.972 122.77 143.556C123.56 143.14 124.44 142.922 125.333 142.922C126.227 142.922 127.107 143.14 127.897 143.556C128.688 143.972 129.365 144.575 129.87 145.312L138.172 157.422C138.887 158.468 139.941 159.235 141.156 159.593L155.219 163.76C156.076 164.013 156.858 164.471 157.499 165.094C158.139 165.717 158.618 166.487 158.894 167.337C159.17 168.187 159.234 169.091 159.082 169.972C158.93 170.852 158.566 171.682 158.021 172.39L149.068 184.026C148.298 185.031 147.895 186.27 147.927 187.536L148.333 202.208C148.358 203.102 148.164 203.988 147.769 204.79C147.375 205.592 146.79 206.285 146.067 206.811C145.344 207.337 144.504 207.678 143.619 207.806C142.735 207.935 141.832 207.845 140.99 207.546L127.177 202.604C125.984 202.182 124.683 202.182 123.49 202.604Z" fill="#FFAB14"/>
</g>
<defs>
<clipPath id="clip0_102_317">
<rect width="250" height="250" fill="white"/>
</clipPath>
</defs>
</svg>
