<svg width="250" height="250" viewBox="0 0 250 250" fill="none" xmlns="http://www.w3.org/2000/svg">
<g clip-path="url(#clip0_35_469)">
<path d="M250 0H0V250H250V0Z" fill="black"/>
<path d="M250 0H0V250H250V0Z" fill="white"/>
<mask id="mask0_35_469" style="mask-type:luminance" maskUnits="userSpaceOnUse" x="23" y="49" width="204" height="152">
<path d="M226.833 49.5H23V200.5H226.833V49.5Z" fill="white"/>
</mask>
<g mask="url(#mask0_35_469)">
<path d="M207.572 199.8H164.352V198.473C164.352 197.322 164.809 196.218 165.623 195.404C166.438 194.589 167.542 194.132 168.693 194.132H203.23C204.381 194.132 205.486 194.589 206.3 195.403C207.114 196.218 207.572 197.322 207.572 198.473V199.8Z" fill="#955AFF"/>
<path d="M184.95 194.397L186.265 193.868C172.512 159.731 173.837 116.665 185.462 79.7215C186.843 75.4411 186.942 70.8504 185.748 66.5142C184.554 62.1779 182.119 58.2852 178.742 55.315C171.995 49.2933 162.692 47.8265 154.463 51.4863C146.341 55.0995 145.222 61.393 145.222 67.656H146.638C146.638 60.9707 148.067 55.8827 155.038 52.7812C162.751 49.3512 171.471 50.727 177.797 56.3725C180.97 59.1619 183.258 62.8181 184.379 66.8909C185.5 70.9638 185.407 75.2756 184.109 79.2958C172.352 116.666 171.103 160.028 184.95 194.397Z" fill="#FFBC43"/>
<path d="M146.284 88.5583C147.265 88.5584 148.224 88.2675 149.04 87.7225C149.856 87.1776 150.491 86.403 150.867 85.4967C151.242 84.5904 151.34 83.5931 151.149 82.631C150.958 81.6689 150.485 80.7851 149.792 80.0914C149.098 79.3978 148.214 78.9254 147.252 78.734C146.29 78.5426 145.293 78.6408 144.387 79.0162C143.48 79.3916 142.706 80.0273 142.161 80.843C141.616 81.6586 141.325 82.6175 141.325 83.5985C141.325 84.2498 141.453 84.8948 141.702 85.4965C141.951 86.0983 142.317 86.6451 142.777 87.1056C143.238 87.5662 143.785 87.9315 144.386 88.1808C144.988 88.4301 145.633 88.5583 146.284 88.5583Z" fill="#FFBC43"/>
<path d="M138.646 92.2443V82.8467H140.108V92.2443C140.527 92.4139 140.874 92.7239 141.089 93.1213C141.305 93.5187 141.376 93.9787 141.289 94.4225C141.203 94.8663 140.965 95.2662 140.616 95.5537C140.267 95.8412 139.829 95.9985 139.377 95.9985C138.925 95.9985 138.487 95.8412 138.138 95.5537C137.789 95.2662 137.551 94.8663 137.465 94.4225C137.378 93.9787 137.449 93.5187 137.664 93.1213C137.88 92.7239 138.227 92.4139 138.646 92.2443Z" fill="#FFBC43"/>
<path d="M131.583 75.6269C131.586 73.4666 132.445 71.3955 133.973 69.8679C135.5 68.3403 137.571 67.481 139.731 67.4785H153.193C155.354 67.4785 157.427 68.337 158.955 69.8651C160.483 71.3932 161.342 73.4658 161.342 75.6269C161.342 77.7879 160.483 79.8605 158.955 81.3886C157.427 82.9167 155.354 83.7752 153.193 83.7752H139.731C137.57 83.7727 135.499 82.9134 133.972 81.3858C132.444 79.8582 131.585 77.7871 131.583 75.6269H131.583Z" fill="#955AFF"/>
<path d="M112.615 126.087C113.967 108.794 120.878 100.554 116.453 95.3866C112.214 90.4366 100.275 91.4598 92.6069 96.209C71.9253 109.019 64.3483 160.074 90.9624 185.018C116.252 208.721 164.182 201.129 174.833 181.729C177.318 177.203 179.293 169.266 175.657 164.46C166.625 152.528 133.792 174.141 119.194 160.623C110.542 152.613 111.874 135.577 112.615 126.087Z" fill="#1A94FA"/>
<path d="M128.425 117.495C127.922 117.726 127.53 118.144 127.331 118.66C127.132 119.176 127.143 119.749 127.36 120.258C127.406 120.36 127.46 120.459 127.522 120.553L123.083 126.48L125.298 129.791L130.501 121.014C130.87 120.726 131.133 120.325 131.25 119.872C131.366 119.419 131.33 118.941 131.145 118.511C130.929 118.019 130.526 117.633 130.026 117.439C129.525 117.244 128.968 117.256 128.476 117.472C128.458 117.48 128.441 117.487 128.425 117.495Z" fill="#FFDDA1"/>
<path d="M128.421 127.716C128.712 127.973 127.906 128.291 127.054 127.79C126.81 127.644 126.706 127.584 126.678 127.623C126.61 127.719 127.01 128.426 126.903 129.997C126.836 130.934 125.28 132.697 123.512 134.415C121.122 136.74 118.343 138.982 118.343 138.982L117.367 138.2L107.135 129.997L105.408 127.606C105.566 126.663 105.804 125.734 106.118 124.83C106.551 123.579 107.066 122.357 107.659 121.173C107.976 120.529 108.303 119.915 108.615 119.351L114.097 125.392L118.691 130.45C118.691 130.45 120.029 128.296 121.065 127.709C121.197 127.625 121.347 127.574 121.503 127.559C122.55 127.509 122.613 126.94 121.399 125.698C120.185 124.457 121.717 125.616 122.797 125.282C123.877 124.947 122.797 125.282 123.025 124.446C123.252 123.61 126.281 121.932 126.281 121.932L126.407 122.044L128.695 124.065L129.351 124.643C129.351 124.643 128.635 126.605 128.438 127.019C128.24 127.433 128.133 127.455 128.421 127.716Z" fill="#955AFF"/>
<path d="M188.753 165.793L188.865 162.769L177.257 160.9L177.092 165.363L188.753 165.793Z" fill="#FFDDA1"/>
<path d="M186.645 166.703L186.535 161.861L188.605 161.938L191.947 157.463C192.112 157.242 192.343 157.079 192.607 156.999C192.87 156.919 193.153 156.925 193.413 157.017C193.673 157.109 193.897 157.281 194.052 157.509C194.207 157.737 194.285 158.009 194.275 158.284L194.063 164.034L191.98 164.95L194.012 165.412L193.932 167.581L186.645 166.703Z" fill="#A16DFF"/>
<path d="M123.421 166.97L160.188 167.902C160.188 167.902 176.064 168.819 179.791 166.396L183.719 165.9L183.931 160.129C183.931 160.129 181.529 160.147 180.148 159.503C178.766 158.86 179.728 158.072 178.411 158.847C177.094 159.621 177.233 159.713 176.214 159.358C175.196 159.003 128.509 151.886 128.509 151.886L123.421 166.97Z" fill="#333333"/>
<path d="M171.87 164.465L174.008 162.324L166.77 153.059L163.615 156.218L171.87 164.465Z" fill="#FFDDA1"/>
<path d="M169.707 162.603L172.918 158.979L174.383 160.443L179.877 159.434C180.148 159.385 180.428 159.423 180.675 159.544C180.923 159.665 181.126 159.862 181.254 160.106C181.382 160.35 181.429 160.628 181.388 160.901C181.347 161.174 181.22 161.426 181.025 161.621L176.958 165.692L174.808 164.946L175.983 166.669L174.45 168.204L169.707 162.603Z" fill="#A16DFF"/>
<path d="M108.916 146.833L109.281 155.33C109.711 165.333 120.727 171.387 129.269 166.164C129.426 166.068 129.584 165.968 129.742 165.865C129.742 165.865 132.981 164.995 132.882 163.618C132.784 162.241 133.575 161.571 134.275 161.946C134.975 162.322 144.142 149.313 144.142 149.313C144.142 149.313 163.186 158.813 167.387 161.049C167.387 161.049 171.337 154.873 171.051 154.938C170.764 155.002 147.491 138.712 147.491 138.712C147.491 138.712 143.699 134.875 138.996 137.408C138.898 137.78 138.982 137.793 138.982 137.793L123.445 150.454L121.25 146.285L108.916 146.833Z" fill="#333333"/>
<path d="M123.564 136.21C123.535 136.602 123.479 136.992 123.398 137.377C123.286 137.935 123.105 138.476 122.86 138.989C122.86 138.989 122.86 139.562 121.764 141.481C120.668 143.399 122.038 142.577 122.86 144.002C123.683 145.425 122.86 144.77 121.948 145.686C121.685 145.952 121.498 146.284 121.407 146.647C121.316 147.01 121.324 147.391 121.43 147.75C121.43 147.75 109.655 147.758 107.462 146.936C105.269 146.113 104.77 141.481 106.736 141.023C108.698 140.565 106.141 140.11 104.987 139.055C103.833 138 106.141 136.273 106.141 136.273C106.141 136.273 105.19 134.631 105.269 129.119C105.28 128.612 105.327 128.106 105.409 127.606C105.567 126.662 105.805 125.733 106.119 124.829C106.552 123.578 107.066 122.357 107.659 121.173C107.977 120.529 108.303 119.915 108.616 119.35C108.666 119.262 108.712 119.177 108.761 119.092C109.356 118.04 109.899 117.179 110.258 116.628C110.534 116.201 110.702 115.959 110.702 115.959L112.697 112.489L119.357 115.611L118.979 120.717L120.127 124.568L120.656 126.341L121.064 127.709L121.695 129.828C121.695 129.828 121.522 129.836 121.728 130.118C122.675 131.377 123.289 132.854 123.513 134.413C123.592 135.008 123.609 135.61 123.565 136.209L123.564 136.21Z" fill="#955AFF"/>
<path d="M142.799 136.76L142.674 136.719L126.732 131.586L132.607 112.313C132.724 111.93 132.926 111.577 133.199 111.283C133.472 110.989 133.808 110.761 134.182 110.616C134.556 110.47 134.958 110.412 135.357 110.444C135.757 110.477 136.144 110.6 136.49 110.804L146.677 116.823C147.483 117.299 148.097 118.043 148.41 118.925C148.724 119.807 148.718 120.772 148.392 121.65L142.799 136.76Z" fill="#FF4D3E"/>
<path d="M142.864 137.985L126.794 132.81L132.668 113.538C132.785 113.154 132.988 112.802 133.261 112.508C133.533 112.214 133.869 111.986 134.243 111.84C134.617 111.695 135.019 111.636 135.419 111.669C135.819 111.702 136.206 111.824 136.551 112.028L147.225 117.358C148.828 118.305 148.792 120.756 148.046 122.768L142.864 137.985Z" fill="#F2F2F2"/>
<path d="M141.255 139.38C140.885 139.588 140.475 139.718 140.052 139.76C139.629 139.802 139.203 139.756 138.799 139.624L128.527 136.316C127.739 136.059 127.083 135.503 126.699 134.768C126.315 134.033 126.233 133.177 126.472 132.383L131.622 115.488C131.725 115.151 131.894 114.837 132.12 114.566C132.345 114.295 132.623 114.072 132.936 113.909C133.249 113.747 133.591 113.648 133.943 113.62C134.294 113.592 134.648 113.634 134.983 113.744L145.627 117.239C146.135 117.405 146.603 117.672 147.006 118.023C147.408 118.373 147.736 118.801 147.971 119.281C148.205 119.76 148.341 120.282 148.37 120.815C148.4 121.348 148.322 121.881 148.142 122.384L142.636 137.734C142.389 138.431 141.898 139.015 141.254 139.379L141.255 139.38Z" fill="#FF4D3E"/>
<path d="M118.981 112.548C120.436 112.548 121.858 112.117 123.068 111.308C124.278 110.5 125.221 109.351 125.778 108.007C126.335 106.662 126.48 105.183 126.196 103.756C125.913 102.329 125.212 101.018 124.183 99.9889C123.154 98.96 121.843 98.2592 120.416 97.9754C118.989 97.6915 117.51 97.8372 116.165 98.394C114.821 98.9508 113.672 99.8938 112.864 101.104C112.055 102.313 111.624 103.736 111.624 105.191C111.624 107.142 112.399 109.013 113.779 110.393C115.158 111.773 117.029 112.548 118.981 112.548Z" fill="#FFDDA1"/>
<path d="M94.1033 112.659C94.7784 113.968 95.8855 115.003 97.2366 115.588C97.7758 115.834 98.3428 116.013 98.9251 116.123C99.0897 115.47 99.3532 114.846 99.7064 114.273C99.5888 114.919 99.5888 115.581 99.7064 116.227C100.594 116.299 101.486 116.188 102.329 115.901C103.156 115.62 103.907 115.149 104.52 114.527C105.134 113.905 105.595 113.149 105.866 112.318C106.452 110.368 105.82 108.284 105.771 106.249C105.721 104.214 106.686 101.778 108.707 101.527C110.246 101.334 110.056 101.484 111.162 102.571C109.615 104.289 113.386 111.9 115.409 111.564C116.553 111.374 117.395 110.465 117.621 110.497C118.78 113.335 115.295 117.359 118.059 118.68L117.854 118.409C116.407 116.019 120.688 111.981 119.241 109.591C118.838 108.922 118.419 108.138 118.668 107.398C118.905 106.695 120.105 106.472 120.358 107.113C119.946 105.646 121.095 103.923 122.62 103.774C123.975 103.64 123.897 104.026 125.189 104.379C125.355 103.822 125.593 103.29 125.897 102.795C125.794 103.359 125.781 103.936 125.859 104.504C126.325 104.56 126.797 104.46 127.2 104.221C128.394 103.505 128.429 101.659 127.609 100.535C126.79 99.4113 125.413 98.8561 124.086 98.4361C124.073 95.6296 116.522 94.2861 115.133 96.8954C114.99 94.7828 112.569 93.3596 110.483 93.7184C108.398 94.0773 106.751 95.7501 105.748 97.6148C104.745 99.4794 104.247 101.564 103.512 103.548C102.778 105.532 101.728 107.511 99.9696 108.689C98.2111 109.866 95.5979 109.972 94.1298 108.447C93.7949 109.098 93.6181 109.819 93.6136 110.551C93.6092 111.283 93.7772 112.005 94.1041 112.66L94.1033 112.659Z" fill="#FF45C3"/>
<path d="M101.652 146.302C101.804 146.18 101.969 146.076 102.144 145.99C104.96 144.589 113.717 140.951 120.564 141.1C133.738 141.387 150.505 155.928 146.603 165.692C143.634 173.121 128.872 177.348 118.097 173.968C103.002 169.231 97.0441 149.976 101.652 146.302Z" fill="#C4A3FF"/>
<path d="M46.9596 199.829C42.6547 199.017 38.8442 179.622 47.3139 170.07C50.2157 166.797 53.8354 165.373 58.6502 164.047C86.3627 156.417 107.499 163.689 110.34 165.464C113.174 167.235 118.142 193.925 111.79 197.703C108.215 199.828 101.13 200.892 97.6196 198.412C92.4541 194.763 101.124 185.297 97.2652 178.927C92.8861 171.697 69.8259 169.262 58.2652 176.447C45.9291 184.112 71.3714 204.435 46.9596 199.829Z" fill="#B3DBFE"/>
<path d="M75.7414 166.853H59.2953C55.2354 162.962 52.3326 159.212 54.6566 156.099C54.6566 155.656 54.7438 155.217 54.9134 154.808C55.0829 154.399 55.3314 154.027 55.6447 153.714C55.958 153.4 56.3299 153.152 56.7392 152.982C57.1485 152.813 57.5872 152.726 58.0303 152.726H77.0064C77.4495 152.726 77.8883 152.813 78.2977 152.982C78.707 153.152 79.079 153.401 79.3923 153.714C79.7055 154.027 79.954 154.399 80.1235 154.809C80.293 155.218 80.3801 155.657 80.3799 156.1C81.2648 159.646 79.6834 163.231 75.7414 166.853Z" fill="#FF73D2"/>
<path d="M72.7877 148.478C72.6317 148.485 72.4773 148.444 72.3454 148.361C72.2134 148.277 72.1103 148.155 72.0501 148.011C71.9898 147.867 71.9753 147.708 72.0085 147.555C72.0417 147.403 72.1209 147.264 72.2356 147.158L72.2877 146.95C72.2809 146.934 72.2741 146.917 72.2671 146.9C72.1099 146.529 71.8465 146.212 71.5099 145.99C71.1734 145.768 70.7787 145.651 70.3755 145.652C69.9723 145.654 69.5785 145.774 69.2436 145.999C68.9087 146.223 68.6477 146.542 68.4932 146.914C67.8766 148.401 67.0901 149.89 66.8966 151.462C66.8114 152.157 66.8474 152.861 67.0029 153.544C65.5532 150.381 64.8004 146.944 64.7956 143.465C64.7952 142.592 64.8438 141.72 64.9409 140.852C65.0211 140.141 65.1322 139.435 65.2742 138.733C66.0512 134.929 67.7195 131.364 70.1421 128.329C71.3146 127.69 72.2627 126.706 72.8587 125.511C73.0747 125.081 73.2274 124.622 73.3121 124.149C73.1797 124.165 72.8132 122.152 72.9131 122.028C72.7287 121.748 72.3987 121.609 72.1976 121.336C71.1962 119.979 69.8169 120.216 69.0976 122.061C67.5594 122.837 67.5444 124.125 68.4884 125.363C69.0884 126.151 69.1717 127.217 69.6982 128.061C69.6441 128.13 69.5877 128.197 69.5334 128.267C68.5425 129.541 67.6789 130.909 66.9549 132.352C67.1309 130.736 66.9208 129.101 66.3417 127.581C65.7549 126.165 64.6547 124.973 63.6861 123.749C62.5226 122.279 60.1361 122.92 59.9316 124.784C59.9296 124.802 59.9276 124.82 59.9257 124.838C60.0695 124.919 60.2103 125.006 60.3482 125.097C60.5214 125.212 60.6556 125.378 60.7333 125.571C60.8109 125.764 60.8283 125.976 60.7833 126.18C60.7382 126.383 60.6328 126.568 60.4808 126.71C60.3288 126.853 60.1374 126.946 59.9316 126.977L59.9106 126.981C59.9618 127.499 60.0524 128.013 60.1816 128.518C58.9389 133.324 61.6217 135.075 65.4527 135.153C65.5372 135.197 65.6194 135.24 65.7042 135.281C64.9769 137.343 64.5206 139.49 64.3469 141.669C64.2484 142.955 64.2539 144.247 64.3636 145.531L64.3571 145.486C64.0796 144.057 63.3176 142.768 62.1996 141.836C60.5392 140.472 58.1936 139.969 56.4024 138.873C56.2121 138.751 55.9907 138.686 55.7645 138.685C55.5382 138.685 55.3166 138.749 55.1256 138.87C54.9346 138.992 54.7823 139.165 54.6867 139.37C54.591 139.575 54.556 139.803 54.5857 140.027C54.5881 140.044 54.5906 140.059 54.5931 140.075C54.8601 140.184 55.12 140.309 55.3714 140.45C55.5153 140.532 55.6561 140.618 55.7939 140.709C55.9671 140.824 56.1013 140.99 56.1789 141.183C56.2565 141.376 56.274 141.588 56.2289 141.792C56.1839 141.995 56.0785 142.18 55.9265 142.322C55.7745 142.465 55.5831 142.558 55.3772 142.589L55.3561 142.593L55.3127 142.599C55.7689 143.689 56.4092 144.691 57.2056 145.563C57.9827 149.759 61.3201 150.157 64.8901 148.935H64.8922C65.284 150.638 65.8516 152.294 66.5857 153.879H72.6357C72.6574 153.813 72.6769 153.743 72.6964 153.675C72.1364 153.711 71.5742 153.677 71.0224 153.575C71.4712 153.025 71.9201 152.47 72.3689 151.919C72.379 151.908 72.3884 151.897 72.3971 151.885C72.6249 151.604 72.8547 151.324 73.0824 151.042C73.0946 150.178 72.9954 149.316 72.7874 148.477L72.7877 148.478Z" fill="#1AD877"/>
<path d="M93.4216 165.972C93.5222 166.264 93.7126 166.516 93.9656 166.693C94.2185 166.871 94.521 166.963 94.8298 166.958L100.863 166.803C101.174 166.797 101.475 166.69 101.721 166.499C101.966 166.308 102.143 166.042 102.225 165.742L103.079 156.612C103.382 156.749 103.712 156.817 104.044 156.811C104.628 156.796 105.181 156.55 105.584 156.127C105.986 155.704 106.204 155.139 106.189 154.555C106.174 153.972 105.929 153.418 105.506 153.016C105.083 152.614 104.517 152.396 103.934 152.411C103.801 152.41 103.668 152.424 103.538 152.452C103.397 152.299 103.225 152.177 103.034 152.095C102.843 152.012 102.636 151.971 102.428 151.973L93.1478 152.212C93.0708 152.215 92.9941 152.225 92.9188 152.241C92.7153 152.279 92.5223 152.36 92.3528 152.479C92.1833 152.598 92.0412 152.751 91.9361 152.93C91.8309 153.108 91.7652 153.307 91.7433 153.513C91.7213 153.718 91.7437 153.927 91.809 154.123L93.4216 165.972ZM103.254 155.992L103.861 153.817C103.931 153.565 103.932 153.3 103.866 153.048C103.896 153.048 103.922 153.034 103.951 153.034C104.158 153.029 104.363 153.065 104.556 153.14C104.749 153.214 104.925 153.326 105.074 153.469C105.224 153.611 105.344 153.782 105.428 153.971C105.511 154.16 105.557 154.364 105.561 154.57C105.566 154.777 105.53 154.983 105.456 155.175C105.381 155.368 105.269 155.544 105.127 155.694C104.984 155.843 104.813 155.963 104.624 156.047C104.435 156.13 104.231 156.176 104.025 156.181C103.755 156.189 103.489 156.124 103.254 155.992Z" fill="#FF4D3E"/>
<path d="M92.9187 152.242C93.1164 153.372 95.3394 154.167 98.0122 154.029C100.47 153.916 102.48 153.053 102.848 152.029C102.712 151.989 102.57 151.97 102.428 151.973L93.1475 152.213C93.0706 152.216 92.994 152.225 92.9187 152.241V152.242Z" fill="white"/>
<path d="M23.3232 200.257L226.51 200.34C226.574 200.34 226.636 200.321 226.69 200.286C226.743 200.25 226.784 200.2 226.809 200.141C226.833 200.082 226.839 200.017 226.827 199.954C226.814 199.891 226.784 199.834 226.738 199.789C226.708 199.759 226.673 199.735 226.634 199.718C226.594 199.702 226.552 199.694 226.51 199.694L23.3232 199.61C23.2375 199.611 23.1554 199.645 23.0948 199.705C23.0342 199.766 23.0001 199.848 23 199.934C23.0001 200.019 23.0342 200.102 23.0948 200.162C23.1554 200.223 23.2375 200.257 23.3232 200.257Z" fill="#999999"/>
<path d="M137.285 128.041C136.732 128.062 136.209 128.297 135.827 128.696C135.445 129.096 135.234 129.629 135.239 130.182C135.242 130.294 135.254 130.406 135.276 130.517L128.899 134.282L129.671 138.19L137.849 132.088C138.299 131.964 138.697 131.695 138.978 131.322C139.26 130.948 139.41 130.492 139.405 130.025C139.4 129.759 139.343 129.497 139.236 129.253C139.129 129.009 138.976 128.789 138.784 128.604C138.592 128.42 138.366 128.275 138.118 128.178C137.871 128.081 137.606 128.034 137.34 128.039C137.322 128.04 137.303 128.04 137.285 128.041Z" fill="#FFDDA1"/>
<path d="M132.061 137.017C131.89 136.788 131.817 136.693 131.778 136.719C131.678 136.779 131.774 137.587 131.071 138.994C130.083 140.97 119.717 143.998 119.717 143.998L118.44 141.662L112.826 131.393L110.891 123.162C110.824 122.875 110.791 122.581 110.794 122.286C112.519 121.072 114.351 120.018 116.267 119.136C117.033 119.57 117.617 120.266 117.912 121.095L121.777 131.931L123.319 136.258C123.319 136.258 126.039 134.312 127.026 134.669C128.012 135.027 128.291 134.525 127.647 132.912C127.003 131.3 127.969 132.96 129.094 133.065C130.219 133.171 129.094 133.065 129.626 132.381C130.159 131.696 133.6 131.311 133.6 131.311L133.674 131.464L135.007 134.208L135.389 134.996C135.389 134.996 133.975 136.53 133.634 136.836C133.292 137.142 133.185 137.123 133.353 137.474C133.521 137.825 132.653 137.806 132.061 137.017Z" fill="#955AFF"/>
</g>
<path d="M129.656 79.0068H62.1165V79.3402H129.656V79.0068Z" fill="#CCCCCC"/>
<path d="M96.0001 48.167H95.6667V79.173H96.0001V48.167Z" fill="#CCCCCC"/>
<path d="M124.275 63.5029H67.3916V63.8363H124.275V63.5029Z" fill="#CCCCCC"/>
<path d="M72.4299 74.6666H71.5732L72.2382 74.3332L72.2582 74.3232L72.2632 74.3332L72.4299 74.6666Z" fill="#333333"/>
<path d="M78.2683 74.6666H77.4116L77.5783 74.3332L77.5833 74.3232L77.6033 74.3332L78.2683 74.6666Z" fill="#333333"/>
<path d="M129.833 82.0002V107.833H129.5V82.0002C129.5 81.1052 129.465 80.2185 129.395 79.3402C129.387 79.2285 129.378 79.1185 129.368 79.0068C128.891 73.6033 127.106 68.3969 124.168 63.8368C124.097 63.7252 124.025 63.6152 123.952 63.5035C120.903 58.8674 116.757 55.0566 111.88 52.4102C107.003 49.7638 101.548 48.3639 95.9999 48.335C95.9449 48.3333 95.8883 48.3333 95.8333 48.3333C95.7783 48.3333 95.7216 48.3333 95.6666 48.335C95.0349 48.3367 94.4082 48.3567 93.7866 48.395C89.9643 48.6235 86.2097 49.5069 82.6866 51.0067C76.5789 53.6146 71.3726 57.9602 67.7149 63.5033C67.6416 63.615 67.5699 63.725 67.4983 63.8367C64.5603 68.3968 62.7756 73.6031 62.2983 79.0067C62.2883 79.1183 62.2799 79.2283 62.2716 79.34C62.2016 80.2178 62.1666 81.1044 62.1666 82V107.833H61.8333V82C61.8333 80.9867 61.8771 79.985 61.9649 78.995C62.6826 70.8543 66.3103 63.2451 72.1831 57.5621C78.0558 51.8792 85.7801 48.5033 93.9399 48.0533C94.5666 48.0183 95.1977 48.0006 95.8333 48C104.329 48.0085 112.515 51.1942 118.782 56.931C125.049 62.6678 128.944 70.541 129.702 79.0033C129.788 79.9901 129.832 80.9891 129.833 82.0002Z" fill="#333333"/>
</g>
<defs>
<clipPath id="clip0_35_469">
<rect width="250" height="250" fill="white"/>
</clipPath>
</defs>
</svg>
