<svg width="250" height="250" viewBox="0 0 250 250" fill="none" xmlns="http://www.w3.org/2000/svg">
<g clip-path="url(#clip0_101_4567)">
<path d="M183.38 229.167H65.7759C62.1716 229.163 58.6073 228.412 55.3086 226.96C52.0099 225.507 49.0485 223.386 46.6119 220.73C44.1753 218.074 42.3166 214.941 41.1533 211.53C39.9901 208.119 39.5477 204.503 39.854 200.912L42.6665 167.375C43.1581 162.026 44.8187 156.85 47.5311 152.214C52.1804 144.373 59.6436 138.599 68.4009 136.068L108.432 124.323C118.982 121.216 130.205 121.216 140.755 124.323L180.797 136.094C189.53 138.613 196.978 144.359 201.63 152.167C204.352 156.807 206.019 161.988 206.515 167.344L209.333 200.917C209.639 204.51 209.195 208.128 208.03 211.541C206.864 214.954 205.003 218.088 202.563 220.743C200.123 223.399 197.158 225.519 193.856 226.969C190.554 228.419 186.986 229.168 183.38 229.167Z" fill="#33A0FB"/>
<path opacity="0.5" d="M124.578 166.667C129.27 166.677 133.904 165.628 138.134 163.599C142.364 161.569 146.082 158.611 149.01 154.945C151.938 151.279 154.001 146.999 155.046 142.425C156.09 137.851 156.089 133.1 155.042 128.526L140.724 124.323C130.173 121.216 118.951 121.216 108.401 124.323L94.0988 128.526C93.0515 133.101 93.0504 137.854 94.0956 142.429C95.1407 147.004 97.2052 151.285 100.135 154.951C103.065 158.618 106.785 161.575 111.017 163.604C115.249 165.632 119.885 166.679 124.578 166.667Z" fill="#0088FA"/>
<path d="M73.4791 57.6147C71.3648 53.4181 70.165 48.8208 69.9588 44.1262C69.7525 39.4317 70.5447 34.7469 72.2828 30.3811C74.0209 26.0153 76.6655 22.068 80.0419 18.7998C83.4183 15.5316 87.4497 13.017 91.8697 11.4219V11.4584C92.0416 9.31778 92.3124 7.38549 92.6093 5.72924C92.8986 4.11732 93.7471 2.65908 95.0056 1.61114C96.2641 0.563193 97.8519 -0.00729309 99.4895 7.04001e-05H142.198C168.87 7.04001e-05 186.375 31.1042 176.469 58.3334L169.698 76.9584H82.2812L73.4791 57.6147Z" fill="black"/>
<path d="M88.12 98.958H161.037C166.562 98.958 171.861 96.7631 175.768 92.8561C179.675 88.9491 181.87 83.65 181.87 78.1247C181.87 75.362 180.772 72.7125 178.819 70.759C176.865 68.8055 174.216 67.708 171.453 67.708H77.7033C74.9406 67.708 72.2911 68.8055 70.3376 70.759C68.3841 72.7125 67.2866 75.362 67.2866 78.1247C67.2866 83.65 69.4816 88.9491 73.3886 92.8561C77.2956 96.7631 82.5946 98.958 88.12 98.958Z" fill="#FFDDA1"/>
<path d="M145.411 109.375V135.417C145.411 140.942 143.216 146.241 139.309 150.148C135.402 154.055 130.103 156.25 124.578 156.25C119.053 156.25 113.754 154.055 109.847 150.148C105.94 146.241 103.745 140.942 103.745 135.417V109.375H145.411Z" fill="#FFDDA1"/>
<path d="M145.412 41.667H103.745C98.2196 41.667 92.9206 43.8619 89.0136 47.7689C85.1066 51.6759 82.9116 56.975 82.9116 62.5003V80.8597C82.909 87.7029 84.2549 94.4795 86.8725 100.802C89.49 107.125 93.328 112.87 98.1668 117.709L102.552 122.094C107.765 127.295 114.829 130.214 122.193 130.209H126.964C134.33 130.208 141.395 127.282 146.604 122.073L150.99 117.688C160.757 107.92 166.245 94.673 166.245 80.8597V62.5003C166.245 56.975 164.05 51.6759 160.143 47.7689C156.236 43.8619 150.937 41.667 145.412 41.667Z" fill="#FFDDA1"/>
<path d="M229.266 115.104C228.748 115.102 228.234 115.025 227.74 114.875C227.085 114.675 226.477 114.348 225.949 113.913C225.421 113.478 224.984 112.943 224.663 112.339C224.342 111.735 224.143 111.073 224.077 110.392C224.012 109.711 224.081 109.024 224.281 108.37C230.226 88.641 230.226 67.5983 224.281 47.8697C223.877 46.5484 224.015 45.1208 224.663 43.9008C225.312 42.6809 226.418 41.7685 227.74 41.3645C229.061 40.9604 230.488 41.0978 231.708 41.7464C232.928 42.3949 233.841 43.5015 234.245 44.8228C240.793 66.5377 240.793 89.7016 234.245 111.417C233.919 112.483 233.26 113.417 232.363 114.081C231.467 114.745 230.381 115.104 229.266 115.104Z" fill="#CCCCCC"/>
<path d="M19.8906 115.156C18.7703 115.155 17.6804 114.792 16.7825 114.122C15.8846 113.452 15.2266 112.511 14.9062 111.437C8.3646 89.7106 8.3646 66.5388 14.9062 44.8122C15.0955 44.1493 15.4146 43.5306 15.8448 42.9919C16.2751 42.4533 16.808 42.0054 17.4127 41.6743C18.0174 41.3432 18.6818 41.1354 19.3674 41.063C20.053 40.9906 20.7461 41.055 21.4066 41.2525C22.0671 41.4501 22.6818 41.7768 23.2151 42.2137C23.7484 42.6506 24.1896 43.189 24.5132 43.7978C24.8368 44.4065 25.0363 45.0734 25.1002 45.7598C25.1641 46.4463 25.0911 47.1386 24.8854 47.7966C18.9272 67.5764 18.9272 88.673 24.8854 108.453C25.1185 109.231 25.1664 110.053 25.0253 110.853C24.8841 111.653 24.5579 112.408 24.0725 113.06C23.5872 113.711 22.9563 114.24 22.2302 114.604C21.504 114.968 20.7028 115.157 19.8906 115.156Z" fill="#CCCCCC"/>
<path d="M44.4739 106.354C43.3427 106.354 42.2425 105.985 41.3395 105.304C40.4364 104.622 39.7798 103.666 39.4687 102.578C34.8923 86.5972 34.8923 69.6527 39.4687 53.6718C39.8486 52.3437 40.7405 51.2208 41.9482 50.5503C43.156 49.8798 44.5806 49.7165 45.9088 50.0963C47.2369 50.4762 48.3598 51.3681 49.0303 52.5759C49.7009 53.7836 49.8642 55.2083 49.4843 56.5364C45.4426 70.645 45.4426 85.6049 49.4843 99.7135C49.8644 101.038 49.7039 102.459 49.0381 103.666C48.3724 104.873 47.2555 105.766 45.9322 106.151C45.4585 106.289 44.9673 106.357 44.4739 106.354Z" fill="#CCCCCC"/>
<path d="M204.682 106.307C204.187 106.305 203.694 106.233 203.219 106.093C202.562 105.901 201.95 105.582 201.416 105.153C200.883 104.724 200.44 104.194 200.111 103.594C199.783 102.994 199.576 102.335 199.502 101.655C199.429 100.974 199.49 100.286 199.682 99.6298C203.71 85.5758 203.71 70.6733 199.682 56.6193C199.474 55.9586 199.4 55.2629 199.465 54.5732C199.529 53.8835 199.73 53.2135 200.056 52.6024C200.383 51.9914 200.828 51.4516 201.365 51.0146C201.903 50.5776 202.522 50.2523 203.187 50.0576C203.851 49.8629 204.548 49.8028 205.237 49.8808C205.925 49.9587 206.591 50.1732 207.195 50.5117C207.8 50.8502 208.331 51.3058 208.757 51.8519C209.183 52.3981 209.496 53.0237 209.677 53.6923C214.267 69.657 214.267 86.5921 209.677 102.557C209.362 103.638 208.705 104.588 207.804 105.264C206.904 105.94 205.808 106.306 204.682 106.307Z" fill="#CCCCCC"/>
<path d="M141.443 250C140.243 250.001 139.053 249.796 137.922 249.396L124.578 244.646L111.229 249.391C109.621 249.962 107.899 250.132 106.21 249.888C104.522 249.644 102.918 248.992 101.538 247.989C100.158 246.985 99.0432 245.661 98.2897 244.131C97.5362 242.6 97.1668 240.909 97.2135 239.203L97.6042 225.047L88.9688 213.818C87.9275 212.466 87.2315 210.88 86.9411 209.199C86.6506 207.517 86.7744 205.79 87.3017 204.167C87.829 202.544 88.744 201.074 89.9674 199.884C91.1908 198.694 92.6858 197.821 94.3229 197.339L107.911 193.334L115.917 181.651C116.881 180.242 118.174 179.089 119.684 178.292C121.194 177.496 122.876 177.079 124.583 177.079C126.291 177.079 127.973 177.496 129.483 178.292C130.993 179.089 132.286 180.242 133.25 181.651L141.245 193.334L154.828 197.339C156.465 197.821 157.96 198.695 159.183 199.885C160.406 201.074 161.321 202.544 161.849 204.167C162.377 205.789 162.501 207.516 162.212 209.198C161.922 210.879 161.227 212.465 160.188 213.818L151.547 225.047L151.938 239.203C151.976 240.606 151.734 242.003 151.224 243.311C150.714 244.618 149.948 245.811 148.969 246.817C147.991 247.824 146.821 248.624 145.528 249.171C144.235 249.717 142.846 249.999 141.443 250Z" fill="#FFAB14"/>
</g>
<defs>
<clipPath id="clip0_101_4567">
<rect width="250" height="250" fill="white"/>
</clipPath>
</defs>
</svg>
