<svg width="250" height="250" viewBox="0 0 250 250" fill="none" xmlns="http://www.w3.org/2000/svg">
<path d="M229.266 115.076C228.748 115.074 228.234 114.997 227.74 114.847C227.085 114.647 226.477 114.32 225.949 113.885C225.421 113.449 224.984 112.915 224.663 112.31C224.342 111.706 224.143 111.045 224.077 110.364C224.012 109.683 224.081 108.996 224.281 108.341C230.226 88.6127 230.226 67.57 224.281 47.8413C223.877 46.5201 224.015 45.0925 224.663 43.8725C225.312 42.6525 226.418 41.7402 227.74 41.3361C229.061 40.9321 230.488 41.0695 231.708 41.718C232.928 42.3666 233.841 43.4732 234.245 44.7945C240.793 66.5094 240.793 89.6733 234.245 111.388C233.919 112.455 233.26 113.389 232.363 114.053C231.467 114.717 230.381 115.075 229.266 115.076Z" fill="#CCCCCC"/>
<path d="M19.8906 115.128C18.7703 115.126 17.6804 114.764 16.7825 114.094C15.8846 113.424 15.2266 112.482 14.9062 111.409C8.3646 89.6823 8.3646 66.5105 14.9062 44.7839C15.0955 44.121 15.4146 43.5023 15.8448 42.9636C16.2751 42.425 16.808 41.9771 17.4127 41.646C18.0174 41.3148 18.6818 41.1071 19.3674 41.0347C20.053 40.9623 20.7461 41.0267 21.4066 41.2242C22.0671 41.4218 22.6818 41.7484 23.2151 42.1854C23.7484 42.6223 24.1896 43.1607 24.5132 43.7694C24.8368 44.3782 25.0363 45.0451 25.1002 45.7315C25.1641 46.418 25.0911 47.1103 24.8854 47.7683C18.9272 67.5481 18.9272 88.6447 24.8854 108.424C25.1185 109.203 25.1664 110.024 25.0253 110.824C24.8841 111.624 24.5579 112.38 24.0725 113.031C23.5872 113.683 22.9563 114.211 22.2302 114.575C21.504 114.939 20.7028 115.128 19.8906 115.128Z" fill="#CCCCCC"/>
<path d="M44.4739 106.326C43.3427 106.325 42.2425 105.957 41.3395 105.275C40.4364 104.594 39.7798 103.637 39.4687 102.55C34.8923 86.5689 34.8923 69.6244 39.4687 53.6435C39.8486 52.3154 40.7405 51.1925 41.9482 50.522C43.156 49.8514 44.5806 49.6881 45.9088 50.068C47.2369 50.4479 48.3598 51.3398 49.0303 52.5475C49.7009 53.7553 49.8642 55.1799 49.4843 56.5081C45.4426 70.6167 45.4426 85.5766 49.4843 99.6852C49.8644 101.01 49.7039 102.431 49.0381 103.638C48.3724 104.844 47.2555 105.738 45.9322 106.123C45.4585 106.261 44.9673 106.329 44.4739 106.326Z" fill="#CCCCCC"/>
<path d="M204.682 106.279C204.187 106.276 203.694 106.204 203.219 106.065C202.562 105.873 201.95 105.553 201.416 105.125C200.883 104.696 200.44 104.166 200.111 103.566C199.783 102.966 199.576 102.307 199.502 101.626C199.429 100.946 199.49 100.258 199.682 99.6014C203.71 85.5475 203.71 70.6449 199.682 56.591C199.474 55.9302 199.4 55.2346 199.465 54.5449C199.529 53.8551 199.73 53.1851 200.056 52.5741C200.383 51.9631 200.828 51.4233 201.365 50.9863C201.903 50.5493 202.522 50.224 203.187 50.0293C203.851 49.8346 204.548 49.7745 205.237 49.8524C205.925 49.9304 206.591 50.1449 207.195 50.4834C207.8 50.8218 208.331 51.2775 208.757 51.8236C209.183 52.3697 209.496 52.9954 209.677 53.6639C214.267 69.6287 214.267 86.5637 209.677 102.529C209.362 103.61 208.705 104.559 207.804 105.235C206.904 105.911 205.808 106.277 204.682 106.279Z" fill="#CCCCCC"/>
<path d="M186.24 151.014H62.9167C61.6237 151.012 60.3795 150.52 59.4357 149.636C58.492 148.753 57.9192 147.543 57.8334 146.253L56.6563 128.253C56.0486 119.416 58.4337 110.632 63.4271 103.316C67.7499 96.9285 69.3868 89.0974 67.9844 81.5136L65.1511 65.6907C64.4907 62.6987 64.2783 59.6252 64.5209 56.5709C65.4393 41.2523 72.1758 26.8636 83.3526 16.3478C94.5293 5.83207 109.302 -0.0159348 124.648 3.26121e-05C139.994 0.016 154.754 5.89474 165.908 16.4337C177.063 26.9727 183.77 41.3755 184.656 56.6959C184.885 59.7486 184.661 62.8184 183.99 65.8052L181.188 81.4823C179.776 89.0755 181.412 96.9191 185.74 103.316C190.73 110.625 193.115 119.402 192.51 128.232L191.333 146.253C191.247 147.545 190.673 148.756 189.727 149.64C188.781 150.524 187.534 151.015 186.24 151.014Z" fill="black"/>
<path d="M183.38 229.139H65.776C62.1718 229.135 58.6075 228.383 55.3087 226.931C52.01 225.479 49.0486 223.358 46.612 220.702C44.1755 218.046 42.3167 214.913 41.1535 211.502C39.9902 208.09 39.5478 204.475 39.8541 200.883L42.6666 167.347C43.1582 161.998 44.8188 156.822 47.5312 152.186C52.1805 144.345 59.6437 138.571 68.401 136.04L108.432 124.295C118.983 121.188 130.205 121.188 140.755 124.295L180.797 136.066C189.53 138.584 196.978 144.33 201.63 152.139C204.352 156.778 206.02 161.96 206.516 167.316L209.333 200.889C209.639 204.482 209.195 208.1 208.03 211.513C206.864 214.926 205.003 218.059 202.563 220.715C200.123 223.371 197.158 225.491 193.856 226.941C190.554 228.391 186.987 229.139 183.38 229.139Z" fill="#A16DFF"/>
<path d="M124.578 166.639C129.27 166.649 133.904 165.6 138.134 163.57C142.364 161.541 146.082 158.583 149.01 154.917C151.938 151.251 154.001 146.971 155.046 142.397C156.09 137.823 156.089 133.072 155.042 128.498L140.724 124.295C130.174 121.188 118.951 121.188 108.401 124.295L94.0989 128.498C93.0516 133.073 93.0505 137.825 94.0957 142.401C95.1408 146.976 97.2053 151.257 100.135 154.923C103.065 158.589 106.785 161.547 111.017 163.576C115.249 165.604 119.885 166.651 124.578 166.639Z" fill="#8948FF"/>
<path d="M141.443 249.972C140.243 249.972 139.053 249.768 137.922 249.368L124.578 244.618L111.229 249.363C109.621 249.933 107.899 250.104 106.21 249.86C104.522 249.615 102.918 248.963 101.538 247.96C100.158 246.957 99.0432 245.633 98.2897 244.102C97.5362 242.572 97.1668 240.88 97.2135 239.175L97.6042 225.019L88.9688 213.79C87.9275 212.438 87.2315 210.852 86.9411 209.17C86.6506 207.489 86.7744 205.762 87.3017 204.139C87.829 202.516 88.744 201.046 89.9674 199.856C91.1908 198.666 92.6858 197.792 94.3229 197.31L107.911 193.305L115.917 181.623C116.881 180.214 118.174 179.061 119.684 178.264C121.194 177.467 122.876 177.051 124.583 177.051C126.291 177.051 127.973 177.467 129.483 178.264C130.993 179.061 132.286 180.214 133.25 181.623L141.245 193.305L154.828 197.31C156.465 197.793 157.96 198.667 159.183 199.856C160.406 201.046 161.321 202.516 161.849 204.138C162.377 205.761 162.501 207.488 162.212 209.169C161.922 210.851 161.227 212.437 160.188 213.79L151.547 225.019L151.938 239.175C151.976 240.578 151.734 241.975 151.224 243.282C150.714 244.59 149.948 245.782 148.969 246.789C147.991 247.795 146.821 248.596 145.528 249.142C144.235 249.689 142.846 249.971 141.443 249.972Z" fill="#FFAB14"/>
<path d="M145.411 109.347V135.388C145.411 140.914 143.216 146.213 139.309 150.12C135.402 154.027 130.103 156.222 124.578 156.222C119.053 156.222 113.754 154.027 109.847 150.12C105.94 146.213 103.745 140.914 103.745 135.388V109.347H145.411Z" fill="#FFDDA1"/>
<path d="M82.9114 64.9974C82.8612 64.3326 82.9445 63.6644 83.1563 63.0323C83.3682 62.4001 83.7043 61.8167 84.145 61.3164C84.5856 60.8161 85.1218 60.4089 85.7222 60.1189C86.3225 59.8289 86.9747 59.6618 87.6406 59.6276C98.3333 59.1068 122.969 55.7005 134.516 36.4297C140.49 47.3078 150.529 55.3771 162.437 58.8724C163.576 59.1615 164.576 59.8416 165.263 60.7937C165.951 61.7458 166.282 62.9094 166.198 64.0807V80.7839C166.213 87.6316 164.877 94.4151 162.268 100.746C159.658 107.077 155.826 112.831 150.99 117.68L146.604 122.065C141.391 127.266 134.327 130.185 126.963 130.18H122.193C114.826 130.179 107.761 127.253 102.552 122.044L98.1718 117.68C93.3265 112.838 89.4844 107.087 86.8657 100.758C84.247 94.4283 82.9032 87.6441 82.9114 80.7943V64.9974Z" fill="#FFDDA1"/>
</svg>
