<svg width="250" height="250" viewBox="0 0 250 250" fill="none" xmlns="http://www.w3.org/2000/svg">
<path d="M213.125 67.208H36.0417C21.6593 67.208 10 78.8673 10 93.2497V223.458C10 237.84 21.6593 249.5 36.0417 249.5H213.125C227.507 249.5 239.167 237.84 239.167 223.458V93.2497C239.167 78.8673 227.507 67.208 213.125 67.208Z" fill="#F2F2F2"/>
<path opacity="0.5" d="M213.125 228.667H194.896V119.292H184.479V228.667H129.792V119.292H119.375V228.667H64.6875V119.292H54.2708V228.667H36.0417C21.6823 228.667 10 216.985 10 202.625V223.459C10 237.818 21.6823 249.5 36.0417 249.5H213.125C227.484 249.5 239.167 237.818 239.167 223.459V202.625C239.167 216.985 227.484 228.667 213.125 228.667Z" fill="#999999"/>
<path d="M132.396 62H116.771C111.018 62 106.354 66.6637 106.354 72.4167V145.333C106.354 151.086 111.018 155.75 116.771 155.75H132.396C138.149 155.75 142.813 151.086 142.813 145.333V72.4167C142.813 66.6637 138.149 62 132.396 62Z" fill="#333333"/>
<path d="M197.5 62H181.875C176.122 62 171.458 66.6637 171.458 72.4167V145.333C171.458 151.086 176.122 155.75 181.875 155.75H197.5C203.253 155.75 207.917 151.086 207.917 145.333V72.4167C207.917 66.6637 203.253 62 197.5 62Z" fill="#333333"/>
<path d="M67.2917 62H51.6667C45.9137 62 41.25 66.6637 41.25 72.4167V145.333C41.25 151.086 45.9137 155.75 51.6667 155.75H67.2917C73.0446 155.75 77.7083 151.086 77.7083 145.333V72.4167C77.7083 66.6637 73.0446 62 67.2917 62Z" fill="#333333"/>
</svg>
