<svg width="250" height="250" viewBox="0 0 250 250" fill="none" xmlns="http://www.w3.org/2000/svg">
<path d="M211.651 62.0985C179.031 31.3329 130.677 19.6766 86.406 35.4683C20.6821 58.937 -11.8857 132.015 13.7654 196.218C13.9268 196.546 14.0362 196.869 14.2029 197.197C28.1977 231.395 75.3018 235.916 95.7758 205.145C105.25 190.88 118.974 179.281 136.073 172.416C153.172 165.609 171.14 164.52 187.802 168.333C223.958 176.557 254.89 140.614 241.328 106.145C240.62 104.239 239.859 102.39 239.041 100.536C235.828 93.4006 232.015 86.7599 227.661 80.5516L211.651 62.0933V62.0985Z" fill="#F3EDFF"/>
<path d="M54.4788 171.385C65.9848 171.385 75.3122 162.058 75.3122 150.552C75.3122 139.046 65.9848 129.719 54.4788 129.719C42.9729 129.719 33.6455 139.046 33.6455 150.552C33.6455 162.058 42.9729 171.385 54.4788 171.385Z" fill="#FF3929"/>
<path d="M80.5206 111.489C92.0265 111.489 101.354 102.162 101.354 90.6556C101.354 79.1497 92.0265 69.8223 80.5206 69.8223C69.0147 69.8223 59.6873 79.1497 59.6873 90.6556C59.6873 102.162 69.0147 111.489 80.5206 111.489Z" fill="#FFAB14"/>
<path d="M143.021 93.2604C154.527 93.2604 163.854 83.933 163.854 72.4271C163.854 60.9212 154.527 51.5938 143.021 51.5938C131.515 51.5938 122.187 60.9212 122.187 72.4271C122.187 83.933 131.515 93.2604 143.021 93.2604Z" fill="#00D468"/>
<path d="M147 176.411C151.656 165.166 164.552 159.822 175.802 164.484C187.052 169.145 192.39 182.036 187.729 193.286C175.078 223.833 143.469 226.077 143.469 226.077C151.906 205.713 138.562 196.775 147 176.411Z" fill="#E5F3FF"/>
<path d="M236.656 23.7345C241.453 25.7241 243.828 31.1408 242.031 36.0158L197.031 158.261C194.109 166.193 185.177 170.104 177.364 166.87C169.552 163.636 166 154.552 169.547 146.875L224.172 28.6199C226.349 23.9064 231.859 21.7449 236.656 23.7345Z" fill="#0088FA"/>
</svg>
