<svg width="250" height="250" viewBox="0 0 250 250" fill="none" xmlns="http://www.w3.org/2000/svg">
<path d="M129.792 125.141C131.173 125.141 132.498 124.592 133.474 123.615C134.451 122.638 135 121.314 135 119.932V73.7865C135 72.4051 134.451 71.0804 133.474 70.1036C132.498 69.1269 131.173 68.5781 129.792 68.5781C128.41 68.5781 127.085 69.1269 126.109 70.1036C125.132 71.0804 124.583 72.4051 124.583 73.7865V119.932C124.583 121.314 125.132 122.638 126.109 123.615C127.085 124.592 128.41 125.141 129.792 125.141Z" fill="#666666"/>
<path d="M135.469 76.7027C135.72 79.1247 135.823 81.5598 135.776 83.9944C135.762 85.1959 135.343 86.3575 134.587 87.2913C133.831 88.2251 132.782 88.8765 131.609 89.1402C129.231 89.6965 126.82 90.1053 124.391 90.3642C107.977 92.0949 91.5482 87.2348 78.7177 76.8531C65.8873 66.4713 57.7062 51.4182 55.9739 35.0048C55.7228 32.5828 55.6201 30.1477 55.6666 27.7131C55.6805 26.511 56.0993 25.3487 56.8554 24.414C57.6114 23.4793 58.6606 22.8268 59.8333 22.5621C62.211 22.0105 64.6199 21.6035 67.0469 21.3433C83.461 19.6126 99.8904 24.4725 112.722 34.8541C125.553 45.2357 133.735 60.2889 135.469 76.7027Z" fill="#66E5A4"/>
<path d="M124.125 76.7027C123.872 79.1246 123.768 81.5597 123.812 83.9944C123.827 85.1956 124.247 86.3567 125.003 87.2904C125.759 88.224 126.807 88.8757 127.979 89.1402C130.358 89.6965 132.769 90.1052 135.198 90.3641C151.611 92.0948 168.04 87.2348 180.871 76.8531C193.701 66.4713 201.882 51.4182 203.614 35.0048C203.867 32.5829 203.972 30.1478 203.927 27.7131C203.91 26.5117 203.491 25.3508 202.735 24.4166C201.979 23.4825 200.932 22.8293 199.76 22.5621C197.381 22.0109 194.97 21.6039 192.542 21.3433C176.128 19.6126 159.699 24.4727 146.869 34.8544C134.038 45.2361 125.857 60.2893 124.125 76.7027Z" fill="#1AD877"/>
<path d="M204.015 163.214C198.887 147.654 189 134.099 175.751 124.464C162.501 114.828 146.559 109.599 130.177 109.516H129.693C113.306 109.595 97.3583 114.822 84.1044 124.459C70.8506 134.096 60.9608 147.655 55.8332 163.219C55.5175 163.922 55.3542 164.685 55.3542 165.456C55.3542 166.227 55.5175 166.989 55.8332 167.693C60.9608 183.257 70.8506 196.816 84.1044 206.452C97.3583 216.089 113.306 221.317 129.693 221.396H130.177C146.559 221.312 162.501 216.083 175.751 206.448C189 196.812 198.887 183.257 204.015 167.698C204.331 167.014 204.495 166.269 204.495 165.516V165.396C204.495 164.642 204.331 163.898 204.015 163.214Z" fill="#333333"/>
<path d="M237.146 166.182C235.182 162.253 231.917 159.125 227.907 157.33C223.897 155.535 219.39 155.185 215.151 156.338L171.859 168.161C169.102 168.92 166.284 169.443 163.437 169.724C168.54 164.664 171.497 157.834 171.693 150.651C171.715 149.178 171.444 147.716 170.895 146.349C170.347 144.982 169.532 143.738 168.498 142.689C167.464 141.64 166.232 140.807 164.873 140.239C163.514 139.671 162.056 139.379 160.583 139.38L98.3593 139.521C91.6704 139.535 85.0296 140.651 78.703 142.823L48.4947 153.172L30.8333 159.922V209.922L48.9322 214.427L92.3176 224.073C96.6695 225.041 101.114 225.53 105.573 225.531H142.703C151.632 225.522 160.451 223.567 168.547 219.802L228.193 191.948C230.492 190.871 232.553 189.345 234.254 187.459C235.955 185.573 237.261 183.366 238.095 180.968C238.93 178.57 239.275 176.029 239.112 173.495C238.949 170.961 238.281 168.485 237.146 166.213V166.182Z" fill="#FFDDA1"/>
<path d="M39.5365 135.558H22.1302C15.4309 135.558 10 140.988 10 147.688V217.177C10 223.877 15.4309 229.308 22.1302 229.308H39.5365C46.2358 229.308 51.6667 223.877 51.6667 217.177V147.688C51.6667 140.988 46.2358 135.558 39.5365 135.558Z" fill="#FF4D3E"/>
</svg>
