<svg width="150" height="89" viewBox="0 0 150 89" fill="none" xmlns="http://www.w3.org/2000/svg">
<path fill-rule="evenodd" clip-rule="evenodd" d="M52.1652 88.9973H6.49482C5.45981 88.9973 4.61981 88.1564 4.61981 87.1223V38.765C4.61981 36.5253 7.70795 36.3191 8.27982 38.1444H52.3181H52.6434V38.4697V85.2979C54.6215 85.7489 54.4612 88.9973 52.1652 88.9973Z" fill="#FF4D3E"/>
<path fill-rule="evenodd" clip-rule="evenodd" d="M52.1652 40.6409H2.24323C1.20823 40.6409 0.368225 39.7999 0.368225 38.7659V28.9155C0.368225 27.8805 1.20823 27.0405 2.24323 27.0405H52.1652C53.2002 27.0405 54.0402 27.8815 54.0402 28.9155V38.7659C54.0402 39.7999 53.2002 40.6409 52.1652 40.6409Z" fill="#999999"/>
<path fill-rule="evenodd" clip-rule="evenodd" d="M143.503 88.997H97.8329C95.6119 88.997 95.3897 85.9613 97.1663 85.3529V38.8472V38.5218H97.4916H141.641C141.88 36.3009 145.378 36.3825 145.378 38.7656V87.122C145.379 88.157 144.538 88.997 143.503 88.997Z" fill="#33A0FB"/>
<path fill-rule="evenodd" clip-rule="evenodd" d="M147.758 40.6409H97.8337C96.7987 40.6409 95.9587 39.7999 95.9587 38.7659V28.9155C95.9587 27.8805 96.7997 27.0405 97.8337 27.0405H147.758C148.793 27.0405 149.633 27.8815 149.633 28.9155V38.7659C149.633 39.7999 148.793 40.6409 147.758 40.6409Z" fill="#999999"/>
<path fill-rule="evenodd" clip-rule="evenodd" d="M97.8338 88.997H52.1652C51.1302 88.997 50.2902 88.1561 50.2902 87.122V12.3487C50.2902 10.0349 53.5846 9.89056 53.998 11.9137H96.001C96.4135 9.88963 99.7088 10.0359 99.7088 12.3487V87.122C99.7107 88.157 98.8688 88.997 97.8338 88.997Z" fill="#FFAB14"/>
<path fill-rule="evenodd" clip-rule="evenodd" d="M103.543 14.2249H46.4558C45.4208 14.2249 44.5808 13.3839 44.5808 12.3499V2.49952C44.5808 1.46451 45.4208 0.624512 46.4558 0.624512L103.543 0.62545C104.578 0.62545 105.418 1.46545 105.418 2.50045V12.3508C105.418 13.3839 104.578 14.2258 103.543 14.2258V14.2249Z" fill="#999999"/>
<path fill-rule="evenodd" clip-rule="evenodd" d="M75.2297 45.244C74.1947 45.244 73.3547 44.403 73.3547 43.369V26.7948C71.9672 28.1824 70.2937 30.5411 68.6268 28.8714C67.8946 28.1383 67.8937 26.9505 68.6268 26.2183L73.904 20.9411C75.0843 19.7608 77.1047 20.6064 77.1047 22.2667V43.3671C77.1047 44.403 76.2665 45.244 75.2297 45.244Z" fill="white"/>
<path fill-rule="evenodd" clip-rule="evenodd" d="M80.6869 45.2442H69.7734C67.3049 45.2442 67.3049 41.4941 69.7734 41.4941H80.6869C83.1544 41.4941 83.1544 45.2442 80.6869 45.2442Z" fill="white"/>
<path fill-rule="evenodd" clip-rule="evenodd" d="M88.8234 79.0755H61.1755C60.1405 79.0755 59.3005 78.2345 59.3005 77.2005V69.0151C59.3005 67.9801 60.1405 67.1401 61.1755 67.1401H88.8234C89.8584 67.1401 90.6984 67.9811 90.6984 69.0151V77.2005C90.6994 78.2364 89.8584 79.0755 88.8234 79.0755Z" fill="white"/>
<path fill-rule="evenodd" clip-rule="evenodd" d="M87.0047 62.1602H62.9943C60.5259 62.1602 60.5259 58.4102 62.9943 58.4102H87.0047C89.4722 58.4102 89.4722 62.1602 87.0047 62.1602Z" fill="white"/>
<path fill-rule="evenodd" clip-rule="evenodd" d="M87.0047 55.249H62.9943C60.5259 55.249 60.5259 51.499 62.9943 51.499H87.0047C89.4722 51.499 89.4722 55.249 87.0047 55.249Z" fill="white"/>
<path fill-rule="evenodd" clip-rule="evenodd" d="M36.1283 75.3004H23.0324C21.3317 75.3004 20.4927 73.1873 21.7855 72.0248C21.8727 71.9451 30.5577 64.2163 31.8805 62.9901C35.1993 59.9169 33.0111 54.3379 28.4886 54.3379C24.0289 54.3379 24.3102 59.1032 21.597 57.5422C18.5548 55.7919 23.458 50.5869 28.4896 50.5869C36.4461 50.5869 40.2074 60.3876 34.4314 65.7398C33.6543 66.4598 30.5361 69.2479 27.9552 71.5495L36.1293 71.5485C38.5968 71.5485 38.5977 75.2995 36.1293 75.2995L36.1283 75.3004Z" fill="white"/>
<path fill-rule="evenodd" clip-rule="evenodd" d="M125.533 75.2964H115.307C112.839 75.2964 112.839 71.5464 115.307 71.5464H124.158V64.8189H115.305C112.837 64.8189 112.838 61.0689 115.305 61.0689H124.158V54.3432L115.307 54.3423C112.839 54.3423 112.839 50.5923 115.307 50.5923H125.533C126.844 50.5923 127.908 51.6573 127.908 52.967V72.9227C127.908 74.2314 126.842 75.2964 125.533 75.2964Z" fill="white"/>
</svg>
