<svg width="250" height="250" viewBox="0 0 250 250" fill="none" xmlns="http://www.w3.org/2000/svg">
<g clip-path="url(#clip0_35_467)">
<path d="M250 0H0V250H250V0Z" fill="black"/>
<path d="M250 0H0V250H250V0Z" fill="white"/>
<mask id="mask0_35_467" style="mask-type:luminance" maskUnits="userSpaceOnUse" x="28" y="36" width="194" height="178">
<path d="M221.333 36H28.8334V214H221.333V36Z" fill="white"/>
</mask>
<g mask="url(#mask0_35_467)">
<path d="M204.21 178.606L188.583 155.381C188.583 155.381 212.248 163.648 209.563 178.606H204.21Z" fill="#00D468"/>
<path d="M42.229 178.76L41.6356 178.748C41.8651 172.148 42.5689 165.574 43.7415 159.075C46.3068 145.162 50.5723 136.024 56.4196 131.916L56.7603 132.402C43.1008 141.998 42.2358 178.393 42.229 178.76Z" fill="#00D468"/>
<path d="M49.6442 178.619L49.051 178.607C49.0637 177.95 49.4344 162.457 55.5297 158.176L55.8704 158.661C50.021 162.771 49.647 178.46 49.6442 178.619Z" fill="#00D468"/>
<path d="M60.135 132.456C60.722 132.456 61.2959 132.283 61.7842 131.957C62.2724 131.631 62.6529 131.167 62.8778 130.625C63.1026 130.083 63.1615 129.486 63.0471 128.91C62.9327 128.334 62.6502 127.805 62.2352 127.39C61.8201 126.975 61.2913 126.692 60.7156 126.578C60.1399 126.463 59.5431 126.522 59.0007 126.746C58.4583 126.971 57.9947 127.351 57.6686 127.839C57.3424 128.327 57.1683 128.901 57.1683 129.488C57.1682 129.878 57.2448 130.264 57.3938 130.624C57.5428 130.984 57.7613 131.311 58.0368 131.587C58.3123 131.862 58.6394 132.081 58.9994 132.23C59.3594 132.379 59.7453 132.456 60.135 132.456Z" fill="#FF16B4"/>
<path d="M58.6666 157.98C59.2536 157.98 59.8276 157.806 60.3158 157.48C60.804 157.154 61.1846 156.691 61.4094 156.148C61.6342 155.606 61.6931 155.009 61.5787 154.433C61.4643 153.858 61.1818 153.329 60.7668 152.914C60.3518 152.498 59.8229 152.216 59.2472 152.101C58.6715 151.986 58.0747 152.045 57.5323 152.27C56.9899 152.494 56.5264 152.875 56.2002 153.363C55.874 153.851 55.7 154.425 55.7 155.012C55.6998 155.401 55.7764 155.787 55.9254 156.147C56.0745 156.508 56.293 156.835 56.5685 157.11C56.8439 157.386 57.171 157.605 57.5311 157.754C57.8911 157.903 58.2769 157.98 58.6666 157.98Z" fill="#FF16B4"/>
<path d="M48.2616 134.235C48.819 137.798 47.3661 140.985 47.3661 140.985C47.3661 140.985 45.0095 138.396 44.452 134.833C43.8945 131.271 45.3475 128.083 45.3475 128.083C45.3475 128.083 47.7041 130.673 48.2616 134.235Z" fill="#00D468"/>
<path d="M57.9571 142.887C54.5481 144.057 51.1591 143.181 51.1591 143.181C51.1591 143.181 53.2971 140.408 56.7059 139.238C60.1147 138.068 63.5039 138.944 63.5039 138.944C63.5039 138.944 61.3667 141.716 57.9571 142.887Z" fill="#00D468"/>
<path d="M58.0667 165.491C56.5239 165.976 54.8808 166.047 53.302 165.697C54.3041 164.42 55.6542 163.46 57.1894 162.933C58.7247 162.406 60.3796 162.335 61.9547 162.727C60.923 163.973 59.5823 164.926 58.0667 165.491Z" fill="#00D468"/>
<path d="M221.036 179.2H29.1297C29.071 179.2 29.0137 179.182 28.9649 179.15C28.9161 179.117 28.8781 179.071 28.8556 179.017C28.8331 178.962 28.8273 178.903 28.8387 178.845C28.8501 178.788 28.8784 178.735 28.9199 178.693C28.9473 178.665 28.98 178.643 29.0161 178.629C29.0521 178.614 29.0907 178.606 29.1297 178.606H221.036C221.075 178.606 221.114 178.614 221.15 178.629C221.186 178.644 221.219 178.666 221.246 178.693C221.302 178.749 221.333 178.824 221.333 178.903C221.333 178.942 221.326 178.981 221.311 179.017C221.296 179.053 221.274 179.086 221.246 179.113C221.219 179.141 221.186 179.163 221.15 179.177C221.114 179.192 221.075 179.2 221.036 179.2Z" fill="#CCCCCC"/>
<path d="M150.382 192.882L147.955 199.202L122.44 192.843L126.021 183.517L150.382 192.882Z" fill="#FFDDA1"/>
<path d="M157.123 193.623L149.298 214L149.041 213.902C146.938 213.092 145.243 211.481 144.328 209.423C143.413 207.364 143.352 205.026 144.159 202.923V202.922L148.938 190.477L157.123 193.623Z" fill="#FF887F"/>
<path d="M111.61 113.756L100.491 114.798L99.9388 147.902C100.086 149.524 100.862 151.024 102.101 152.08C103.341 153.137 104.944 153.666 106.569 153.554L113.619 153.068L111.61 113.756Z" fill="#FF4D3E"/>
<path d="M150.811 112.126L143.202 112.028L142.752 151.363C144.434 151.418 146.109 151.127 147.673 150.506C149.237 149.885 150.656 148.949 151.843 147.756C153.029 146.563 153.957 145.138 154.568 143.57C155.179 142.003 155.461 140.326 155.396 138.644L150.811 112.126Z" fill="#FF4D3E"/>
<path d="M106.664 165.337C106.484 166.478 106.222 167.605 105.881 168.708C105.497 169.788 104.904 170.787 104.553 171.878C103.434 175.357 104.985 179.235 107.463 181.92C109.61 184.24 112.384 185.888 115.448 186.665C117.683 187.228 120.007 187.308 122.31 187.387C128.688 187.603 135.23 187.797 141.274 185.745C143.183 185.081 145.027 184.243 146.783 183.242C147.337 182.977 147.825 182.592 148.213 182.115C148.673 181.458 148.732 180.607 148.729 179.805C148.716 177.1 148.168 174.408 148.298 171.705C148.37 170.208 148.65 168.713 148.512 167.22C148.321 165.526 147.612 163.932 146.481 162.656C145.35 161.381 143.852 160.486 142.193 160.094C140.479 159.726 138.7 159.927 136.955 160.094C132.424 160.53 127.874 160.733 123.323 160.704C118.673 160.674 114.051 159.964 109.423 159.89C108.055 159.868 108.082 160.29 107.647 161.615C107.245 162.835 106.917 164.078 106.663 165.336L106.664 165.337Z" fill="#FF887F"/>
<path d="M88.4793 163.138C87.2288 162.823 85.9403 162.686 84.6517 162.731C83.2973 162.807 81.9746 163.17 80.7714 163.796C79.5681 164.422 78.512 165.297 77.673 166.363C76.8341 167.429 76.2316 168.661 75.9056 169.978C75.5797 171.295 75.5376 172.666 75.7823 174C76.0949 175.445 76.6052 176.841 77.299 178.147C78.3142 180.208 79.5323 182.265 81.4108 183.585C82.5108 184.358 83.7825 184.84 85.0397 185.313L94.9372 189.045C96.3932 189.593 97.8495 190.142 99.3205 190.652C106.708 193.206 114.41 194.738 122.212 195.205C124.589 195.347 127.001 195.385 129.32 194.843C129.87 194.715 130.457 194.523 130.775 194.057C130.964 193.728 131.075 193.36 131.101 192.982L131.71 188.717C131.795 188.115 131.878 187.483 131.658 186.918C131.379 186.2 130.68 185.75 130.013 185.367C123.506 181.627 115.908 179.563 110.431 174.432C109.142 173.223 108.063 171.308 106.496 170.488C104.72 169.557 102.628 169.025 100.792 168.168C96.7767 166.293 92.8298 164.139 88.4793 163.138Z" fill="#FF887F"/>
<path opacity="0.1" d="M98.3605 168.89C101.859 169.987 116.629 177.585 119.161 180.239C118.821 180.36 107.308 173.905 106.962 173.8C103.822 172.859 100.664 171.909 97.6817 170.529C97.0817 170.25 93.7842 168.945 93.9335 168.189C94.102 167.334 97.7395 168.695 98.3605 168.89Z" fill="#CCCCCC"/>
<path d="M119.474 102.629L110.054 109.785C110.054 109.785 100.115 110.096 100.451 116.453C100.787 122.811 104.765 152.91 104.765 152.91L105.628 163.266L121.999 167.933C130.844 170.454 140.189 170.655 149.135 168.515L147.189 158.125C147.189 158.125 155.067 110.938 150.321 108.861C145.575 106.783 142.609 107.378 142.609 107.378L136.661 102.184L119.474 102.629Z" fill="#FF4D3E"/>
<path d="M147.355 91.0698C147.355 100.36 138.77 98.9545 128.18 98.9545C117.59 98.9545 109.006 100.36 109.006 91.0698C109.006 81.78 113.2 65.3135 128.18 65.3135C143.677 65.3135 147.355 81.7801 147.355 91.0698Z" fill="#33A0FB"/>
<path d="M138.148 94.2181C139.953 92.4134 141.183 90.1137 141.682 87.6099C142.181 85.106 141.925 82.5106 140.949 80.1518C139.972 77.793 138.318 75.7768 136.195 74.3583C134.073 72.9398 131.577 72.1826 129.024 72.1826C126.471 72.1826 123.975 72.9398 121.853 74.3583C119.73 75.7768 118.076 77.793 117.099 80.1518C116.123 82.5106 115.867 85.106 116.366 87.6099C116.865 90.1137 118.095 92.4134 119.9 94.2181C122.322 96.6346 125.603 97.9918 129.024 97.9918C132.445 97.9918 135.726 96.6346 138.148 94.2181Z" fill="#FFDDA1"/>
<path d="M113.208 84.7624H118.312L120.563 78.4547L121.013 84.7624H123.452L124.766 81.0829L125.028 84.7624H143.152C143.153 82.9682 142.8 81.1914 142.114 79.5336C141.428 77.8758 140.422 76.3693 139.153 75.1002C137.885 73.8312 136.379 72.8243 134.722 72.1372C133.064 71.4501 131.288 71.0962 129.494 71.0957H126.867C125.072 71.0962 123.296 71.4501 121.638 72.1372C119.981 72.8243 118.475 73.8311 117.207 75.1002C115.939 76.3693 114.933 77.8757 114.246 79.5336C113.56 81.1914 113.207 82.9682 113.208 84.7624H113.208Z" fill="#33A0FB"/>
<path d="M141.126 104.113H115.321V135.276H141.126V104.113Z" fill="#955AFF"/>
<path d="M116.743 192.585L119.17 198.905L144.686 192.547L141.104 183.219L116.743 192.585Z" fill="#FFDDA1"/>
<path d="M118.186 190.18L122.965 202.625V202.626C123.772 204.73 123.712 207.067 122.796 209.126C121.881 211.184 120.186 212.795 118.084 213.605L117.826 213.703L110.002 193.326L118.186 190.18Z" fill="#FF887F"/>
<path d="M167.747 160.719C169.796 160.205 171.921 160.059 174.022 160.29C175.698 160.475 177.428 160.942 178.652 162.104C180.143 163.518 180.622 165.705 180.662 167.76C180.728 171.853 179.372 175.843 176.823 179.047C176.201 179.857 175.461 180.569 174.628 181.16C173.73 181.722 172.773 182.184 171.773 182.537L149.609 191.285C143.778 193.587 137.925 195.893 131.844 197.412C131.68 197.491 131.502 197.537 131.32 197.547C131.139 197.558 130.957 197.532 130.785 197.472C130.613 197.412 130.455 197.318 130.32 197.197C130.184 197.076 130.074 196.929 129.995 196.765C129.99 196.755 129.985 196.745 129.981 196.735C128.038 193.959 126.409 190.977 125.123 187.843C125.03 187.731 124.982 187.589 124.987 187.444C124.992 187.299 125.05 187.161 125.149 187.055C125.214 186.984 125.296 186.93 125.387 186.898L141.065 177.885C142.188 177.24 143.323 176.585 144.256 175.685C144.933 175.028 145.488 174.255 145.894 173.403C146.219 172.725 146.249 171.122 146.664 170.62C147.071 170.128 148.461 170.088 149.103 169.895C150.009 169.618 150.896 169.283 151.758 168.892C155.265 167.322 158.388 165.041 161.75 163.203C163.635 162.124 165.651 161.289 167.747 160.719V160.719Z" fill="#FF887F"/>
<path opacity="0.1" d="M158.858 167.45C156.165 169.474 152.677 171.335 150.008 173.412C149.097 174.122 133.909 182.665 133.695 183.8C136.185 184.22 152.05 173.115 154.32 172.007C156.59 170.899 158.602 169.335 160.596 167.785C161.104 167.39 163.257 166.201 161.798 165.76C160.976 165.511 159.465 167.045 158.858 167.45Z" fill="#CCCCCC"/>
<path d="M207.27 89.3371C209.105 89.3382 210.898 88.7952 212.424 87.7769C213.95 86.7585 215.139 85.3105 215.842 83.616C216.545 81.9215 216.729 80.0566 216.372 78.2573C216.015 76.4579 215.132 74.8049 213.835 73.5074C212.539 72.2098 210.886 71.326 209.087 70.9677C207.288 70.6094 205.423 70.7927 203.728 71.4945C202.033 72.1962 200.584 73.3849 199.565 74.9101C198.546 76.4353 198.002 78.2286 198.002 80.0631C198.001 82.5219 198.977 84.8803 200.715 86.6195C202.453 88.3587 204.811 89.3362 207.27 89.3371Z" fill="#80C3FC"/>
<path d="M190.117 90.9977C191.404 90.9985 192.662 90.6176 193.732 89.9032C194.802 89.1888 195.637 88.1731 196.13 86.9844C196.623 85.7957 196.752 84.4875 196.502 83.2253C196.251 81.963 195.632 80.8034 194.722 79.8932C193.813 78.983 192.653 78.363 191.391 78.1116C190.129 77.8603 188.821 77.9889 187.632 78.4812C186.443 78.9734 185.427 79.8073 184.712 80.8772C183.997 81.9472 183.615 83.2051 183.615 84.492C183.615 86.2168 184.299 87.8712 185.519 89.0912C186.738 90.3112 188.392 90.997 190.117 90.9977Z" fill="#80C3FC"/>
<path d="M71.0153 86.7546C72.0472 86.7553 73.0562 86.4499 73.9145 85.8771C74.7728 85.3043 75.4419 84.4898 75.8373 83.5366C76.2326 82.5834 76.3364 81.5344 76.1355 80.5223C75.9346 79.5101 75.438 78.5803 74.7086 77.8504C73.9792 77.1205 73.0496 76.6233 72.0376 76.4218C71.0256 76.2202 69.9765 76.3233 69.0231 76.7181C68.0697 77.1128 67.2548 77.7814 66.6814 78.6394C66.108 79.4973 65.802 80.5061 65.802 81.538C65.8017 82.2228 65.9364 82.901 66.1982 83.5338C66.4601 84.1666 66.844 84.7417 67.3282 85.2261C67.8123 85.7105 68.3871 86.0948 69.0197 86.3571C69.6524 86.6194 70.3305 86.7545 71.0153 86.7546Z" fill="#80C3FC"/>
<path d="M79.5983 90.2617C80.3221 90.2621 81.0298 90.0478 81.6318 89.646C82.2338 89.2442 82.7031 88.6728 82.9804 88.0043C83.2576 87.3357 83.3304 86.5999 83.1894 85.8899C83.0485 85.18 82.7002 84.5278 82.1885 84.0159C81.6769 83.5039 81.0249 83.1552 80.315 83.0138C79.6052 82.8725 78.8693 82.9448 78.2006 83.2217C77.5319 83.4985 76.9602 83.9675 76.5581 84.5693C76.1559 85.171 75.9412 85.8786 75.9412 86.6024C75.941 87.0828 76.0355 87.5585 76.2192 88.0024C76.4029 88.4463 76.6722 88.8497 77.0118 89.1895C77.3514 89.5293 77.7547 89.7989 78.1984 89.9828C78.6422 90.1668 79.1179 90.2616 79.5983 90.2617Z" fill="#80C3FC"/>
<path d="M130.171 43.975C130.96 43.9755 131.731 43.7421 132.387 43.3042C133.043 42.8664 133.555 42.2438 133.857 41.5152C134.159 40.7866 134.238 39.9848 134.085 39.2111C133.931 38.4374 133.552 37.7267 132.994 37.1688C132.437 36.6109 131.726 36.2309 130.952 36.0768C130.179 35.9227 129.377 36.0016 128.648 36.3033C127.92 36.605 127.297 37.1161 126.858 37.7719C126.42 38.4277 126.186 39.1987 126.186 39.9875C126.186 41.0447 126.606 42.0588 127.353 42.8066C128.1 43.5543 129.114 43.9746 130.171 43.975Z" fill="#80C3FC"/>
<path opacity="0.17" d="M106.422 123.997L106.779 121.246C106.779 121.246 120.067 122.217 117.99 125.481C115.914 128.746 110.872 129.043 110.872 129.043L106.422 123.997Z" fill="#FF887F"/>
<path d="M116.453 112.035C117.214 112.119 117.947 112.37 118.6 112.771C119.252 113.172 119.808 113.713 120.227 114.354C120.609 114.939 120.869 115.595 120.991 116.283C121.113 116.972 121.095 117.677 120.937 118.358C120.78 119.039 120.487 119.681 120.075 120.245C119.663 120.81 119.142 121.286 118.542 121.644C118.322 121.774 118.092 121.887 117.855 121.982L109.687 146.979C109.452 147.474 109.12 147.917 108.712 148.283C108.304 148.649 107.828 148.931 107.311 149.112C106.793 149.293 106.245 149.369 105.698 149.337C105.151 149.305 104.616 149.165 104.123 148.925C103.631 148.685 103.19 148.35 102.828 147.939C102.465 147.528 102.188 147.049 102.012 146.53C101.835 146.011 101.763 145.463 101.8 144.916C101.837 144.369 101.981 143.835 102.226 143.345L110.912 118.625C110.675 117.807 110.643 116.943 110.819 116.111C110.995 115.278 111.374 114.501 111.922 113.85C112.47 113.198 113.17 112.692 113.96 112.375C114.751 112.059 115.607 111.942 116.453 112.035Z" fill="#FFDDA1"/>
<path d="M106.544 121.48C106.544 121.48 111.224 129.48 117.99 125.48L111.433 150.589H105.909L100.194 149.521L101.794 139.147L106.544 121.48Z" fill="#FF4D3E"/>
<path d="M139.961 126.95L136.083 121.623C136.083 121.623 137.947 116.099 145.172 118.119C145.172 118.119 149.77 128.416 139.961 126.95Z" fill="#FF4D3E"/>
<path opacity="0.17" d="M139.961 126.95L136.083 121.623C136.083 121.623 137.947 116.099 145.172 118.119C145.172 118.119 149.77 128.416 139.961 126.95Z" fill="#FF887F"/>
<path d="M140.987 108.342C142.106 108.863 143 109.768 143.509 110.892C144.017 112.017 144.104 113.286 143.756 114.47L152.442 139.19C152.687 139.68 152.832 140.215 152.869 140.762C152.906 141.309 152.834 141.858 152.658 142.377C152.482 142.896 152.204 143.376 151.842 143.787C151.479 144.198 151.039 144.534 150.546 144.774C150.053 145.014 149.517 145.154 148.97 145.186C148.422 145.218 147.874 145.141 147.356 144.96C146.839 144.778 146.362 144.496 145.955 144.13C145.547 143.763 145.216 143.32 144.98 142.824L136.813 117.827C136.575 117.732 136.346 117.619 136.126 117.489C135.526 117.131 135.004 116.655 134.593 116.09C134.181 115.526 133.888 114.884 133.73 114.203C133.573 113.522 133.555 112.817 133.677 112.129C133.799 111.441 134.058 110.784 134.44 110.199C134.859 109.558 135.415 109.018 136.067 108.617C136.72 108.216 137.453 107.964 138.215 107.88C139.164 107.773 140.124 107.933 140.987 108.342Z" fill="#FFDDA1"/>
<path d="M136.083 121.623C136.083 121.623 142.48 125.506 145.172 118.119L154.186 141.867L151.507 146.554L151.12 146.586C149.522 146.719 147.916 146.462 146.439 145.837C144.962 145.213 143.659 144.239 142.642 142.999C140.566 140.469 139.153 137.463 138.531 134.25L136.083 121.623Z" fill="#FF4D3E"/>
<path d="M155.416 63.9774C161.704 63.9774 166.801 58.8801 166.801 52.5922C166.801 46.3043 161.704 41.207 155.416 41.207C149.128 41.207 144.031 46.3043 144.031 52.5922C144.031 58.8801 149.128 63.9774 155.416 63.9774Z" fill="#FFBC43"/>
<path d="M180.899 47.2018C180.24 44.9953 178.379 43.5558 176.131 43.2403C176.108 43.238 176.083 43.2426 176.06 43.2403C176.028 43.2302 175.996 43.2225 175.963 43.2173C172.778 42.8299 169.557 43.5313 166.822 45.2073C166.196 45.5984 165.541 45.9418 164.864 46.2345C162.692 47.1502 160.368 47.6533 158.012 47.7178C157.993 47.7178 157.975 47.7201 157.957 47.7201C156.802 47.7968 155.7 48.2274 154.8 48.9531C153.899 49.6789 153.244 50.6646 152.924 51.776C152.89 51.9118 152.9 52.055 152.953 52.1847C153.006 52.3143 153.099 52.4236 153.219 52.4968C153.563 52.7882 153.97 52.9956 154.407 53.1025C155.354 53.3025 156.303 53.4858 157.254 53.6525C159.113 53.9772 160.981 54.2398 162.858 54.4401C164.101 54.5735 165.347 54.6778 166.596 54.7533C169.171 54.9145 171.757 54.9533 174.337 54.8731C175.613 54.834 176.843 54.7925 178.013 54.2283C178.863 53.8088 179.59 53.1747 180.12 52.3886C180.621 51.6332 180.95 50.7775 181.084 49.8814C181.218 48.9854 181.155 48.0708 180.899 47.2018Z" fill="#4DACFB"/>
</g>
</g>
<defs>
<clipPath id="clip0_35_467">
<rect width="250" height="250" fill="white"/>
</clipPath>
</defs>
</svg>
