<svg width="250" height="250" viewBox="0 0 250 250" fill="none" xmlns="http://www.w3.org/2000/svg">
<g clip-path="url(#clip0_117_1149)">
<path d="M125 250C194.036 250 250 194.036 250 125C250 55.9644 194.036 0 125 0C55.9644 0 0 55.9644 0 125C0 194.036 55.9644 250 125 250Z" fill="#F2F2F2"/>
<circle cx="125" cy="92.7735" r="19.5313" fill="#D9D9D9"/>
<circle cx="77.1486" cy="123.047" r="14.6485" fill="#D9D9D9"/>
<circle cx="172.852" cy="123.047" r="14.6485" fill="#D9D9D9"/>
<path fill-rule="evenodd" clip-rule="evenodd" d="M102.165 204.997H56.4949C55.4599 204.997 54.6199 204.156 54.6199 203.122V154.765C54.6199 152.525 57.708 152.319 58.2799 154.144H102.318H102.643V154.469V201.297C104.622 201.748 104.461 204.997 102.165 204.997Z" fill="#FF4D3E"/>
<path fill-rule="evenodd" clip-rule="evenodd" d="M102.165 156.64H52.2433C51.2083 156.64 50.3683 155.799 50.3683 154.765V144.915C50.3683 143.88 51.2083 143.04 52.2433 143.04H102.165C103.2 143.04 104.04 143.881 104.04 144.915V154.765C104.04 155.799 103.2 156.64 102.165 156.64Z" fill="#999999"/>
<path fill-rule="evenodd" clip-rule="evenodd" d="M193.503 204.997H147.833C145.612 204.997 145.39 201.961 147.166 201.353V154.847V154.522H147.492H191.641C191.881 152.301 195.378 152.382 195.378 154.766V203.122C195.379 204.157 194.538 204.997 193.503 204.997Z" fill="#33A0FB"/>
<path fill-rule="evenodd" clip-rule="evenodd" d="M197.758 156.64H147.834C146.799 156.64 145.959 155.799 145.959 154.765V144.915C145.959 143.88 146.8 143.04 147.834 143.04H197.758C198.793 143.04 199.633 143.881 199.633 144.915V154.765C199.633 155.799 198.793 156.64 197.758 156.64Z" fill="#999999"/>
<path fill-rule="evenodd" clip-rule="evenodd" d="M147.834 204.997H102.165C101.13 204.997 100.29 204.156 100.29 203.121V128.348C100.29 126.034 103.585 125.89 103.998 127.913H146.001C146.414 125.889 149.709 126.035 149.709 128.348V203.121C149.711 204.157 148.869 204.997 147.834 204.997Z" fill="#FFAB14"/>
<path fill-rule="evenodd" clip-rule="evenodd" d="M153.543 130.224H96.4559C95.4209 130.224 94.5809 129.383 94.5809 128.349V118.499C94.5809 117.464 95.4209 116.624 96.4559 116.624L153.543 116.625C154.578 116.625 155.418 117.465 155.418 118.5V128.35C155.418 129.383 154.578 130.225 153.543 130.225V130.224Z" fill="#999999"/>
<path fill-rule="evenodd" clip-rule="evenodd" d="M125.23 161.244C124.195 161.244 123.355 160.403 123.355 159.369V142.795C121.967 144.182 120.294 146.541 118.627 144.871C117.895 144.138 117.894 142.95 118.627 142.218L123.904 136.941C125.084 135.761 127.105 136.606 127.105 138.267V159.367C127.105 160.403 126.267 161.244 125.23 161.244Z" fill="white"/>
<path fill-rule="evenodd" clip-rule="evenodd" d="M130.687 161.243H119.773C117.305 161.243 117.305 157.493 119.773 157.493H130.687C133.154 157.493 133.154 161.243 130.687 161.243Z" fill="white"/>
<path fill-rule="evenodd" clip-rule="evenodd" d="M138.824 195.075H111.176C110.141 195.075 109.301 194.234 109.301 193.2V185.015C109.301 183.98 110.141 183.14 111.176 183.14H138.824C139.859 183.14 140.699 183.981 140.699 185.015V193.2C140.699 194.236 139.859 195.075 138.824 195.075Z" fill="white"/>
<path fill-rule="evenodd" clip-rule="evenodd" d="M137.005 178.16H112.994C110.526 178.16 110.526 174.41 112.994 174.41H137.005C139.472 174.41 139.472 178.16 137.005 178.16Z" fill="white"/>
<path fill-rule="evenodd" clip-rule="evenodd" d="M137.005 171.248H112.994C110.526 171.248 110.526 167.498 112.994 167.498H137.005C139.472 167.498 139.472 171.248 137.005 171.248Z" fill="white"/>
<path fill-rule="evenodd" clip-rule="evenodd" d="M86.1283 191.299H73.0324C71.3317 191.299 70.4927 189.186 71.7855 188.024C71.8727 187.944 80.5577 180.215 81.8805 178.989C85.1993 175.916 83.0111 170.337 78.4886 170.337C74.0289 170.337 74.3102 175.102 71.597 173.541C68.5548 171.791 73.458 166.586 78.4896 166.586C86.4461 166.586 90.2074 176.387 84.4314 181.739C83.6543 182.459 80.5361 185.247 77.9552 187.548L86.1293 187.548C88.5968 187.548 88.5977 191.298 86.1293 191.298L86.1283 191.299Z" fill="white"/>
<path fill-rule="evenodd" clip-rule="evenodd" d="M175.533 191.296H165.307C162.839 191.296 162.839 187.546 165.307 187.546H174.158V180.818H165.305C162.837 180.818 162.838 177.068 165.305 177.068H174.158V170.343L165.307 170.342C162.839 170.342 162.839 166.592 165.307 166.592H175.533C176.844 166.592 177.908 167.657 177.908 168.966V188.922C177.908 190.231 176.842 191.296 175.533 191.296Z" fill="white"/>
</g>
<defs>
<clipPath id="clip0_117_1149">
<rect width="250" height="250" fill="white"/>
</clipPath>
</defs>
</svg>
