<svg width="250" height="250" viewBox="0 0 250 250" fill="none" xmlns="http://www.w3.org/2000/svg">
<path d="M124.979 236.958C186.824 236.958 236.958 186.824 236.958 124.979C236.958 63.1348 186.824 13 124.979 13C63.1348 13 13 63.1348 13 124.979C13 186.824 63.1348 236.958 124.979 236.958Z" fill="#1A94FA"/>
<path d="M124.979 221.333C176.756 221.333 218.729 179.36 218.729 127.583C218.729 75.8063 176.756 33.833 124.979 33.833C73.2026 33.833 31.2292 75.8063 31.2292 127.583C31.2292 179.36 73.2026 221.333 124.979 221.333Z" fill="#F2F2F2"/>
<path d="M124.979 59.875C122.104 59.875 119.771 57.5417 119.771 54.6667V49.4583C119.771 46.5833 122.104 44.25 124.979 44.25C127.854 44.25 130.188 46.5833 130.188 49.4583V54.6667C130.188 57.5417 127.854 59.875 124.979 59.875Z" fill="#CCCCCC"/>
<path d="M124.979 210.916C122.104 210.916 119.771 208.583 119.771 205.708V200.499C119.771 197.624 122.104 195.291 124.979 195.291C127.854 195.291 130.188 197.624 130.188 200.499V205.708C130.188 208.583 127.854 210.916 124.979 210.916Z" fill="#CCCCCC"/>
<path d="M203.104 132.792H197.896C195.021 132.792 192.688 130.458 192.688 127.583C192.688 124.708 195.021 122.375 197.896 122.375H203.104C205.979 122.375 208.312 124.708 208.312 127.583C208.312 130.458 205.979 132.792 203.104 132.792Z" fill="#CCCCCC"/>
<path d="M52.0627 132.792H46.8543C43.9793 132.792 41.646 130.458 41.646 127.583C41.646 124.708 43.9793 122.375 46.8543 122.375H52.0627C54.9377 122.375 57.271 124.708 57.271 127.583C57.271 130.458 54.9377 132.792 52.0627 132.792Z" fill="#CCCCCC"/>
<path d="M172.854 79.708C170.823 77.6768 170.823 74.3747 172.854 72.3434L176.537 68.6611C178.568 66.6299 181.87 66.6299 183.901 68.6611C185.932 70.6924 185.932 73.9945 183.901 76.0257L180.219 79.708C178.188 81.7393 174.885 81.7393 172.854 79.708Z" fill="#CCCCCC"/>
<path d="M66.0522 186.51C64.021 184.479 64.021 181.176 66.0522 179.145L69.7345 175.463C71.7658 173.432 75.0679 173.432 77.0991 175.463C79.1304 177.494 79.1304 180.796 77.0991 182.827L73.4168 186.51C71.3856 188.541 68.0835 188.541 66.0522 186.51Z" fill="#CCCCCC"/>
<path d="M176.537 186.51L172.854 182.827C170.823 180.796 170.823 177.494 172.854 175.463C174.885 173.432 178.188 173.432 180.219 175.463L183.901 179.145C185.932 181.176 185.932 184.479 183.901 186.51C181.87 188.541 178.568 188.541 176.537 186.51Z" fill="#CCCCCC"/>
<path d="M69.7345 79.708L66.0522 76.0257C64.021 73.9945 64.021 70.6924 66.0522 68.6611C68.0835 66.6299 71.3856 66.6299 73.4168 68.6611L77.0991 72.3434C79.1304 74.3747 79.1304 77.6768 77.0991 79.708C75.0679 81.7393 71.7658 81.7393 69.7345 79.708Z" fill="#CCCCCC"/>
<path d="M124.979 122.374C122.104 122.374 119.771 120.041 119.771 117.166V75.4993C119.771 72.6243 122.104 70.291 124.979 70.291C127.854 70.291 130.188 72.6243 130.188 75.4993V117.166C130.188 120.041 127.854 122.374 124.979 122.374Z" fill="#333333"/>
<path d="M151.021 158.833C149.688 158.833 148.354 158.322 147.339 157.307L128.641 138.609C126.604 136.572 126.604 133.281 128.641 131.244C130.677 129.208 133.969 129.208 136.005 131.244L154.703 149.942C156.74 151.979 156.74 155.27 154.703 157.307C153.688 158.322 152.354 158.833 151.021 158.833Z" fill="#333333"/>
<path d="M124.979 143.208C116.365 143.208 109.354 136.198 109.354 127.583C109.354 118.968 116.365 111.958 124.979 111.958C133.594 111.958 140.604 118.968 140.604 127.583C140.604 136.198 133.594 143.208 124.979 143.208Z" fill="#1A94FA"/>
<path d="M124.979 132.792C127.856 132.792 130.188 130.46 130.188 127.583C130.188 124.707 127.856 122.375 124.979 122.375C122.103 122.375 119.771 124.707 119.771 127.583C119.771 130.46 122.103 132.792 124.979 132.792Z" fill="#CCCCCC"/>
</svg>
