<svg width="250" height="250" viewBox="0 0 250 250" fill="none" xmlns="http://www.w3.org/2000/svg">
<path d="M124.583 239.167C187.866 239.167 239.167 187.866 239.167 124.583C239.167 61.3008 187.866 10 124.583 10C61.3008 10 10 61.3008 10 124.583C10 187.866 61.3008 239.167 124.583 239.167Z" fill="#99CFFD"/>
<path d="M119.054 58.1904V58.3857C119.054 60.2416 118.537 62.0608 117.561 63.6392C116.584 65.2175 115.187 66.4926 113.527 67.3213L86.8726 80.6514C86.5019 80.8363 86.1432 81.044 85.7983 81.2734L72.1567 90.3721C70.7096 91.3383 69.5382 92.6638 68.7573 94.2188L66.7275 98.2891C66.0317 99.6756 65.6694 101.205 65.6694 102.757C65.6694 104.308 66.0317 105.838 66.7275 107.225C67.6646 109.102 67.9875 111.226 67.6507 113.297C67.3139 115.368 66.3343 117.281 64.8506 118.765L64.5503 119.065C62.9747 120.641 60.9171 121.645 58.7051 121.917C56.4931 122.189 54.2537 121.713 52.3433 120.565L34.9214 110.116C32.8752 108.888 31.3364 106.968 30.5835 104.704L26.2949 91.8428C21.168 91.8428 18.0884 89.5566 16.2661 87.1284V87.123C25.4375 60.6959 43.9344 38.5221 68.2881 24.7598L84.2207 35.8252C85.5953 36.7805 86.7079 38.0657 87.4565 39.563L89.0117 42.6675C89.8404 44.3281 91.1155 45.7249 92.6938 46.7012C94.2722 47.6776 96.0914 48.1948 97.9473 48.1948H109.056C110.369 48.1944 111.669 48.4526 112.882 48.9547C114.095 49.4569 115.198 50.1931 116.126 51.1213C117.054 52.0496 117.791 53.1516 118.293 54.3646C118.796 55.5775 119.054 56.8775 119.054 58.1904Z" fill="#00D468"/>
<path d="M135.423 156.034V161.682C135.425 162.406 135.309 163.127 135.082 163.815L130.471 177.636C130.142 178.629 129.585 179.532 128.845 180.272L120.502 188.615C119.559 189.556 118.917 190.757 118.658 192.063L114.249 214.107C114.047 215.114 113.617 216.062 112.993 216.878C112.369 217.694 111.567 218.357 110.648 218.816L107.035 220.627C105.768 221.26 104.335 221.478 102.937 221.251C101.54 221.024 100.25 220.363 99.2485 219.362L92.5469 212.66C92.0356 212.146 91.6085 211.555 91.2812 210.909L87.0254 202.397C86.5601 201.459 86.3173 200.426 86.3159 199.379V177.86C86.315 176.608 85.9663 175.38 85.3086 174.315C84.651 173.249 83.7102 172.387 82.5913 171.825L77.0093 169.037C75.9578 168.514 75.0622 167.724 74.4121 166.746L65.6274 153.562C64.8867 152.456 64.4917 151.155 64.4927 149.824V145.121C64.4937 143.868 64.8428 142.641 65.5008 141.575C66.1588 140.51 67.1 139.648 68.2192 139.086L73.3921 136.498C74.701 135.849 75.761 134.789 76.4097 133.48L78.9976 128.308C79.5595 127.189 80.4209 126.249 81.4857 125.592C82.5505 124.934 83.7769 124.586 85.0283 124.584H94.4351C95.3208 124.584 96.1979 124.758 97.0162 125.097C97.8345 125.436 98.578 125.933 99.2041 126.559L100.71 128.065C101.336 128.691 102.08 129.188 102.898 129.527C103.716 129.866 104.593 130.04 105.479 130.04H106.854C107.74 130.04 108.616 130.215 109.435 130.554C110.253 130.893 110.996 131.389 111.622 132.016C112.249 132.642 112.745 133.385 113.084 134.203C113.423 135.022 113.597 135.899 113.597 136.784C113.598 138.037 113.947 139.264 114.605 140.33C115.263 141.395 116.204 142.257 117.324 142.819L131.696 150C132.815 150.561 133.757 151.423 134.415 152.489C135.073 153.554 135.422 154.782 135.423 156.034Z" fill="#00D468"/>
<path d="M239.165 124.584C239.202 154.548 227.464 183.326 206.481 204.716L201.461 192.287C201.089 191.173 200.9 190.007 200.899 188.833V176.812C200.9 175.119 200.505 173.449 199.748 171.934L191.136 154.714C190.378 153.2 189.984 151.53 189.985 149.836V148.243C189.985 146.383 189.51 144.554 188.604 142.93C187.698 141.305 186.393 139.939 184.81 138.961C183.228 137.983 181.423 137.426 179.565 137.342C177.707 137.258 175.858 137.65 174.194 138.482L170.462 140.348C168.948 141.106 167.277 141.5 165.584 141.499H165.115C162.824 141.499 160.591 140.778 158.732 139.439C156.873 138.099 155.483 136.208 154.759 134.035L152.353 126.808C151.981 125.694 151.792 124.528 151.791 123.354V114.6C151.791 112.803 152.235 111.034 153.083 109.45C153.931 107.866 155.157 106.516 156.652 105.52L166.588 98.8959C167.629 98.2033 168.781 97.694 169.994 97.39L186.903 93.1615C188.917 92.6598 191.033 92.7411 193.003 93.3959L204.673 97.286C205.787 97.6577 206.953 97.8474 208.127 97.8481H236.025C238.116 106.606 239.17 115.58 239.165 124.584Z" fill="#00D468"/>
<path d="M228.132 75.4766H211.834C209.378 75.4762 207.023 74.5008 205.286 72.7647L204.163 71.6416C202.426 69.9054 200.071 68.93 197.615 68.9297H190.543C189.103 68.9287 187.684 69.2631 186.396 69.9062L177.216 74.5005C175.928 75.1431 174.509 75.4774 173.069 75.4771H171.421C169.59 75.477 167.8 74.934 166.277 73.9165C164.754 72.8991 163.567 71.4529 162.867 69.761C162.166 68.069 161.982 66.2073 162.339 64.4111C162.697 62.6149 163.579 60.965 164.873 59.6699L174.2 50.3438C174.902 49.6412 175.713 49.0554 176.601 48.6084L186.394 43.7139C187.682 43.0707 189.102 42.7363 190.541 42.7373H204.766C214.421 52.1899 222.331 63.2731 228.132 75.4766Z" fill="#00D468"/>
<path opacity="0.25" d="M146.41 211.885C86.1406 211.885 37.2827 163.027 37.2827 102.758C37.2657 87.6753 40.384 72.7539 46.4395 58.9405C52.4951 45.127 61.3558 32.723 72.4595 22.5156C53.654 32.1209 37.8687 46.7363 26.8466 64.748C15.8246 82.7597 9.99442 103.467 10 124.583C10 187.865 61.3022 239.167 124.583 239.167C145.7 239.173 166.407 233.342 184.419 222.32C202.431 211.298 217.046 195.513 226.651 176.708C216.444 187.811 204.04 196.672 190.227 202.728C176.413 208.783 161.492 211.902 146.41 211.885Z" fill="#999999"/>
</svg>
