<svg width="250" height="250" viewBox="0 0 250 250" fill="none" xmlns="http://www.w3.org/2000/svg">
<path d="M172.048 203.5H161.631C157.487 203.5 153.513 201.854 150.583 198.924C147.653 195.994 146.006 192.019 146.006 187.875V156.625C146.006 155.244 145.458 153.919 144.481 152.942C143.504 151.966 142.179 151.417 140.798 151.417H109.548C108.167 151.417 106.842 151.966 105.865 152.942C104.888 153.919 104.34 155.244 104.34 156.625V187.875C104.34 192.019 102.693 195.994 99.7632 198.924C96.833 201.854 92.8587 203.5 88.7147 203.5H78.298C74.8592 203.5 71.4545 204.181 68.2803 205.504C65.1061 206.827 62.2253 208.765 59.8041 211.207C57.383 213.649 55.4695 216.546 54.174 219.731C52.8785 222.917 52.2268 226.327 52.2563 229.766C52.2998 231.113 52.8696 232.389 53.8432 233.321C54.8169 234.253 56.117 234.766 57.4647 234.75H192.881C194.229 234.766 195.529 234.253 196.503 233.321C197.476 232.389 198.046 231.113 198.09 229.766C198.119 226.327 197.467 222.917 196.172 219.731C194.877 216.546 192.963 213.649 190.542 211.207C188.121 208.765 185.24 206.827 182.066 205.504C178.892 204.181 175.487 203.5 172.048 203.5Z" fill="#FFAB14"/>
<path d="M78.0635 135.078C78.5644 133.068 78.2466 130.942 77.1801 129.166C76.1136 127.391 74.3856 126.111 72.376 125.609C71.0792 125.26 39.5635 116.146 36.7458 62.8802H60.1208C62.1928 62.8802 64.18 62.0571 65.6451 60.592C67.1102 59.1268 67.9333 57.1397 67.9333 55.0677C67.934 54.0413 67.7325 53.0249 67.3401 52.0764C66.9478 51.1279 66.3725 50.2661 65.6469 49.5401C64.9214 48.8141 64.06 48.2381 63.1118 47.8452C62.1636 47.4522 61.1472 47.25 60.1208 47.25H34.0792C32.3293 47.2584 30.5987 47.616 28.9888 48.302C27.379 48.988 25.9223 49.9885 24.7042 51.2448C23.4816 52.4806 22.5232 53.9523 21.8875 55.5703C21.2518 57.1883 20.9519 58.9187 21.0063 60.6563C23.3031 128.693 66.7406 140.302 68.5844 140.766C69.5803 141.015 70.6156 141.066 71.6311 140.915C72.6466 140.764 73.6224 140.415 74.5028 139.887C75.3831 139.358 76.1507 138.662 76.7617 137.837C77.3727 137.012 77.8151 136.074 78.0635 135.078Z" fill="#FFAB14"/>
<path d="M172.282 135.078C171.781 133.068 172.099 130.942 173.166 129.166C174.232 127.391 175.96 126.111 177.97 125.609C179.267 125.26 210.782 116.146 213.6 62.8802H190.225C188.153 62.8802 186.166 62.0571 184.701 60.592C183.235 59.1268 182.412 57.1397 182.412 55.0677C182.412 54.0413 182.613 53.0249 183.006 52.0764C183.398 51.1279 183.973 50.2661 184.699 49.5401C185.424 48.8141 186.286 48.2381 187.234 47.8452C188.182 47.4522 189.198 47.25 190.225 47.25H216.267C218.016 47.2584 219.747 47.616 221.357 48.302C222.967 48.988 224.423 49.9885 225.642 51.2448C226.855 52.485 227.803 53.9586 228.43 55.5764C229.057 57.1942 229.349 58.9224 229.287 60.6563C226.99 128.693 183.553 140.302 181.709 140.766C179.705 141.254 177.59 140.93 175.824 139.865C174.058 138.799 172.785 137.079 172.282 135.078Z" fill="#FFAB14"/>
<path d="M125.173 180.094C112.299 180.086 99.8047 175.727 89.7199 167.724C65.2095 148.365 52.2563 124.276 52.2563 98.0781V31.625C52.2563 27.481 53.9025 23.5067 56.8328 20.5765C59.7631 17.6462 63.7373 16 67.8813 16H182.465C186.609 16 190.583 17.6462 193.513 20.5765C196.443 23.5067 198.09 27.481 198.09 31.625V98.0781C198.09 124.276 185.137 148.365 160.626 167.724C150.541 175.727 138.047 180.086 125.173 180.094Z" fill="#FFBC43"/>
<path d="M105.293 95.7968L98.5583 87.0416C98.0423 86.3713 97.6973 85.5853 97.5532 84.7518C97.4091 83.9182 97.4702 83.062 97.7312 82.2574C97.9923 81.4527 98.4454 80.7237 99.0514 80.1335C99.6574 79.5432 100.398 79.1095 101.209 78.8698L111.808 75.7447C112.957 75.4057 113.954 74.681 114.631 73.6927L120.881 64.5833C121.36 63.8851 122.001 63.3139 122.749 62.9193C123.498 62.5246 124.332 62.3184 125.178 62.3184C126.024 62.3184 126.858 62.5246 127.607 62.9193C128.355 63.3139 128.997 63.8851 129.475 64.5833L135.725 73.6927C136.402 74.681 137.399 75.4057 138.548 75.7447L149.147 78.8698C149.958 79.1095 150.699 79.5432 151.305 80.1335C151.911 80.7237 152.364 81.4527 152.625 82.2574C152.886 83.062 152.947 83.9182 152.803 84.7518C152.659 85.5853 152.314 86.3713 151.798 87.0416L145.063 95.7968C144.333 96.7459 143.953 97.9176 143.985 99.1145L144.287 110.161C144.31 111.007 144.127 111.846 143.753 112.605C143.378 113.363 142.825 114.02 142.14 114.517C141.456 115.014 140.66 115.336 139.823 115.457C138.986 115.577 138.131 115.492 137.334 115.208L126.918 111.51C125.789 111.109 124.557 111.109 123.428 111.51L113.011 115.208C112.214 115.492 111.36 115.577 110.523 115.457C109.685 115.336 108.89 115.014 108.205 114.517C107.521 114.02 106.967 113.363 106.593 112.605C106.219 111.846 106.036 111.007 106.058 110.161L106.36 99.1145C106.396 97.9188 106.019 96.7473 105.293 95.7968Z" fill="#FFAB14"/>
</svg>
