<svg width="250" height="250" viewBox="0 0 250 250" fill="none" xmlns="http://www.w3.org/2000/svg">
<path d="M94.9772 144.833L228.331 11.4271C229.238 10.5208 230.576 10 232.008 10C233.441 10 234.79 10.5208 235.696 11.4323L243.061 18.7969C244.055 19.7969 244.587 21.0677 244.587 22.4792C244.587 23.8906 244.061 25.1667 243.066 26.1615L109.712 159.573L94.9824 144.839L94.9772 144.833Z" fill="#0088FA"/>
<path d="M71.123 249.584C68.373 249.584 65.748 248.501 63.7741 246.527L8.05531 190.792C5.8001 188.542 4.71156 185.433 5.06573 182.266C5.41989 179.1 7.16469 176.308 9.85739 174.61L60.0814 142.896L67.0345 135.943C77.1855 125.787 93.7116 125.787 103.863 135.943L118.592 150.678C128.743 160.834 128.743 177.365 118.592 187.521L111.639 194.48L79.9407 244.719C78.2428 247.412 75.4511 249.162 72.2897 249.516C71.8991 249.558 71.5136 249.584 71.123 249.584Z" fill="#CCCCCC"/>
<path d="M66.6543 196.182L41.8262 224.573L49.2064 231.958L74.4928 203.047C76.3887 200.88 76.1699 197.588 74.0033 195.693C71.8314 193.802 68.5501 194.021 66.6543 196.182Z" fill="#999999"/>
<path d="M21.8366 204.578L29.222 211.969L65.1856 181.089C67.3679 179.214 67.6179 175.922 65.7429 173.74C63.8679 171.552 60.5814 171.302 58.3991 173.183L21.8366 204.578Z" fill="#999999"/>
<path d="M107.55 196.417C106.217 196.417 104.884 195.906 103.868 194.891L59.6752 150.677C57.6387 148.641 57.6387 145.344 59.6752 143.307L67.0398 135.938C77.1908 125.781 93.7168 125.781 103.868 135.938L118.597 150.672C128.748 160.828 128.748 177.359 118.597 187.516L111.232 194.885C110.217 195.901 108.884 196.417 107.55 196.417Z" fill="#66B8FC"/>
<path d="M103.962 72.5003C102.055 72.5003 100.305 71.4587 99.3939 69.792L96.795 65.042C95.3575 62.417 93.2116 60.266 90.5866 58.8337L85.8366 56.2347C84.17 55.3232 83.1283 53.568 83.1283 51.667C83.1283 49.7659 84.17 48.0107 85.8366 47.0993L90.5866 44.5003C93.2116 43.0628 95.3627 40.917 96.795 38.292L99.3939 33.542C101.222 30.2035 106.706 30.2035 108.535 33.542L111.134 38.292C112.571 40.917 114.717 43.068 117.342 44.5003L122.092 47.0993C123.759 48.0107 124.8 49.7659 124.8 51.667C124.8 53.568 123.759 55.3232 122.092 56.2347L117.342 58.8337C114.717 60.2712 112.566 62.417 111.134 65.042L108.535 69.792C107.623 71.4587 105.863 72.5003 103.962 72.5003Z" fill="#F2F2F2"/>
<path d="M166.462 218.333C164.555 218.333 162.805 217.292 161.894 215.625L159.295 210.875C157.857 208.25 155.712 206.099 153.087 204.667L148.337 202.068C146.67 201.156 145.628 199.401 145.628 197.5C145.628 195.599 146.67 193.844 148.337 192.932L153.087 190.333C155.712 188.896 157.863 186.75 159.295 184.125L161.894 179.375C163.722 176.036 169.206 176.036 171.034 179.375L173.633 184.125C175.071 186.75 177.217 188.901 179.842 190.333L184.592 192.932C186.258 193.844 187.3 195.599 187.3 197.5C187.3 199.401 186.258 201.156 184.592 202.068L179.842 204.667C177.217 206.104 175.066 208.25 173.633 210.875L171.034 215.625C170.123 217.292 168.363 218.333 166.462 218.333Z" fill="#F2F2F2"/>
<path d="M57.0866 103.751H51.8783V98.5423C51.8783 95.6673 49.5449 93.334 46.6699 93.334C43.7949 93.334 41.4616 95.6673 41.4616 98.5423V103.751H36.2533C33.3783 103.751 31.0449 106.084 31.0449 108.959C31.0449 111.834 33.3783 114.167 36.2533 114.167H41.4616V119.376C41.4616 122.251 43.7949 124.584 46.6699 124.584C49.5449 124.584 51.8783 122.251 51.8783 119.376V114.167H57.0866C59.9616 114.167 62.2949 111.834 62.2949 108.959C62.2949 106.084 59.9616 103.751 57.0866 103.751Z" fill="#F2F2F2"/>
<path d="M218.545 135.001H213.337V129.792C213.337 126.917 211.003 124.584 208.128 124.584C205.253 124.584 202.92 126.917 202.92 129.792V135.001H197.712C194.837 135.001 192.503 137.334 192.503 140.209C192.503 143.084 194.837 145.417 197.712 145.417H202.92V150.626C202.92 153.501 205.253 155.834 208.128 155.834C211.003 155.834 213.337 153.501 213.337 150.626V145.417H218.545C221.42 145.417 223.753 143.084 223.753 140.209C223.753 137.334 221.42 135.001 218.545 135.001Z" fill="#F2F2F2"/>
</svg>
